<svg xmlns="http://www.w3.org/2000/svg" viewBox="0 0 650 250"><style type="text/css">
	.st0{fill:#FFFFFF;}
</style><path class="st0" d="M204.5 100.6c0-15.8 11.9-27.2 26.7-27.2s28 9.1 26 29.6h-47.4c1.1 12.4 10.5 19.5 21.4 19.5 6.9 0 15-2.8 19-8l3.7 3c-5.1 6.7-14.3 10.1-22.7 10.1C216.4 127.6 204.5 117.3 204.5 100.6zM252.6 98.4c-0.1-13-8.6-20.2-21.3-20.2 -10.9 0-20.2 7.4-21.4 20.2H252.6z"></path><path class="st0" d="M280.6 58.4v15.9h17.9v4.4h-17.9v32.1c0 7.1 1.5 12.1 9.7 12.1 2.6 0 5.4-0.9 8.1-2.1l1.8 4.3c-3.3 1.6-6.6 2.7-9.9 2.7 -11.2 0-14.8-6.6-14.8-16.9V78.6h-11.2v-4.4h11.2V58.9L280.6 58.4z"></path><path class="st0" d="M315.5 52.3v31.7c4.3-7.6 11.6-10.4 19-10.5 14.7 0 22.1 9.5 22.1 23.2v30.2h-5.1V96.7c0-10.9-5.1-18.2-16.9-18.2 -11.1 0-18.8 8.5-18.8 19.5v28.9h-5.2V52.3H315.5z"></path><path class="st0" d="M367.2 100.6c0-15.8 11.9-27.2 26.7-27.2s28 9.1 26 29.6h-47.4c1.1 12.4 10.5 19.5 21.4 19.5 6.9 0 15-2.8 19-8l3.7 3c-5.1 6.7-14.3 10.1-22.7 10.1C379.1 127.6 367.2 117.3 367.2 100.6zM415.2 98.4c-0.1-13-8.6-20.2-21.3-20.2 -10.9 0-20.2 7.4-21.4 20.2H415.2z"></path><path class="st0" d="M438.4 74.3l0.2 9.4c3.3-7.1 10.8-9.9 17.5-9.9 3.9-0.1 7.8 1 11.3 3.1l-2.3 4.3c-2.8-1.7-5.9-2.5-8.9-2.5 -9.8 0.1-17.4 8-17.4 17.6v30.7h-5.2V74.3H438.4z"></path><path class="st0" d="M472.2 100.6c0-15.8 11.9-27.2 26.7-27.2s28 9.1 26 29.6h-47.4c1.1 12.4 10.5 19.5 21.4 19.5 6.9 0 15-2.8 19-8l3.7 3c-5.1 6.7-14.3 10.1-22.7 10.1C484.2 127.6 472.2 117.3 472.2 100.6zM520.3 98.4c-0.1-13-8.6-20.2-21.3-20.2 -10.9 0-20.2 7.4-21.4 20.2H520.3z"></path><path class="st0" d="M589.1 74.3c0 17.6 0 35.1 0 52.6h-5.2v-11.2c-5.1 8.2-13 12-21.5 12 -14.7 0-26.7-11.1-26.7-27.2s12-27 26.7-27c8.5 0 17.2 3.9 21.5 12.1V74.3H589.1zM540.8 100.6c0 13.2 9.6 22.1 21.5 22.1 29.3 0 29.3-44 0-44C550.4 78.6 540.8 87.4 540.8 100.6z"></path><path class="st0" d="M608.5 52.3v74.6h-5.2V52.3H608.5z"></path><path class="st0" d="M159.8 129.8l13.4-64.7c0-0.2 0-0.4-0.2-0.5 -0.1-0.1-0.3-0.2-0.5-0.2l-66.3 13.7L42.6 64.9c-0.4-0.1-0.8 0.3-0.7 0.7l13.3 64.2 -13.6 65.5c0 0.2 0 0.4 0.2 0.5 0.1 0.1 0.3 0.2 0.5 0.2l63.9-13.3 4.7 1 0 0 1.2 0.3 0 0 8.9 1.8 0 0 1.3 0.3 0 0 10.7 2.2 0 0 1.4 0.3 0 0 14.2 2.9 0 0 1.7 0.3 0 0 22.5 4.7c0.2 0 0.4 0 0.5-0.2 0.1-0.1 0.2-0.3 0.2-0.5L159.8 129.8zM88.9 149.6l-9.9-47.6 47.7 9.9 9.9 47.7L88.9 149.6zM77.8 101.8l1.8 8.5L47.7 87.9l-4.2-20.4L77.8 101.8zM79.9 111.9l1.2 5.6 -30.2-14.1L48 89.6 79.9 111.9zM81.4 119l0.9 4.1 -28.9-7.7 -2.2-10.5L81.4 119zM82.5 124.4l0.7 3.3 -27.8-2.4 -1.8-8.6L82.5 124.4zM100.3 153.1l-6.9 25.8 -7.6-1.6 11.6-24.8L100.3 153.1zM84.6 177.1l-8.3-1.7 16.6-23.8 3.2 0.7L84.6 177.1zM75 175.1l-9.5-2 22.8-22.5 3.3 0.7L75 175.1zM65.1 171.9L63 162l23.8-16.7 0.9 4.3L65.1 171.9zM62.8 160.8l-1.7-8.2L86 141l0.6 3.1L62.8 160.8zM60.8 151.4l-1.6-7.5 25.8-6.9 0.6 2.8L60.8 151.4zM59 142.7l-1.5-7.4 26.8-2.3 0.6 2.8L59 142.7zM83.5 128.9l0.6 2.9 -26.8 2.3 -1.6-7.7L83.5 128.9zM56.1 134.3l-0.7 0.1 0.3-1.6L56.1 134.3zM56.3 135.5l1.6 7.6 -4.5 1.2 1.8-8.7L56.3 135.5zM58.1 144.2l1.6 7.7 -8.8 4.1 2.2-10.5L58.1 144.2zM60 153.1l1.7 8.4 -14 9.8 2.9-13.8L60 153.1zM62 162.7l2.1 10.2 -20.9 20.6 4.3-20.6L62 162.7zM64.6 174.1c0.1 0 0.1 0.1 0.2 0.1l9.6 2 -9.9 14.1 -20.6 4.3L64.6 174.1zM75.6 176.4l8.5 1.8L80 187l-13.8 2.9L75.6 176.4zM85.3 178.4l7.8 1.6 -1.2 4.5 -10.4 2.2L85.3 178.4zM94.2 180.3l7.6 1.6 -0.1 0.6 -8.6 1.8L94.2 180.3zM94.5 179.1l6.9-25.8 2.8 0.6 -2.3 26.7L94.5 179.1zM159.7 135.2l-27.4-2.4 -0.7-3.1 26.5-2.3L159.7 135.2zM134.7 144.7l29.8 13.9 2.9 14.1L136 150.6 134.7 144.7zM134.4 143.2l-0.9-4.4 28.5 7.6 2.2 10.7L134.4 143.2zM133.3 137.5l-0.7-3.6 27.4 2.4 1.8 8.8L133.3 137.5zM131.4 128.5l-0.6-3 25.5-6.8 1.6 7.5L131.4 128.5zM130.5 124.3l-0.6-3 24.6-11.5 1.6 7.7L130.5 124.3zM114.3 108l6.9-25.6 7.6 1.6 -11.5 24.6L114.3 108zM130 84.3l8.3 1.7 -16.5 23.6 -3.3-0.7L130 84.3zM139.6 86.3l9.4 1.9 -22.1 22.4 -3.8-0.8L139.6 86.3zM150.1 88.8l2.1 10.3 -23.5 16.5 -0.9-4.2L150.1 88.8zM152.5 100.3l1.7 8.4 -24.6 11.5 -0.7-3.3L152.5 100.3zM155.6 109.3l8.1-3.8 -2.2 10.5 -4.3 1.1L155.6 109.3zM155.3 108.1l-1.8-8.6 13.3-9.3 -2.9 13.9L155.3 108.1zM153.3 98.3l-2.2-10.5c0 0 0 0 0 0L171.6 67l-4.5 21.6L153.3 98.3zM150 87.2l-9.7-2 10.6-15.1 20.1-4.2L150 87.2zM139.1 84.9l-8.6-1.8 4.6-9.8 14.2-2.9L139.1 84.9zM129.3 82.9l-7.8-1.6 1.5-5.4 10.7-2.2L129.3 82.9zM120.3 81.1l-7.6-1.6 0.1-1.5 8.8-1.8L120.3 81.1zM120 82.2l-6.9 25.6 -2.9-0.6 2.3-26.5L120 82.2zM137.9 160l-1.6-7.7 31.5 22.1 4.1 19.6L137.9 160zM159.4 126l-0.4 0 -1.6-7.7 3.8-1L159.4 126zM111.6 78.2l-0.1 1 -2.4-0.5L111.6 78.2zM111.4 80.4l-2.3 26.5 -3-0.6 -2.4-27.5 -1.2-0.3 2.4 27.5 -3.4-0.7 -7.7-28.6 -1.3-0.3 7.7 28.6 -4.2-0.9L82 74.3 80.5 74l13.9 29.9 -5.7-1.2L66.7 71.1 65 70.8l22.1 31.6 -8.8-1.8L44 66.5l-0.9-0.2 0 0L111.4 80.4zM103 182.2l0-0.1 0.3 0.1L103 182.2zM103.1 180.9l2.3-26.7 3 0.6 2.4 27.7L103.1 180.9zM112 182.8l-2.4-27.7 3.3 0.7 7.7 28.8L112 182.8zM122 184.8l-7.7-28.8 4.1 0.9 14.1 30.1L122 184.8zM133.8 187.3l-14.1-30.1 5.6 1.2 22.3 31.9L133.8 187.3zM127 158.7l9.9 2.1 34.3 34.3 -22-4.6L127 158.7z"></path><path class="st0" d="M172.9 197.3c-0.1 0-0.2 0-0.3 0l-37-7.7v0L113 185v0l-6.8-1.4 -63.8 13.2c-0.4 0.1-0.9 0-1.2-0.4 -0.3-0.3-0.5-0.8-0.4-1.2l13.5-65.4 -13.3-64c-0.1-0.4 0.1-0.9 0.4-1.2 0.3-0.3 0.8-0.5 1.2-0.4l63.5 13.2 66.2-13.7c0.4-0.1 0.9 0 1.2 0.4 0.3 0.3 0.5 0.8 0.4 1.2l-13.4 64.6 13.7 65.9c0.1 0.4 0 0.9-0.4 1.2C173.6 197.2 173.3 197.3 172.9 197.3zM149.8 189.8l19.2 4 -32.4-32.4 -7.9-1.6L149.8 189.8zM64.8 174.9l-18.6 18.3 17.8-3.7 9-12.9L64.8 174.9zM138.6 159.6l32.1 32.1 -3.5-16.8L137.4 154 138.6 159.6zM48.1 173.4l-3.7 17.9 18.9-18.6 -1.8-8.6L48.1 173.4zM134.4 186.6l11.6 2.4 -21-30.1 -3.8-0.8L134.4 186.6zM75.9 177.3l-8.1 11.5 11.6-2.4 3.6-7.6L75.9 177.3zM122.6 184.2l8.5 1.8 -13.3-28.4 -2.6-0.5L122.6 184.2zM85.7 179.3l-3 6.4 8.5-1.8 0.9-3.3L85.7 179.3zM112.7 182.2l6.9 1.4 -7.3-27.2 -1.9-0.4L112.7 182.2zM94.7 181.2l-0.6 2.1 5.4-1.1L94.7 181.2zM103.9 180.3l6.1 1.3 -2.3-26.2 -1.6-0.3L103.9 180.3zM95.4 178.6l5.8 1.2 2.2-25.2 -1.5-0.3L95.4 178.6zM86.9 176.8l6 1.2 6.5-24.3 -1.5-0.3L86.9 176.8zM77.6 174.9l6.6 1.4 10.9-23.4 -1.8-0.4L77.6 174.9zM67.1 172.7l7.7 1.6 15.7-22.4 -1.8-0.4L67.1 172.7zM136.7 150.2l29.7 20.8 -2.5-11.9L135.8 146 136.7 150.2zM63.9 162.3l1.7 8.1 21.4-21.1 -0.6-2.7L63.9 162.3zM51.3 157.9l-2.4 11.6 12-8.4 -1.5-7L51.3 157.9zM61.9 153l1.3 6.5 22.5-15.7 -0.4-1.7L61.9 153zM89.6 148.9l46 9.5 -9.5-46.1 -46-9.5L89.6 148.9zM135.1 142.7l28.1 13.1 -1.8-8.8 -26.9-7.2L135.1 142.7zM53.8 146.1l-1.8 8.5 6.9-3.2 -1.3-6.4L53.8 146.1zM60.2 144.4l1.2 5.9 23.5-10.9 -0.3-1.5L60.2 144.4zM133.9 136.9l26.9 7.2 -1.5-7.1 -25.9-2.3L133.9 136.9zM55.8 136.4l-1.4 6.8 2.7-0.7L55.8 136.4zM58.4 136l1.2 5.7 24.4-6.5 -0.3-1.4L58.4 136zM132.9 132.1l25.9 2.3 -1.3-6.2 -25 2.2L132.9 132.1zM56.6 127.3l1.3 6.1 25.3-2.2 -0.3-1.6L56.6 127.3zM158.7 126.8l0.5 2.2 0.5-2.3L158.7 126.8zM131.6 126l0.3 1.6 25-2.2 -1.2-5.9L131.6 126zM56.1 124.6l26.2 2.3 -0.4-1.9 -27.3-7.3L56.1 124.6zM130.7 121.7l0.3 1.7 24.1-6.4 -1.3-6L130.7 121.7zM158.3 118.9l0.9 4.3 1-4.8L158.3 118.9zM54 114.8l27.3 7.3 -0.5-2.6 -28.5-13.3L54 114.8zM129.8 117.1l0.4 1.9 23.2-10.8 -1.4-6.7L129.8 117.1zM156.4 109.8l1.3 6.5 3.1-0.8 1.8-8.6L156.4 109.8zM51.6 102.9l28.5 13.3 -0.8-3.8L49.1 91.3 51.6 102.9zM128.6 111.6l0.6 2.7 22.2-15.5 -1.7-8.4L128.6 111.6zM124.4 109.3l2.3 0.5 20.9-21.1 -7.6-1.6L124.4 109.3zM119.6 108.3l1.9 0.4 15.6-22.2 -6.6-1.4L119.6 108.3zM48.4 87.5l30.1 21.1 -1.3-6.4L44.7 69.8 48.4 87.5zM115.3 107.4l1.6 0.3 10.8-23.2 -6-1.2L115.3 107.4zM154.4 99.9l1.5 7.2 7.4-3.5 2.4-11.6L154.4 99.9zM111.1 106.6l1.6 0.3 6.5-24.1 -5.8-1.2L111.1 106.6zM106.8 105.7l1.7 0.3 2.2-25 -6.1-1.3L106.8 105.7zM102 104.7l2 0.4 -2.3-25.9 -7-1.4L102 104.7zM96.4 103.5l2.7 0.6 -7.2-27 -8.6-1.8L96.4 103.5zM89.2 102l3.9 0.8L80 74.7l-11.7-2.4L89.2 102zM78.6 99.8l6.8 1.4L64.5 71.5l-18.2-3.8L78.6 99.8zM151.9 88l1.9 9 12.7-8.9 3.9-18.8L151.9 88zM141.6 84.7l8.1 1.7 19-19.3 -17.4 3.6L141.6 84.7zM131.6 82.6l7.2 1.5 8.8-12.6L135.6 74 131.6 82.6zM122.4 80.7l6.5 1.3 3.4-7.4 -8.8 1.8L122.4 80.7zM113.5 78.9l6.3 1.3 0.8-3.1 -7.1 1.5L113.5 78.9z"></path><path class="st0" d="M221.3 197.7c-7.6 0-13.1-1.8-18-6.7l5.1-5.1c3.7 3.7 7.8 4.9 13 4.9 6.6 0 10.5-2.9 10.5-7.8 0-2.2-0.6-4.1-2-5.3 -1.3-1.2-2.6-1.7-5.6-2.1l-6-0.9c-4.1-0.6-7.4-2-9.6-4.1 -2.5-2.4-3.7-5.6-3.7-9.7 0-8.9 6.4-14.9 17-14.9 6.7 0 11.4 1.7 15.8 5.8l-4.9 4.9c-3.1-3-6.8-3.9-11.1-3.9 -6 0-9.3 3.4-9.3 7.9 0 1.9 0.6 3.5 1.9 4.7 1.3 1.1 3.4 2 5.7 2.4l5.8 0.9c4.7 0.7 7.4 1.9 9.5 3.8 2.8 2.4 4.1 6.1 4.1 10.4C239.6 192.1 231.9 197.7 221.3 197.7z"></path><path class="st0" d="M295.9 197.7c-10.4 0-18.2-7.1-18.2-17.6v-33.7h7.7v33.3c0 6.8 4.1 11 10.5 11 6.4 0 10.6-4.2 10.6-11v-33.3h7.7v33.7C314.2 190.6 306.3 197.7 295.9 197.7z"></path><path class="st0" d="M392.4 197.3v-34l-11.7 24.8h-5.7l-12-24.8v34h-7.7v-50.8h7.7l14.9 31.6 14.6-31.6h7.7v50.8H392.4z"></path><path class="st0" d="M479 197.3v-34l-11.7 24.8h-5.7l-12-24.8v34h-7.7v-50.8h7.7l14.9 31.6 14.6-31.6h7.7v50.8H479z"></path><path class="st0" d="M528.4 197.3v-50.8h7.7v50.8H528.4z"></path><path class="st0" d="M595.2 153.4v43.9h-7.7v-43.9h-14v-6.9h35.7v6.9H595.2z"></path></svg>
