<svg id="intimate" xmlns="http://www.w3.org/2000/svg" viewBox="0 0 313.35 49.35"><defs><style>.cls-1{fill:#3f2c55;}.cls-2{fill:none;stroke:#3f2c55;stroke-miterlimit:10;stroke-width:4px;}</style></defs><title>horizontal-io_purple</title><path class="cls-1" d="M4.46,7.13a3.59,3.59,0,0,1,1.07-2.6,3.47,3.47,0,0,1,2.6-1.11,3.53,3.53,0,0,1,2.6,1.08A3.51,3.51,0,0,1,11.8,7.1a3.52,3.52,0,0,1-1.07,2.6,3.52,3.52,0,0,1-2.6,1.07,3.5,3.5,0,0,1-2.6-1.1A3.52,3.52,0,0,1,4.46,7.13Zm3.67,9.63h0A2.24,2.24,0,0,1,10.37,19V50.16a2.24,2.24,0,0,1-2.24,2.25h0a2.24,2.24,0,0,1-2.24-2.25V19A2.24,2.24,0,0,1,8.13,16.76Z" transform="translate(-4.46 -3.42)"/><path class="cls-1" d="M21.75,16.76h.07A2.2,2.2,0,0,1,24,19v4Q29.35,15.85,37,15.84A12.23,12.23,0,0,1,44,18a11.45,11.45,0,0,1,4.42,5.53q1.31,3.41,1.3,10V50.2a2.21,2.21,0,0,1-2.21,2.21h0a2.21,2.21,0,0,1-2.21-2.21V34.83a39.17,39.17,0,0,0-.55-8.19A10.12,10.12,0,0,0,43.05,23a7.24,7.24,0,0,0-2.9-2.28,10.44,10.44,0,0,0-4.25-.78A10.55,10.55,0,0,0,31,21.18a12,12,0,0,0-4.1,3.44,12.45,12.45,0,0,0-2.28,4.56A47.86,47.86,0,0,0,24,38.6V50.2a2.21,2.21,0,0,1-2.21,2.21h-.07a2.21,2.21,0,0,1-2.21-2.21V19A2.2,2.2,0,0,1,21.75,16.76Z" transform="translate(-4.46 -3.42)"/><path class="cls-1" d="M64.81,45.82c0,1.17.15,1.87.45,2.08a5,5,0,0,0,2.34.33h.78a1.88,1.88,0,0,1,1.89,1.88v.27a1.87,1.87,0,0,1-1.63,1.86,21.13,21.13,0,0,1-2.66.21A5.67,5.67,0,0,1,61.69,51a6.29,6.29,0,0,1-1.37-4.48v-26H56.09a1.89,1.89,0,0,1-1.88-1.89h0a1.88,1.88,0,0,1,1.88-1.88h4.23V5.31a1.89,1.89,0,0,1,1.89-1.89h.71a1.89,1.89,0,0,1,1.89,1.89V16.76H70a1.88,1.88,0,0,1,1.88,1.88h0A1.89,1.89,0,0,1,70,20.53H64.81Z" transform="translate(-4.46 -3.42)"/><path class="cls-1" d="M76.38,7.13a3.6,3.6,0,0,1,1.08-2.6,3.47,3.47,0,0,1,2.6-1.11,3.55,3.55,0,0,1,2.6,1.08,3.55,3.55,0,0,1,1.07,2.6,3.56,3.56,0,0,1-1.07,2.6,3.54,3.54,0,0,1-2.6,1.07,3.5,3.5,0,0,1-2.6-1.1A3.53,3.53,0,0,1,76.38,7.13Zm3.68,9.63h0A2.24,2.24,0,0,1,82.3,19V50.16a2.24,2.24,0,0,1-2.24,2.25h0a2.25,2.25,0,0,1-2.25-2.25V19A2.24,2.24,0,0,1,80.06,16.76Z" transform="translate(-4.46 -3.42)"/><path class="cls-1" d="M93.65,16.76h.06a2.17,2.17,0,0,1,2.18,2.17v3.81q4.62-6.9,11.84-6.9A11.49,11.49,0,0,1,114.59,18a10.62,10.62,0,0,1,4.06,6.15A16.22,16.22,0,0,1,124.11,18a13.76,13.76,0,0,1,7.64-2.15,11.1,11.1,0,0,1,7.84,3.35q3.51,3.36,3.51,13.24v17.8a2.19,2.19,0,0,1-2.18,2.18h-.19a2.18,2.18,0,0,1-2.18-2.18V32.43a30.11,30.11,0,0,0-.59-7,6.93,6.93,0,0,0-2.53-3.78,8.21,8.21,0,0,0-5.17-1.52,9.71,9.71,0,0,0-6,2.14,10.81,10.81,0,0,0-3.83,5.46,35.67,35.67,0,0,0-1,10V50.23a2.19,2.19,0,0,1-2.18,2.18h0A2.18,2.18,0,0,1,115,50.23V33.6a36.94,36.94,0,0,0-.59-7.9,7.07,7.07,0,0,0-2.6-4,7.72,7.72,0,0,0-4.94-1.59,9.65,9.65,0,0,0-5.49,1.72,11.78,11.78,0,0,0-4,4.71q-1.45,3-1.46,10.08V50.23a2.18,2.18,0,0,1-2.18,2.18h-.06a2.18,2.18,0,0,1-2.18-2.18V18.93A2.17,2.17,0,0,1,93.65,16.76Z" transform="translate(-4.46 -3.42)"/><path class="cls-1" d="M186.86,18.93V49.11a2.17,2.17,0,0,1-2.18,2.17h0a2.17,2.17,0,0,1-2.17-2.17V45.37q-5.92,7.08-13.53,7.08A17.11,17.11,0,0,1,156.14,47a18,18,0,0,1-5.24-12.93,18.4,18.4,0,0,1,5.33-12.94,17,17,0,0,1,12.55-5.31q8.46,0,13.73,7.22V18.93a2.17,2.17,0,0,1,2.17-2.17h0A2.17,2.17,0,0,1,186.86,18.93Zm-4.1,15.25a13.76,13.76,0,0,0-4-10,13.07,13.07,0,0,0-9.72-4.06,12.83,12.83,0,0,0-9.72,4.19,14.29,14.29,0,0,0,.06,19.83,12.93,12.93,0,0,0,9.66,4.2,13.18,13.18,0,0,0,9.65-4A13.75,13.75,0,0,0,182.76,34.18Z" transform="translate(-4.46 -3.42)"/><path class="cls-1" d="M204.33,45.82c0,1.17.16,1.87.46,2.08a4.92,4.92,0,0,0,2.34.33h.78a1.89,1.89,0,0,1,1.89,1.88v.27a1.88,1.88,0,0,1-1.63,1.86,21.26,21.26,0,0,1-2.66.21,5.68,5.68,0,0,1-4.3-1.43,6.29,6.29,0,0,1-1.36-4.48v-26h-4.23a1.89,1.89,0,0,1-1.88-1.89h0a1.88,1.88,0,0,1,1.88-1.88h4.23V5.31a1.89,1.89,0,0,1,1.88-1.89h.72a1.89,1.89,0,0,1,1.88,1.89V16.76h5.14a1.89,1.89,0,0,1,1.89,1.88h0a1.89,1.89,0,0,1-1.89,1.89h-5.14Z" transform="translate(-4.46 -3.42)"/><path class="cls-1" d="M248.83,41h0a2.11,2.11,0,0,1,.82,3,17.36,17.36,0,0,1-15.34,8.41,16.93,16.93,0,0,1-12.87-5.36,18.1,18.1,0,0,1-5.08-12.91,18.19,18.19,0,0,1,5.11-12.94,16.66,16.66,0,0,1,12.61-5.4,17.31,17.31,0,0,1,12.62,5,18,18,0,0,1,5.15,11.36,2.11,2.11,0,0,1-2.11,2.3H220.92q.22,7.52,5.6,11.49A12.54,12.54,0,0,0,234,48.36a13.72,13.72,0,0,0,12-6.59A2.11,2.11,0,0,1,248.83,41Zm-1.77-10.35a12.17,12.17,0,0,0-4.56-7.74,13.38,13.38,0,0,0-8.38-2.79q-9.76,0-12.75,10.53Z" transform="translate(-4.46 -3.42)"/><path class="cls-1" d="M260.54,52.77a3.52,3.52,0,0,0,2.6-1.07,3.68,3.68,0,0,0-2.6-6.28,3.47,3.47,0,0,0-2.6,1.11,3.6,3.6,0,0,0-1.08,2.6,3.72,3.72,0,0,0,3.68,3.64Z" transform="translate(-4.46 -3.42)"/><path class="cls-1" d="M269.13,7.13a3.63,3.63,0,0,1,1.07-2.6,3.63,3.63,0,0,1,5.2,0,3.52,3.52,0,0,1,1.08,2.6,3.53,3.53,0,0,1-1.08,2.6,3.66,3.66,0,0,1-5.2,0A3.56,3.56,0,0,1,269.13,7.13Zm3.67,10h0a2.25,2.25,0,0,1,2.25,2.25V50.53a2.24,2.24,0,0,1-2.25,2.24h0a2.24,2.24,0,0,1-2.24-2.24V19.37A2.24,2.24,0,0,1,272.8,17.12Z" transform="translate(-4.46 -3.42)"/><ellipse class="cls-2" cx="295.43" cy="30.72" rx="15.93" ry="16.26"/></svg>