<?xml version="1.0" encoding="utf-8"?>
<!-- Generator: Adobe Illustrator 23.0.1, SVG Export Plug-In . SVG Version: 6.00 Build 0)  -->
<svg version="1.1" id="intimate" xmlns="http://www.w3.org/2000/svg" xmlns:xlink="http://www.w3.org/1999/xlink" x="0px" y="0px"
	 viewBox="0 0 321 56.3" style="enable-background:new 0 0 321 56.3;" xml:space="preserve">
<style type="text/css">
	.st0{display:none;}
	.st1{display:inline;fill:#4EA9DF;}
	.st2{fill:#58ACE0;}
	.st3{fill:none;stroke:#58ACE0;stroke-width:4;stroke-miterlimit:10;}
</style>
<g class="st0">
	<path class="st1" d="M-0.9,48.3c18.3-11.8,42.5-13,62.6-1.3c0.7,0.4,1.4,0.8,2.1,1.3l0.8,0.5C53.3,66.4,30.2,72.1,12.1,61.5
		C6.5,58.2,2,53.7-1.2,48.5L-0.9,48.3z"/>
	<path class="st1" d="M30.6-10.6c0.6,11.2-2,22.7-8.1,33.1c-6.1,10.4-14.9,18.3-25,23.3L-2.7,46c-6-11.5-6.1-25.7,0.9-37.7
		c7-12,19.5-18.8,32.4-19.2L30.6-10.6z"/>
	<path class="st1" d="M33.6-10.9c0,0,0,0.2,0,0.3C32.3,11.2,43,32.9,63.1,44.6c0.8,0.5,1.6,0.9,2.4,1.3l0.6,0.3
		C75.8,27.9,69.5,5,51.4-5.6C45.8-8.9,39.7-10.6,33.6-10.9L33.6-10.9z"/>
</g>
<path class="st2" d="M4.5,7.1c0-1,0.4-1.9,1.1-2.6c0.7-0.7,1.6-1.1,2.6-1.1c1,0,1.9,0.4,2.6,1.1c0.7,0.7,1.1,1.6,1.1,2.6
	c0,1-0.4,1.9-1.1,2.6c-0.7,0.7-1.6,1.1-2.6,1.1c-1,0-1.9-0.4-2.6-1.1C4.8,8.9,4.5,8.1,4.5,7.1z M8.1,16.8L8.1,16.8
	c1.2,0,2.2,1,2.2,2.2v31.2c0,1.2-1,2.2-2.2,2.2h0c-1.2,0-2.2-1-2.2-2.2V19C5.9,17.8,6.9,16.8,8.1,16.8z"/>
<path class="st2" d="M21.8,16.8L21.8,16.8c1.3,0,2.3,1,2.3,2.2v4c3.6-4.7,7.9-7.1,12.9-7.1c2.6,0,4.9,0.7,7,2.1
	c2.1,1.4,3.6,3.3,4.4,5.5c0.9,2.3,1.3,5.6,1.3,10v16.7c0,1.2-1,2.2-2.2,2.2h0c-1.2,0-2.2-1-2.2-2.2V34.8c0-4-0.2-6.8-0.6-8.2
	C44.4,25.2,43.8,24,43,23c-0.8-1-1.7-1.8-2.9-2.3c-1.2-0.5-2.6-0.8-4.3-0.8c-1.7,0-3.3,0.4-4.9,1.2c-1.6,0.8-3,2-4.1,3.4
	c-1.1,1.5-1.9,3-2.3,4.6c-0.4,1.6-0.6,4.7-0.6,9.4v11.6c0,1.2-1,2.2-2.2,2.2h-0.1c-1.2,0-2.2-1-2.2-2.2V19
	C19.5,17.7,20.5,16.8,21.8,16.8z"/>
<path class="st2" d="M64.8,45.8c0,1.2,0.2,1.9,0.5,2.1c0.3,0.2,1.1,0.3,2.3,0.3h0.8c1,0,1.9,0.8,1.9,1.9v0.3c0,0.9-0.7,1.7-1.6,1.9
	c-1.1,0.1-2,0.2-2.7,0.2c-2,0-3.4-0.5-4.3-1.4c-0.9-1-1.4-2.4-1.4-4.5v-26h-4.2c-1,0-1.9-0.8-1.9-1.9v0c0-1,0.8-1.9,1.9-1.9h4.2V5.3
	c0-1,0.8-1.9,1.9-1.9h0.7c1,0,1.9,0.8,1.9,1.9v11.4h5.1c1,0,1.9,0.8,1.9,1.9v0c0,1-0.8,1.9-1.9,1.9h-5.1V45.8z"/>
<path class="st2" d="M76.4,7.1c0-1,0.4-1.9,1.1-2.6c0.7-0.7,1.6-1.1,2.6-1.1c1,0,1.9,0.4,2.6,1.1s1.1,1.6,1.1,2.6
	c0,1-0.4,1.9-1.1,2.6s-1.6,1.1-2.6,1.1c-1,0-1.9-0.4-2.6-1.1C76.7,8.9,76.4,8.1,76.4,7.1z M80.1,16.8L80.1,16.8c1.2,0,2.2,1,2.2,2.2
	v31.2c0,1.2-1,2.2-2.2,2.2h0c-1.2,0-2.2-1-2.2-2.2V19C77.8,17.8,78.8,16.8,80.1,16.8z"/>
<path class="st2" d="M93.6,16.8L93.6,16.8c1.3,0,2.2,1,2.2,2.2v3.8c3.1-4.6,7-6.9,11.8-6.9c2.6,0,4.8,0.7,6.9,2.2
	c2,1.5,3.4,3.5,4.1,6.1c1.4-2.7,3.3-4.7,5.5-6.2s4.8-2.1,7.6-2.1c2.9,0,5.5,1.1,7.8,3.3c2.3,2.2,3.5,6.6,3.5,13.2v17.8
	c0,1.2-1,2.2-2.2,2.2h-0.2c-1.2,0-2.2-1-2.2-2.2V32.4c0-3.2-0.2-5.5-0.6-7s-1.2-2.8-2.5-3.8c-1.3-1-3-1.5-5.2-1.5
	c-2.1,0-4.2,0.7-6,2.1c-1.9,1.4-3.1,3.3-3.8,5.5c-0.7,2.2-1,5.5-1,10v12.5c0,1.2-1,2.2-2.2,2.2l0,0c-1.2,0-2.2-1-2.2-2.2V33.6
	c0-3.7-0.2-6.3-0.6-7.9c-0.4-1.6-1.3-2.9-2.6-4c-1.3-1.1-3-1.6-4.9-1.6c-2,0-3.8,0.6-5.5,1.7c-1.7,1.1-3.1,2.7-4,4.7
	c-1,2-1.5,5.4-1.5,10.1v13.6c0,1.2-1,2.2-2.2,2.2h-0.1c-1.2,0-2.2-1-2.2-2.2V18.9C91.5,17.7,92.4,16.8,93.6,16.8z"/>
<path class="st2" d="M186.9,18.9v30.2c0,1.2-1,2.2-2.2,2.2l0,0c-1.2,0-2.2-1-2.2-2.2v-3.7c-3.9,4.7-8.5,7.1-13.5,7.1
	s-9.4-1.8-12.8-5.4c-3.5-3.6-5.2-7.9-5.2-12.9c0-4.8,1.9-9.5,5.3-12.9c3.5-3.5,7.7-5.3,12.6-5.3c5.6,0,10.2,2.4,13.7,7.2v-4.1
	c0-1.2,1-2.2,2.2-2.2l0,0C185.9,16.8,186.9,17.7,186.9,18.9z M182.8,34.2c0-3.9-1.3-7.3-4-10c-2.6-2.7-5.9-4.1-9.7-4.1
	c-3.8,0-7.1,1.4-9.7,4.2c-2.6,2.8-4,6.1-4,9.9c0,3.8,1.3,7.1,4,9.9c2.7,2.8,5.9,4.2,9.7,4.2c3.7,0,7-1.3,9.7-4
	C181.4,41.6,182.8,38.3,182.8,34.2z"/>
<path class="st2" d="M204.3,45.8c0,1.2,0.2,1.9,0.5,2.1c0.3,0.2,1.1,0.3,2.3,0.3h0.8c1,0,1.9,0.8,1.9,1.9v0.3c0,0.9-0.7,1.7-1.6,1.9
	c-1.1,0.1-2,0.2-2.7,0.2c-2,0-3.4-0.5-4.3-1.4c-0.9-1-1.4-2.4-1.4-4.5v-26h-4.2c-1,0-1.9-0.8-1.9-1.9v0c0-1,0.8-1.9,1.9-1.9h4.2V5.3
	c0-1,0.8-1.9,1.9-1.9h0.7c1,0,1.9,0.8,1.9,1.9v11.4h5.1c1,0,1.9,0.8,1.9,1.9v0c0,1-0.8,1.9-1.9,1.9h-5.1V45.8z"/>
<path class="st2" d="M248.8,41L248.8,41c1.1,0.6,1.5,2,0.8,3c-3.7,5.6-8.8,8.4-15.3,8.4c-5.2,0-9.5-1.8-12.9-5.4
	c-3.4-3.6-5.1-7.9-5.1-12.9c0-5,1.7-9.3,5.1-12.9c3.4-3.6,7.6-5.4,12.6-5.4c5,0,9.2,1.7,12.6,5c2.9,2.9,4.7,6.7,5.2,11.4
	c0.1,1.2-0.9,2.3-2.1,2.3h-28.8c0.2,5,2,8.8,5.6,11.5c2.2,1.6,4.8,2.4,7.5,2.4c5.2,0,9.2-2.2,12-6.6C246.7,40.9,247.9,40.5,248.8,41
	z M247.1,30.7c-0.6-3.3-2.1-5.9-4.6-7.7c-2.4-1.9-5.2-2.8-8.4-2.8c-6.5,0-10.8,3.5-12.7,10.5H247.1z"/>
<path class="st2" d="M260.5,52.8c1,0,1.9-0.4,2.6-1.1c0.7-0.7,1.1-1.6,1.1-2.6c0-1-0.4-1.9-1.1-2.6c-0.7-0.7-1.6-1.1-2.6-1.1
	c-1,0-1.9,0.4-2.6,1.1c-0.7,0.7-1.1,1.6-1.1,2.6c0,1,0.4,1.8,1.1,2.5C258.7,52.4,259.5,52.8,260.5,52.8z"/>
<path class="st2" d="M269.1,7.1c0-1,0.4-1.9,1.1-2.6c0.7-0.7,1.6-1.1,2.6-1.1c1,0,1.9,0.4,2.6,1.1s1.1,1.6,1.1,2.6
	c0,1-0.4,1.9-1.1,2.6s-1.6,1.1-2.6,1.1c-1,0-1.9-0.4-2.6-1.1C269.5,8.9,269.1,8.1,269.1,7.1z M272.8,17.1L272.8,17.1
	c1.2,0,2.2,1,2.2,2.2v31.2c0,1.2-1,2.2-2.2,2.2l0,0c-1.2,0-2.2-1-2.2-2.2V19.4C270.6,18.1,271.6,17.1,272.8,17.1z"/>
<ellipse class="st3" cx="299.9" cy="34.1" rx="15.9" ry="16.3"/>
</svg>
