<svg id="Layer_1" data-name="Layer 1" xmlns="http://www.w3.org/2000/svg" viewBox="0 0 324.07 148.23"><defs><style>.cls-1{fill:#000;}</style></defs><title>logo</title><path class="cls-1" d="M27.51,139.13l0.38-1.54h1.54l-0.61,9.32H0v-1.54c5.16,0,6.08-1.31,6.08-9V124c0-7.69-.92-8.93-6.08-8.93v-1.54H27l0.62,9.25H26l-0.38-1.54c-0.85-3.55-1.85-4.93-8.86-4.93H11.56v11.47H12c7.7,0,8.31-.92,8.31-6.08h1.55v15H20.34c0-5.07-.61-6.08-8.31-6.08H11.56v4.47c0,7.71.93,8.94,6.09,8.94h0.92C25.58,144.07,26.58,142.75,27.51,139.13Z"/><path class="cls-1" d="M50.62,139.45c-3.47,4.47-2.48,5.85,2,5.85v1.61H38.13V145.3c3.62,0,5.7-1.77,9.63-6.7l6.32-8-6.17-8.72c-3.62-5.23-5.23-6.77-9.25-6.77v-1.54H55.92v1.54c-4.93,0-5,1.54-2,5.85l3.62,5.32L61.78,121c3.62-4.7,2.7-5.85-2-5.85v-1.54H74.26v1.54c-3.93,0-5.85,1.93-9.62,6.77l-5.39,6.71,7,10c3.62,5.16,5.62,6.7,9.32,6.7v1.61H58.31V145.3c4.86,0,5.09-1.31,1.93-5.85L55.78,133Z"/><path class="cls-1" d="M110.46,139.13l0.39-1.54h1.54l-0.62,9.32H83v-1.54c5.16,0,6.09-1.31,6.09-9V124c0-7.69-.92-8.93-6.09-8.93v-1.54h27l0.62,9.25h-1.62l-0.39-1.54c-0.83-3.55-1.84-4.93-8.86-4.93H94.52v11.47H95c7.71,0,8.33-.92,8.33-6.08h1.54v15H103.3c0-5.07-.62-6.08-8.33-6.08H94.52v4.47c0,7.71.93,8.94,6.09,8.94h0.92C108.54,144.07,109.54,142.75,110.46,139.13Z"/><path class="cls-1" d="M129.26,136.37c0,7.7.93,9,6.09,9v1.54h-15v-1.54c5.16,0,6.08-1.31,6.08-9V124c0-7.69-.92-8.93-6.08-8.93v-1.54h11.56l11.48,25.73,11.4-25.73h10.79v1.54c-5.16,0-6.17,1.24-6.17,8.93v12.34c0,7.7,1,9,6.17,9v1.54H147.9v-1.54c5.16,0,6.08-1.31,6.08-9V122l-11.63,26.27h-1.08l-12-27.28v15.42Z"/><path class="cls-1" d="M190.81,145.37v1.54H173.16v-1.54c5.16,0,6.08-1.31,6.08-9V124c0-7.69-.92-8.93-6.08-8.93v-1.54h15.95c7.94,0,12.33,4.08,12.33,9.55s-4.39,9.48-12.33,9.48h-4.39v3.78C184.73,144.07,185.65,145.37,190.81,145.37Zm-1.7-29h-4.39v13.4h4.39c4.31,0,6.32-3,6.32-6.63S193.42,116.34,189.11,116.34Z"/><path class="cls-1" d="M208.45,115.1v-1.54h17.63v1.54c-5.15,0-6.08,1.24-6.08,8.93v11.1c0,7.71.93,8.94,6.08,8.94h2.7c7.09,0,8-1.31,8.94-4.93l0.39-1.54h1.62l-0.55,9.32H208.45v-1.54c5.16,0,6.08-1.31,6.08-9V124C214.53,116.34,213.61,115.1,208.45,115.1Z"/><path class="cls-1" d="M255.21,139.45c-1.93,4.54-1.93,5.85,4.16,5.85v1.61H244.79V145.3c4.7,0,5.39-.92,7.94-6.7l11.33-26.35h1.08l11.32,26.35c2.55,5.78,3.46,6.7,7.55,6.7v1.61H266.76V145.3c5.55,0,6.08-1.31,4.15-5.85l-1.54-3.55H256.75Zm7.85-18.19L258,133h10.18Z"/><path class="cls-1" d="M313.75,138.21c3.08,3.62,6.63,6.63,10.33,7.16v1.54h-9.87l-10.48-14.32h-2.15v3.78c0,7.7.92,9,6.08,9v1.54H290v-1.54c5.16,0,6.08-1.31,6.08-9V124c0-7.69-.92-8.93-6.08-8.93v-1.54H306c7.94,0,12.32,4.08,12.32,9.55,0,4.7-3.53,8.56-9.31,9.32ZM306,116.34h-4.39v13.4H306c4.31,0,6.31-3,6.31-6.63S310.28,116.34,306,116.34Z"/><path class="cls-1" d="M158.63,14.78L162,12.86l3.4,1.93L198.13,1.57A8.85,8.85,0,0,0,194.55,0L166.9,9.65,162,5.26l-4.87,4.39L129.52,0a8.85,8.85,0,0,0-3.58,1.57Z"/><path class="cls-1" d="M249.08,10.27l-0.44-.47a8,8,0,0,0-3.88-2.23l-0.14,0L202.23,23.25c-7.33,2.76-14.67,5.46-22,8.25a106.19,106.19,0,0,0-10.48-4.79L169,26.43c11.58-4.53,54.57-21.52,54.57-21.52l0.59-.24-0.43-.46A8,8,0,0,0,219.89,2l-0.14,0-34.34,13c-7.78,2.94-15.6,5.8-23.37,8.79-7.78-3-15.6-5.85-23.38-8.79l-34.34-13-0.14,0a8,8,0,0,0-3.88,2.23l-0.43.46,0.59,0.23s43,17,54.57,21.52l-0.71.28a107,107,0,0,0-10.48,4.79c-7.32-2.8-14.67-5.49-22-8.25L79.44,7.54l-0.12,0a8,8,0,0,0-3.89,2.23L75,10.27l0.6,0.23,62.64,24.3a74.61,74.61,0,0,0-10.9,8.64,51.35,51.35,0,0,0-7.3,8.4c-1.92,2.85-3.16,5.62-3.17,8a5.43,5.43,0,0,0,.22,1.6c0.63,2.07,3.1,4.06,6.46,5.88,8.83,4.73,22.48,8.83,38.06,8.92H162c15.75,0,29.58-4.13,38.49-8.92,3.36-1.81,5.84-3.81,6.46-5.87a5.57,5.57,0,0,0,.22-1.6c0-2.4-1.26-5.17-3.17-8a51.17,51.17,0,0,0-7.31-8.4,74.39,74.39,0,0,0-10.89-8.64c12.4-4.82,62.64-24.3,62.64-24.3Zm-92.16,21c1.55-.68,3.11-1.33,4.69-2h0l0.44-.18c1.71,0.7,3.42,1.4,5.11,2.14,2.07,0.91,4.09,1.88,6.09,2.92-0.71.28-1.42,0.55-2.12,0.84-3.33,1.32-6.29,2.65-9,4l-0.1.06c-2.74-1.4-5.73-2.73-9.1-4.08-0.71-.29-1.41-0.57-2.13-0.84C152.82,33.18,154.85,32.22,156.91,31.3ZM136.69,62.19a1.06,1.06,0,0,1-1.14.46l-0.07,0h-0.07a24,24,0,0,1-7.35-3.55,1.82,1.82,0,0,1-.48-1.44c0-2.19,1.81-6.35,5.95-10.74a58.25,58.25,0,0,1,11.59-9.4q2.63,1,5.23,2.17c2,0.86,3.91,1.78,5.82,2.77a75.77,75.77,0,0,0-12,9.36C140.73,55,138.37,59.33,136.69,62.19Zm40.59,3.1a2,2,0,0,1-1.34.88,65.63,65.63,0,0,1-13.46,1.2H162a66.11,66.11,0,0,1-13.92-1.2,2,2,0,0,1-1.33-.88,3.26,3.26,0,0,1-.45-1.81c0-2.23,1.42-5.51,4-8.25A58.81,58.81,0,0,1,162,45.76a58.57,58.57,0,0,1,11.7,9.47c2.58,2.74,4,6,4,8.25A3.24,3.24,0,0,1,177.27,65.29Zm13.27-18.41c4.14,4.39,6,8.55,5.95,10.74a1.81,1.81,0,0,1-.48,1.44,24,24,0,0,1-7.35,3.55H188.6a1.11,1.11,0,0,1-.33,0,1.09,1.09,0,0,1-.89-0.49c-1.68-2.87-4-7.19-7.45-10.41a75.17,75.17,0,0,0-12-9.36c1.91-1,3.85-1.91,5.82-2.77q2.59-1.13,5.23-2.17A58.17,58.17,0,0,1,190.54,46.89Z"/></svg>
