<?xml version="1.0" encoding="utf-8"?>
<!-- Generator: Adobe Illustrator 19.0.1, SVG Export Plug-In . SVG Version: 6.00 Build 0)  -->
<svg version="1.1" id="Layer_1" xmlns="http://www.w3.org/2000/svg" xmlns:xlink="http://www.w3.org/1999/xlink" x="0px" y="0px"
	 width="187.541px" height="61px" viewBox="0 0 187.541 61" style="enable-background:new 0 0 187.541 61;" xml:space="preserve">
<style type="text/css">
	.st0{fill:url(#SVGID_1_);}
	.st1{fill:url(#SVGID_2_);}
	.st2{fill:url(#SVGID_3_);}
	.st3{fill:url(#SVGID_4_);}
	.st4{fill:url(#SVGID_5_);}
	.st5{fill:url(#SVGID_6_);}
	.st6{fill:url(#SVGID_7_);}
	.st7{fill:url(#SVGID_8_);}
	.st8{fill:url(#SVGID_9_);}
	.st9{fill:#000000;stroke:#000000;stroke-width:0.75;stroke-miterlimit:10;}
	.st10{fill:#CCFF00;}
	.st11{fill:#000000;}
</style>
<linearGradient id="SVGID_1_" gradientUnits="userSpaceOnUse" x1="30.3993" y1="30.6147" x2="52.0311" y2="30.6147">
	<stop  offset="0" style="stop-color:#C7D300"/>
	<stop  offset="1" style="stop-color:#719319"/>
</linearGradient>
<path class="st0" d="M30.399,12.205c10.169,0,18.41,8.244,18.41,18.408c0,10.166-8.241,18.409-18.41,18.409v3.222
	c11.947,0,21.632-9.684,21.632-21.631c0-11.944-9.685-21.628-21.632-21.628V12.205z"/>
<linearGradient id="SVGID_2_" gradientUnits="userSpaceOnUse" x1="38.6182" y1="13.4796" x2="40.3125" y2="45.1049">
	<stop  offset="0" style="stop-color:#C7D300"/>
	<stop  offset="1" style="stop-color:#719319"/>
</linearGradient>
<path class="st1" d="M30.399,14.208c9.063,0,16.406,7.344,16.406,16.405c0,9.064-7.343,16.404-16.406,16.404v2.873
	c10.646,0,19.278-8.63,19.278-19.277c0-10.646-8.632-19.274-19.278-19.274V14.208z"/>
<linearGradient id="SVGID_3_" gradientUnits="userSpaceOnUse" x1="5.1994" y1="34.3037" x2="48.2235" y2="34.3037">
	<stop  offset="0" style="stop-color:#C7D300"/>
	<stop  offset="1" style="stop-color:#719319"/>
</linearGradient>
<path class="st2" d="M45.568,45.78c-8.375,8.378-21.958,8.378-30.334,0c-8.379-8.375-8.379-21.957,0-30.333l-2.654-2.654
	c-9.841,9.844-9.841,25.801,0,35.642c9.84,9.84,25.8,9.84,35.644,0L45.568,45.78z"/>
<linearGradient id="SVGID_4_" gradientUnits="userSpaceOnUse" x1="-9618.0039" y1="-741.4395" x2="-9587.8691" y2="-702.9297" gradientTransform="matrix(0 1 -1 0 -686.3048 9644.3164)">
	<stop  offset="0.0061" style="stop-color:#9BD7F6"/>
	<stop  offset="0.5092" style="stop-color:#007CC4"/>
	<stop  offset="1" style="stop-color:#00376F"/>
</linearGradient>
<path class="st3" d="M46.635,14.381c8.964,8.964,8.964,23.498,0,32.467c-8.967,8.964-23.503,8.964-32.464,0l-2.841,2.839
	c10.534,10.529,27.612,10.529,38.145,0c10.529-10.532,10.529-27.611,0-38.144L46.635,14.381z"/>
<linearGradient id="SVGID_5_" gradientUnits="userSpaceOnUse" x1="-1523.3638" y1="-1172.8894" x2="-1479.5765" y2="-1138.3207" gradientTransform="matrix(0.9549 0.2968 -0.2968 0.9549 1118.5277 1585.7604)">
	<stop  offset="0.0061" style="stop-color:#9BD7F6"/>
	<stop  offset="0.5092" style="stop-color:#007CC4"/>
	<stop  offset="1" style="stop-color:#00376F"/>
</linearGradient>
<path class="st4" d="M54.276,38.035C50.178,51.22,36.168,58.586,22.98,54.488C9.796,50.393,2.429,36.382,6.527,23.193l-4.179-1.298
	C-2.468,37.388,6.19,53.852,21.681,58.671c15.495,4.811,31.957-3.848,36.774-19.339L54.276,38.035z"/>
<linearGradient id="SVGID_6_" gradientUnits="userSpaceOnUse" x1="9.6161" y1="34.9479" x2="38.6619" y2="45.598">
	<stop  offset="0" style="stop-color:#FFDE00"/>
	<stop  offset="0.5" style="stop-color:#F28F00"/>
	<stop  offset="1" style="stop-color:#D4490B"/>
</linearGradient>
<path class="st5" d="M30.399,42.111c-6.348,0-11.494-5.146-11.494-11.498h-6.991c0,10.212,8.279,18.487,18.485,18.487V42.111z"/>
<linearGradient id="SVGID_7_" gradientUnits="userSpaceOnUse" x1="37.4683" y1="44.0982" x2="14.49" y2="25.9941">
	<stop  offset="0" style="stop-color:#FFDE00"/>
	<stop  offset="0.5" style="stop-color:#F28F00"/>
	<stop  offset="1" style="stop-color:#D4490B"/>
</linearGradient>
<path class="st6" d="M36.599,36.812c-3.424,3.423-8.973,3.423-12.397,0c-3.42-3.424-3.42-8.974,0-12.396l-3.767-3.767
	c-5.504,5.505-5.504,14.429,0,19.932l0,0c5.505,5.502,14.426,5.502,19.932,0L36.599,36.812z"/>
<linearGradient id="SVGID_8_" gradientUnits="userSpaceOnUse" x1="9.4622" y1="35.3677" x2="38.5079" y2="46.0179">
	<stop  offset="0" style="stop-color:#FFDE00"/>
	<stop  offset="0.5" style="stop-color:#F28F00"/>
	<stop  offset="1" style="stop-color:#D4490B"/>
</linearGradient>
<path class="st7" d="M20.435,40.581c-2.75-2.754-4.128-6.36-4.128-9.968h-4.394c0,10.212,8.279,18.487,18.485,18.487v-4.396
	C26.794,44.705,23.187,43.329,20.435,40.581z"/>
<linearGradient id="SVGID_9_" gradientUnits="userSpaceOnUse" x1="-10375.7129" y1="8930.7334" x2="-10355.335" y2="8938.2051" gradientTransform="matrix(-1 0 0 -1 -10330.624 8958.0117)">
	<stop  offset="0" style="stop-color:#FFDE00"/>
	<stop  offset="0.5" style="stop-color:#F28F00"/>
	<stop  offset="1" style="stop-color:#D4490B"/>
</linearGradient>
<path class="st8" d="M37.393,23.624c1.931,1.932,2.893,4.459,2.893,6.989h3.083c0-7.162-5.806-12.969-12.97-12.969v3.082
	C32.931,20.727,35.46,21.693,37.393,23.624z"/>
<line class="st9" x1="64.767" y1="13.793" x2="64.267" y2="58.583"/>
<g>
	<path class="st10" d="M73.008,29.151h3.991l1.438,7.614l2.104-7.614h3.978l2.108,7.604l1.438-7.604h3.971l-2.998,13.601h-4.121
		l-2.386-8.563l-2.376,8.563h-4.121L73.008,29.151z"/>
	<path class="st10" d="M91.13,35.96c0-2.22,0.618-3.949,1.855-5.186c1.237-1.237,2.96-1.855,5.168-1.855
		c2.264,0,4.008,0.608,5.232,1.823c1.225,1.216,1.837,2.918,1.837,5.107c0,1.59-0.268,2.893-0.803,3.911s-1.308,1.809-2.319,2.375
		c-1.011,0.566-2.271,0.849-3.78,0.849c-1.534,0-2.804-0.244-3.809-0.733c-1.005-0.488-1.82-1.262-2.444-2.318
		C91.442,38.873,91.13,37.551,91.13,35.96z M95.333,35.979c0,1.373,0.255,2.36,0.766,2.959c0.51,0.601,1.204,0.899,2.082,0.899
		c0.903,0,1.602-0.293,2.097-0.881s0.742-1.643,0.742-3.164c0-1.28-0.258-2.216-0.774-2.807c-0.517-0.59-1.217-0.886-2.102-0.886
		c-0.848,0-1.527,0.3-2.041,0.9C95.589,33.601,95.333,34.594,95.333,35.979z"/>
	<path class="st10" d="M106.116,42.752V29.151h7.005c1.299,0,2.291,0.111,2.978,0.334s1.24,0.636,1.661,1.238
		c0.42,0.604,0.631,1.338,0.631,2.204c0,0.755-0.161,1.406-0.483,1.953c-0.321,0.548-0.764,0.992-1.327,1.332
		c-0.358,0.217-0.851,0.396-1.476,0.538c0.5,0.167,0.865,0.335,1.094,0.501c0.154,0.111,0.379,0.35,0.672,0.715
		c0.294,0.365,0.49,0.647,0.589,0.846l2.035,3.941h-4.748l-2.247-4.156c-0.284-0.539-0.538-0.888-0.761-1.049
		c-0.303-0.21-0.646-0.315-1.029-0.315h-0.371v5.521H106.116z M110.338,34.662h1.771c0.191,0,0.562-0.062,1.113-0.186
		c0.278-0.056,0.506-0.198,0.682-0.427c0.177-0.229,0.265-0.492,0.265-0.789c0-0.439-0.139-0.776-0.417-1.011
		c-0.278-0.235-0.802-0.353-1.568-0.353h-1.846V34.662z"/>
	<path class="st10" d="M119.415,29.151h4.202v10.251h6.56v3.35h-10.762V29.151z"/>
	<path class="st10" d="M130.719,29.151h6.244c1.23,0,2.225,0.167,2.982,0.501c0.757,0.334,1.384,0.813,1.879,1.438
		c0.494,0.625,0.854,1.352,1.076,2.18c0.223,0.829,0.334,1.707,0.334,2.635c0,1.454-0.166,2.581-0.497,3.382
		c-0.331,0.801-0.79,1.471-1.378,2.012c-0.587,0.542-1.218,0.902-1.893,1.082c-0.921,0.247-1.756,0.371-2.504,0.371h-6.244V29.151z
		 M134.922,32.231v7.431h1.029c0.878,0,1.503-0.098,1.874-0.293c0.371-0.193,0.662-0.534,0.872-1.02
		c0.21-0.486,0.315-1.272,0.315-2.361c0-1.441-0.235-2.427-0.705-2.959c-0.47-0.532-1.249-0.798-2.338-0.798H134.922z"/>
</g>
<g>
	<path class="st11" d="M73.427,12.149h10.391v2.922h-6.169v2.375h5.27v2.746h-5.27v5.557h-4.222V12.149z"/>
	<path class="st11" d="M84.823,12.149h4.212V25.75h-4.212V12.149z"/>
	<path class="st11" d="M90.653,12.149h3.924l5.121,7.524v-7.524h3.962V25.75h-3.962l-5.093-7.468v7.468h-3.952V12.149z"/>
	<path class="st11" d="M104.072,12.149h12.774v3.358h-4.286V25.75h-4.202V15.507h-4.286V12.149z"/>
	<path class="st11" d="M117.314,12.149h11.263v2.904h-7.051v2.162h6.54v2.774h-6.54v2.681h7.255v3.08h-11.467V12.149z"/>
	<path class="st11" d="M138.675,20.183l3.683,1.113c-0.247,1.033-0.637,1.896-1.168,2.588c-0.532,0.693-1.192,1.215-1.981,1.568
		c-0.788,0.353-1.792,0.529-3.011,0.529c-1.478,0-2.686-0.215-3.622-0.645c-0.938-0.429-1.746-1.185-2.427-2.267
		s-1.021-2.466-1.021-4.154c0-2.25,0.599-3.979,1.796-5.187c1.196-1.208,2.89-1.812,5.079-1.812c1.713,0,3.06,0.347,4.04,1.039
		c0.98,0.693,1.709,1.757,2.186,3.191l-3.711,0.826c-0.131-0.414-0.267-0.717-0.408-0.909c-0.235-0.321-0.523-0.569-0.863-0.742
		c-0.34-0.173-0.721-0.26-1.141-0.26c-0.953,0-1.683,0.383-2.189,1.149c-0.384,0.568-0.576,1.461-0.576,2.678
		c0,1.507,0.229,2.541,0.688,3.1c0.457,0.559,1.101,0.838,1.93,0.838c0.804,0,1.411-0.226,1.822-0.677
		C138.19,21.699,138.489,21.043,138.675,20.183z"/>
	<path class="st11" d="M142.992,12.149h4.203v4.759h4.592v-4.759h4.221V25.75h-4.221v-5.501h-4.592v5.501h-4.203V12.149z"/>
</g>
<g>
	<path class="st11" d="M73.427,46.15h10.391v2.923h-6.169v2.375h5.27v2.746h-5.27v5.558h-4.222V46.15z"/>
	<path class="st11" d="M84.128,52.961c0-2.221,0.618-3.949,1.855-5.187c1.236-1.237,2.959-1.855,5.167-1.855
		c2.264,0,4.008,0.608,5.232,1.823s1.837,2.918,1.837,5.107c0,1.59-0.268,2.893-0.803,3.91c-0.534,1.018-1.308,1.809-2.319,2.375
		c-1.011,0.566-2.271,0.849-3.78,0.849c-1.534,0-2.803-0.244-3.809-0.733c-1.005-0.488-1.819-1.262-2.444-2.318
		C84.439,55.873,84.128,54.551,84.128,52.961z M88.33,52.979c0,1.373,0.255,2.36,0.766,2.96c0.51,0.601,1.204,0.899,2.083,0.899
		c0.902,0,1.602-0.293,2.097-0.881c0.494-0.588,0.742-1.643,0.742-3.164c0-1.279-0.259-2.215-0.775-2.807
		c-0.516-0.59-1.217-0.885-2.101-0.885c-0.848,0-1.528,0.3-2.041,0.899C88.587,50.602,88.33,51.594,88.33,52.979z"/>
	<path class="st11" d="M99.114,59.752V46.15h7.004c1.299,0,2.292,0.111,2.979,0.334s1.239,0.637,1.66,1.238
		c0.421,0.604,0.631,1.338,0.631,2.204c0,0.755-0.161,1.405-0.482,1.952c-0.322,0.549-0.765,0.992-1.327,1.332
		c-0.359,0.217-0.852,0.396-1.477,0.538c0.501,0.167,0.865,0.335,1.095,0.501c0.154,0.111,0.378,0.35,0.672,0.715
		c0.293,0.365,0.489,0.647,0.589,0.846l2.035,3.941h-4.749l-2.246-4.156c-0.285-0.539-0.538-0.888-0.761-1.049
		c-0.304-0.21-0.646-0.315-1.03-0.315h-0.371v5.521H99.114z M103.335,51.662h1.772c0.191,0,0.562-0.062,1.113-0.186
		c0.278-0.057,0.506-0.198,0.682-0.428c0.177-0.229,0.265-0.491,0.265-0.788c0-0.438-0.14-0.776-0.418-1.011
		c-0.278-0.235-0.801-0.354-1.567-0.354h-1.847V51.662z"/>
	<path class="st11" d="M120.938,46.15h4.193v8.104c0,0.804-0.125,1.562-0.376,2.275c-0.25,0.715-0.644,1.339-1.178,1.873
		c-0.535,0.535-1.097,0.91-1.685,1.127c-0.816,0.303-1.797,0.454-2.94,0.454c-0.662,0-1.384-0.046-2.166-0.14
		c-0.783-0.092-1.438-0.275-1.963-0.551s-1.006-0.666-1.442-1.173c-0.436-0.507-0.734-1.029-0.896-1.567
		c-0.26-0.865-0.39-1.631-0.39-2.299V46.15h4.193v8.297c0,0.741,0.206,1.32,0.617,1.738c0.411,0.416,0.981,0.625,1.712,0.625
		c0.724,0,1.291-0.205,1.702-0.616s0.617-0.993,0.617-1.747V46.15z"/>
	<path class="st11" d="M126.443,46.15h5.526l2.133,8.275l2.115-8.275h5.523v13.602H138.3V49.379l-2.652,10.373h-3.115l-2.647-10.373
		v10.373h-3.441V46.15z"/>
	<path class="st11" d="M151.171,58.146v1.605h-8.989c-0.013-0.402,0.053-0.789,0.194-1.16c0.229-0.612,0.596-1.215,1.1-1.809
		s1.232-1.281,2.186-2.061c1.478-1.211,2.477-2.172,2.996-2.881c0.52-0.707,0.779-1.377,0.779-2.008c0-0.662-0.236-1.221-0.71-1.674
		c-0.473-0.455-1.09-0.683-1.851-0.683c-0.804,0-1.447,0.241-1.93,0.724s-0.727,1.15-0.732,2.004l-1.717-0.176
		c0.117-1.281,0.56-2.256,1.326-2.928c0.768-0.671,1.797-1.006,3.09-1.006c1.305,0,2.338,0.361,3.099,1.085s1.142,1.62,1.142,2.69
		c0,0.545-0.111,1.08-0.334,1.605s-0.593,1.079-1.109,1.66c-0.517,0.582-1.374,1.379-2.574,2.394
		c-1.002,0.841-1.646,1.411-1.93,1.712c-0.284,0.3-0.52,0.602-0.705,0.904H151.171z"/>
	<path class="st11" d="M151.537,53.044c0-1.608,0.165-2.902,0.496-3.882c0.33-0.98,0.822-1.736,1.475-2.27
		c0.652-0.531,1.474-0.797,2.463-0.797c0.73,0,1.37,0.146,1.921,0.439c0.551,0.295,1.005,0.719,1.364,1.271
		c0.358,0.554,0.64,1.229,0.844,2.023c0.204,0.794,0.307,1.865,0.307,3.214c0,1.596-0.164,2.884-0.492,3.864
		s-0.818,1.738-1.471,2.273c-0.652,0.534-1.477,0.802-2.473,0.802c-1.311,0-2.341-0.47-3.089-1.41
		C151.985,57.441,151.537,55.599,151.537,53.044z M153.253,53.044c0,2.233,0.261,3.719,0.784,4.458
		c0.522,0.738,1.167,1.108,1.934,1.108c0.768,0,1.412-0.371,1.935-1.113s0.784-2.227,0.784-4.453c0-2.239-0.262-3.726-0.784-4.462
		s-1.173-1.104-1.952-1.104c-0.768,0-1.38,0.325-1.838,0.974C153.541,49.281,153.253,50.812,153.253,53.044z"/>
	<path class="st11" d="M166.968,59.752h-1.67V49.11c-0.401,0.384-0.929,0.767-1.581,1.15c-0.653,0.384-1.239,0.671-1.759,0.862
		V49.51c0.935-0.439,1.751-0.971,2.449-1.596c0.699-0.625,1.194-1.23,1.484-1.818h1.076V59.752z"/>
	<path class="st11" d="M169.931,47.932v-1.604h8.804v1.299c-0.866,0.922-1.725,2.146-2.574,3.674
		c-0.851,1.528-1.508,3.099-1.972,4.713c-0.334,1.138-0.547,2.384-0.641,3.739h-1.716c0.019-1.07,0.229-2.363,0.631-3.879
		c0.402-1.515,0.979-2.977,1.73-4.383c0.751-1.407,1.551-2.594,2.397-3.559H169.931z"/>
</g>
<g>
	<path class="st11" d="M73.676,8V1.558h0.853V7.24h3.173V8H73.676z"/>
	<path class="st11" d="M78.232,4.862c0-1.069,0.287-1.906,0.861-2.512c0.574-0.604,1.315-0.907,2.224-0.907
		c0.595,0,1.131,0.142,1.608,0.426s0.841,0.681,1.092,1.189c0.25,0.508,0.376,1.084,0.376,1.729c0,0.653-0.132,1.238-0.396,1.753
		s-0.638,0.906-1.121,1.171c-0.483,0.266-1.005,0.398-1.564,0.398c-0.606,0-1.148-0.146-1.626-0.439s-0.839-0.693-1.085-1.2
		S78.232,5.428,78.232,4.862z M79.111,4.875c0,0.776,0.208,1.388,0.626,1.834c0.417,0.447,0.941,0.67,1.571,0.67
		c0.642,0,1.169-0.226,1.584-0.677c0.414-0.451,0.622-1.091,0.622-1.92c0-0.524-0.089-0.982-0.267-1.373
		c-0.177-0.392-0.437-0.694-0.777-0.91c-0.342-0.215-0.725-0.323-1.149-0.323c-0.604,0-1.123,0.208-1.558,0.622
		C79.328,3.214,79.111,3.906,79.111,4.875z"/>
	<path class="st11" d="M85.258,8V1.558h0.875l3.384,5.058V1.558h0.817V8h-0.875l-3.384-5.062V8H85.258z"/>
	<path class="st11" d="M91.542,8V1.558h2.219c0.501,0,0.884,0.031,1.147,0.092c0.369,0.085,0.684,0.239,0.944,0.461
		c0.34,0.287,0.594,0.654,0.763,1.101c0.168,0.447,0.253,0.958,0.253,1.532c0,0.489-0.058,0.923-0.172,1.301
		s-0.261,0.691-0.439,0.938c-0.179,0.248-0.374,0.443-0.586,0.585c-0.213,0.142-0.47,0.25-0.77,0.323C94.6,7.963,94.256,8,93.866,8
		H91.542z M92.394,7.24h1.375c0.425,0,0.759-0.04,1-0.119c0.242-0.079,0.435-0.19,0.578-0.334c0.202-0.202,0.359-0.474,0.473-0.815
		c0.112-0.341,0.169-0.755,0.169-1.241c0-0.674-0.111-1.191-0.332-1.554c-0.222-0.361-0.49-0.604-0.807-0.727
		c-0.229-0.088-0.596-0.132-1.103-0.132h-1.354V7.24z"/>
	<path class="st11" d="M97.557,4.862c0-1.069,0.287-1.906,0.861-2.512c0.574-0.604,1.315-0.907,2.224-0.907
		c0.595,0,1.131,0.142,1.608,0.426s0.842,0.681,1.093,1.189c0.25,0.508,0.375,1.084,0.375,1.729c0,0.653-0.132,1.238-0.396,1.753
		s-0.637,0.906-1.12,1.171c-0.483,0.266-1.005,0.398-1.564,0.398c-0.606,0-1.148-0.146-1.626-0.439s-0.84-0.693-1.086-1.2
		S97.557,5.428,97.557,4.862z M98.435,4.875c0,0.776,0.209,1.388,0.627,1.834c0.417,0.447,0.94,0.67,1.57,0.67
		c0.642,0,1.17-0.226,1.585-0.677c0.414-0.451,0.621-1.091,0.621-1.92c0-0.524-0.089-0.982-0.266-1.373
		c-0.178-0.392-0.437-0.694-0.777-0.91c-0.342-0.215-0.725-0.323-1.149-0.323c-0.604,0-1.123,0.208-1.558,0.622
		C98.653,3.214,98.435,3.906,98.435,4.875z"/>
	<path class="st11" d="M104.583,8V1.558h0.874l3.384,5.058V1.558h0.817V8h-0.874L105.4,2.938V8H104.583z"/>
	<path class="st11" d="M110.989,8V7.099h0.9V8H110.989z"/>
	<path class="st11" d="M115.408,8V1.558h0.875l3.384,5.058V1.558h0.817V8h-0.875l-3.384-5.062V8H115.408z"/>
	<path class="st11" d="M121.433,4.862c0-1.069,0.287-1.906,0.861-2.512c0.574-0.604,1.315-0.907,2.224-0.907
		c0.595,0,1.131,0.142,1.608,0.426s0.841,0.681,1.092,1.189c0.25,0.508,0.376,1.084,0.376,1.729c0,0.653-0.132,1.238-0.396,1.753
		s-0.638,0.906-1.121,1.171c-0.483,0.266-1.005,0.398-1.564,0.398c-0.606,0-1.148-0.146-1.626-0.439s-0.839-0.693-1.085-1.2
		S121.433,5.428,121.433,4.862z M122.311,4.875c0,0.776,0.208,1.388,0.626,1.834c0.417,0.447,0.941,0.67,1.571,0.67
		c0.642,0,1.169-0.226,1.584-0.677c0.414-0.451,0.622-1.091,0.622-1.92c0-0.524-0.089-0.982-0.267-1.373
		c-0.177-0.392-0.437-0.694-0.777-0.91c-0.342-0.215-0.725-0.323-1.149-0.323c-0.604,0-1.123,0.208-1.558,0.622
		C122.528,3.214,122.311,3.906,122.311,4.875z"/>
	<path class="st11" d="M130.308,8l-2.496-6.442h0.923l1.674,4.68c0.135,0.375,0.248,0.727,0.339,1.055
		c0.1-0.352,0.215-0.703,0.347-1.055l1.74-4.68h0.871L131.183,8H130.308z"/>
	<path class="st11" d="M140.357,7.24V8h-4.259c-0.006-0.19,0.024-0.374,0.093-0.549c0.107-0.29,0.281-0.576,0.521-0.857
		c0.238-0.281,0.583-0.606,1.034-0.976c0.7-0.574,1.174-1.029,1.42-1.364s0.369-0.653,0.369-0.952c0-0.313-0.112-0.578-0.336-0.793
		c-0.225-0.215-0.517-0.323-0.877-0.323c-0.381,0-0.686,0.114-0.914,0.343s-0.345,0.545-0.348,0.949l-0.812-0.083
		c0.056-0.606,0.265-1.068,0.629-1.387c0.362-0.317,0.851-0.477,1.463-0.477c0.618,0,1.107,0.171,1.468,0.514s0.54,0.768,0.54,1.274
		c0,0.258-0.053,0.511-0.158,0.76s-0.28,0.511-0.524,0.787c-0.245,0.275-0.651,0.653-1.22,1.134
		c-0.475,0.398-0.779,0.669-0.914,0.811s-0.246,0.285-0.334,0.428H140.357z"/>
	<path class="st11" d="M143.96,8h-0.791V2.959c-0.191,0.182-0.44,0.363-0.75,0.545c-0.309,0.182-0.586,0.318-0.832,0.409V3.148
		c0.441-0.208,0.828-0.46,1.16-0.756c0.33-0.296,0.564-0.583,0.703-0.861h0.51V8z"/>
	<path class="st11" d="M145.672,6.066V5.271h2.431v0.795H145.672z"/>
	<path class="st11" d="M152.69,7.24V8h-4.259c-0.006-0.19,0.024-0.374,0.093-0.549c0.107-0.29,0.281-0.576,0.521-0.857
		c0.238-0.281,0.583-0.606,1.034-0.976c0.7-0.574,1.174-1.029,1.42-1.364s0.369-0.653,0.369-0.952c0-0.313-0.112-0.578-0.336-0.793
		c-0.225-0.215-0.517-0.323-0.877-0.323c-0.381,0-0.686,0.114-0.914,0.343s-0.345,0.545-0.348,0.949l-0.812-0.083
		c0.056-0.606,0.265-1.068,0.629-1.387c0.362-0.317,0.851-0.477,1.463-0.477c0.618,0,1.107,0.171,1.468,0.514s0.54,0.768,0.54,1.274
		c0,0.258-0.053,0.511-0.158,0.76s-0.28,0.511-0.524,0.787c-0.245,0.275-0.651,0.653-1.22,1.134
		c-0.475,0.398-0.779,0.669-0.914,0.811s-0.246,0.285-0.334,0.428H152.69z"/>
	<path class="st11" d="M157.471,7.24V8h-4.259c-0.006-0.19,0.024-0.374,0.093-0.549c0.107-0.29,0.281-0.576,0.521-0.857
		c0.238-0.281,0.583-0.606,1.034-0.976c0.7-0.574,1.174-1.029,1.42-1.364s0.369-0.653,0.369-0.952c0-0.313-0.112-0.578-0.336-0.793
		c-0.225-0.215-0.517-0.323-0.877-0.323c-0.381,0-0.686,0.114-0.914,0.343s-0.345,0.545-0.348,0.949l-0.812-0.083
		c0.056-0.606,0.265-1.068,0.629-1.387c0.362-0.317,0.851-0.477,1.463-0.477c0.618,0,1.107,0.171,1.468,0.514s0.54,0.768,0.54,1.274
		c0,0.258-0.053,0.511-0.158,0.76s-0.28,0.511-0.524,0.787c-0.245,0.275-0.651,0.653-1.22,1.134
		c-0.475,0.398-0.779,0.669-0.914,0.811s-0.246,0.285-0.334,0.428H157.471z"/>
</g>
<g>
</g>
<g>
</g>
<g>
</g>
<g>
</g>
<g>
</g>
<g>
</g>
<g>
</g>
<g>
</g>
<g>
</g>
<g>
</g>
<g>
</g>
<g>
</g>
</svg>
