<?xml version="1.0" encoding="UTF-8"?>
<svg width="351px" height="78px" viewBox="0 0 351 78" version="1.1" xmlns="http://www.w3.org/2000/svg" xmlns:xlink="http://www.w3.org/1999/xlink">
    <!-- Generator: Sketch 47.1 (45422) - http://www.bohemiancoding.com/sketch -->
    <title>Horizontal_Blue</title>
    <desc>Created with Sketch.</desc>
    <defs>
        <polygon id="path-1" points="35.8565 0.239 0.06 0.239 0.06 77.94 71.653 77.94 71.653 0.239"></polygon>
        <polygon id="path-3" points="59.014 0.604 59.014 49.634 0.886 49.634 0.886 0.604"></polygon>
    </defs>
    <g id="Page-1" stroke="none" stroke-width="1" fill="none" fill-rule="evenodd">
        <g id="Artboard" transform="translate(-55.000000, -231.000000)">
            <g id="Horizontal_Blue" transform="translate(55.000000, 231.000000)">
                <g id="Group-4">
                    <mask id="mask-2" fill="white">
                        <use xlink:href="#path-1"></use>
                    </mask>
                    <g id="Clip-2"></g>
                    <path d="M6.228,59.527 C24.569,47.769 48.695,46.485 68.783,58.249 C69.487,58.661 70.179,59.087 70.859,59.524 L71.653,60.042 C60.468,77.569 37.336,83.262 19.238,72.665 C13.621,69.376 9.143,64.889 5.92,59.726 L6.228,59.527" id="Fill-1" fill="#489ECB" mask="url(#mask-2)"></path>
                    <path d="M37.782,0.552 C38.341,11.773 35.753,23.278 29.651,33.696 C23.545,44.124 14.768,52.014 4.699,57.016 L4.442,57.143 C-1.553,45.666 -1.694,31.454 5.333,19.455 C12.359,7.457 24.822,0.626 37.766,0.239 L37.782,0.552" id="Fill-3" fill="#489ECB" mask="url(#mask-2)"></path>
                </g>
                <path d="M40.741,0.264 C40.74,0.288 40.726,0.503 40.721,0.586 C39.423,22.349 50.108,44.04 70.209,55.811 C70.996,56.272 71.789,56.711 72.588,57.131 L73.178,57.437 C82.992,39.107 76.639,16.147 58.542,5.549 C52.936,2.266 46.845,0.555 40.776,0.266 L40.741,0.264" id="Fill-5" fill="#489ECB"></path>
                <path d="M107.279,27.935 L107.279,27.935 C108.518,27.935 109.522,28.939 109.522,30.178 L109.522,61.342 C109.522,62.581 108.518,63.586 107.279,63.586 C106.04,63.586 105.035,62.581 105.035,61.342 L105.035,30.178 C105.035,28.939 106.04,27.935 107.279,27.935 Z M103.605,18.311 C103.605,17.315 103.962,16.448 104.678,15.71 C105.393,14.974 106.26,14.604 107.279,14.604 C108.297,14.604 109.164,14.962 109.88,15.677 C110.595,16.393 110.953,17.26 110.953,18.278 C110.953,19.298 110.595,20.164 109.88,20.88 C109.164,21.595 108.297,21.952 107.279,21.952 C106.26,21.952 105.393,21.585 104.678,20.847 C103.962,20.111 103.605,19.265 103.605,18.311 L103.605,18.311 Z" id="Fill-6" fill="#50A1CC"></path>
                <path d="M120.902,27.935 L120.967,27.935 C122.188,27.935 123.178,28.924 123.178,30.146 L123.178,34.112 C126.732,29.388 131.046,27.025 136.118,27.025 C138.719,27.025 141.06,27.73 143.141,29.138 C145.221,30.547 146.695,32.389 147.562,34.665 C148.429,36.942 148.863,40.29 148.863,44.712 L148.863,61.375 C148.863,62.595 147.873,63.586 146.652,63.586 C145.431,63.586 144.441,62.595 144.441,61.375 L144.441,46.012 C144.441,41.981 144.256,39.25 143.888,37.819 C143.52,36.388 142.956,35.175 142.198,34.177 C141.439,33.181 140.475,32.422 139.304,31.902 C138.134,31.381 136.713,31.121 135.045,31.121 C133.376,31.121 131.739,31.534 130.136,32.357 C128.532,33.181 127.165,34.33 126.039,35.803 C124.911,37.278 124.153,38.794 123.763,40.355 C123.373,41.916 123.178,45.059 123.178,49.784 L123.178,61.375 C123.178,62.595 122.188,63.586 120.967,63.586 L120.902,63.586 C119.68,63.586 118.691,62.595 118.691,61.375 L118.691,30.146 C118.691,28.924 119.68,27.935 120.902,27.935" id="Fill-7" fill="#50A1CC"></path>
                <path d="M163.958,57.002 C163.958,58.173 164.11,58.867 164.413,59.083 C164.716,59.3 165.496,59.408 166.754,59.408 L167.534,59.408 C168.576,59.408 169.42,60.252 169.42,61.294 L169.42,61.555 C169.42,62.496 168.726,63.301 167.793,63.424 C166.724,63.564 165.836,63.634 165.128,63.634 C163.178,63.634 161.747,63.158 160.837,62.204 C159.926,61.251 159.471,59.756 159.471,57.717 L159.471,31.707 L155.244,31.707 C154.203,31.707 153.359,30.862 153.359,29.82 C153.359,28.779 154.203,27.935 155.244,27.935 L159.471,27.935 L159.471,16.49 C159.471,15.449 160.315,14.604 161.357,14.604 L162.072,14.604 C163.114,14.604 163.958,15.449 163.958,16.49 L163.958,27.935 L169.095,27.935 C170.136,27.935 170.981,28.779 170.981,29.82 C170.981,30.862 170.136,31.707 169.095,31.707 L163.958,31.707 L163.958,57.002" id="Fill-8" fill="#50A1CC"></path>
                <path d="M179.206,27.935 L179.206,27.935 C180.445,27.935 181.45,28.939 181.45,30.178 L181.45,61.342 C181.45,62.581 180.445,63.586 179.206,63.586 C177.967,63.586 176.963,62.581 176.963,61.342 L176.963,30.178 C176.963,28.939 177.967,27.935 179.206,27.935 Z M175.532,18.311 C175.532,17.315 175.889,16.448 176.605,15.71 C177.32,14.974 178.187,14.604 179.206,14.604 C180.224,14.604 181.092,14.962 181.807,15.677 C182.522,16.393 182.881,17.26 182.881,18.278 C182.881,19.298 182.522,20.164 181.807,20.88 C181.092,21.595 180.224,21.952 179.206,21.952 C178.187,21.952 177.32,21.585 176.605,20.847 C175.889,20.111 175.532,19.265 175.532,18.311 L175.532,18.311 Z" id="Fill-9" fill="#50A1CC"></path>
                <path d="M192.797,27.935 L192.862,27.935 C194.065,27.935 195.04,28.91 195.04,30.113 L195.04,33.917 C198.118,29.323 202.063,27.025 206.875,27.025 C209.432,27.025 211.719,27.751 213.735,29.203 C215.751,30.656 217.105,32.704 217.8,35.348 C219.23,32.66 221.051,30.601 223.261,29.171 C225.472,27.74 228.018,27.025 230.902,27.025 C233.785,27.025 236.397,28.141 238.738,30.373 C241.079,32.607 242.249,37.018 242.249,43.606 L242.249,61.407 C242.249,62.61 241.274,63.586 240.071,63.586 L239.876,63.586 C238.673,63.586 237.697,62.61 237.697,61.407 L237.697,43.606 C237.697,40.443 237.503,38.111 237.112,36.616 C236.722,35.121 235.877,33.864 234.576,32.844 C233.276,31.826 231.553,31.317 229.407,31.317 C227.261,31.317 225.255,32.032 223.391,33.462 C221.527,34.893 220.248,36.714 219.555,38.924 C218.861,41.135 218.514,44.474 218.514,48.939 L218.514,61.407 C218.514,62.61 217.54,63.586 216.337,63.586 C215.134,63.586 214.158,62.61 214.158,61.407 L214.158,44.777 C214.158,41.092 213.963,38.459 213.572,36.876 C213.182,35.294 212.314,33.972 210.971,32.909 C209.628,31.847 207.98,31.317 206.03,31.317 C204.079,31.317 202.247,31.892 200.535,33.04 C198.822,34.189 197.478,35.76 196.503,37.754 C195.528,39.749 195.04,43.108 195.04,47.833 L195.04,61.407 C195.04,62.61 194.065,63.586 192.862,63.586 L192.797,63.586 C191.594,63.586 190.618,62.61 190.618,61.407 L190.618,30.113 C190.618,28.91 191.594,27.935 192.797,27.935" id="Fill-10" fill="#50A1CC"></path>
                <path d="M281.915,45.362 C281.915,41.418 280.592,38.091 277.948,35.381 C275.303,32.672 272.063,31.317 268.226,31.317 C264.39,31.317 261.149,32.715 258.506,35.511 C255.86,38.307 254.539,41.613 254.539,45.427 C254.539,49.242 255.882,52.548 258.57,55.343 C261.258,58.139 264.476,59.538 268.226,59.538 C271.975,59.538 275.194,58.195 277.883,55.507 C280.57,52.819 281.915,49.437 281.915,45.362 Z M286.012,30.113 L286.012,60.286 C286.012,61.489 285.036,62.464 283.833,62.464 C282.63,62.464 281.655,61.489 281.655,60.286 L281.655,56.547 C277.71,61.272 273.201,63.634 268.129,63.634 C263.057,63.634 258.775,61.825 255.286,58.205 C251.797,54.587 250.053,50.273 250.052,45.268 C250.051,40.43 251.974,35.769 255.377,32.33 C258.877,28.793 263.061,27.025 267.934,27.025 C273.569,27.025 278.143,29.431 281.655,34.242 L281.655,30.113 C281.655,28.91 282.63,27.935 283.833,27.935 C285.036,27.935 286.012,28.91 286.012,30.113 L286.012,30.113 Z" id="Fill-11" fill="#50A1CC"></path>
                <g id="Group-15" transform="translate(292.000000, 14.000000)">
                    <mask id="mask-4" fill="white">
                        <use xlink:href="#path-3"></use>
                    </mask>
                    <g id="Clip-13"></g>
                    <path d="M11.484,43.002 C11.484,44.173 11.637,44.867 11.939,45.083 C12.242,45.3 13.022,45.408 14.282,45.408 L15.061,45.408 C16.102,45.408 16.947,46.252 16.947,47.294 L16.947,47.555 C16.947,48.496 16.253,49.301 15.32,49.424 C14.252,49.564 13.363,49.634 12.656,49.634 C10.704,49.634 9.274,49.158 8.363,48.204 C7.453,47.251 6.997,45.756 6.997,43.717 L6.997,17.707 L2.771,17.707 C1.729,17.707 0.886,16.862 0.886,15.82 C0.886,14.779 1.729,13.935 2.771,13.935 L6.997,13.935 L6.997,2.49 C6.997,1.449 7.842,0.604 8.883,0.604 L9.598,0.604 C10.639,0.604 11.484,1.449 11.484,2.49 L11.484,13.935 L16.622,13.935 C17.663,13.935 18.508,14.779 18.508,15.82 C18.508,16.862 17.663,17.707 16.622,17.707 L11.484,17.707 L11.484,43.002" id="Fill-12" fill="#50A1CC" mask="url(#mask-4)"></path>
                    <path d="M54.207,27.851 C53.598,24.556 52.082,21.977 49.654,20.112 C47.226,18.249 44.429,17.317 41.265,17.317 C34.763,17.317 30.513,20.828 28.521,27.851 L54.207,27.851 Z M55.982,38.198 L55.982,38.198 C57.085,38.768 57.481,40.176 56.801,41.215 C53.126,46.829 48.013,49.634 41.461,49.634 C36.259,49.634 31.968,47.846 28.586,44.27 C25.204,40.693 23.514,36.391 23.514,31.362 C23.514,26.334 25.215,22.021 28.619,18.422 C32.02,14.824 36.226,13.025 41.233,13.025 C46.241,13.025 50.444,14.694 53.848,18.032 C56.785,20.913 58.503,24.697 59.003,29.385 C59.134,30.62 58.134,31.687 56.891,31.687 L28.065,31.687 C28.222,36.697 30.089,40.528 33.671,43.182 C35.828,44.781 38.502,45.554 41.187,45.538 C46.357,45.505 50.37,43.309 53.224,38.95 C53.826,38.032 55.008,37.694 55.982,38.198 L55.982,38.198 Z" id="Fill-14" fill="#50A1CC" mask="url(#mask-4)"></path>
                </g>
            </g>
        </g>
    </g>
</svg>