<svg id="Layer_1" data-name="Layer 1" xmlns="http://www.w3.org/2000/svg" viewBox="0 0 399.48 53.08"><defs><style>.cls-1{fill:#16a6e0;}.cls-2{fill:#0075be;}.cls-3{fill:#bad053;}</style></defs><title>SC_FC_Master</title><path class="cls-1" d="M13.12,7.86a21,21,0,0,1,6.36.77q2.35.77,2.35,2.51a5.44,5.44,0,0,1-1.52,3.55q-6-2.76-9.41-2.76a5.8,5.8,0,0,0-3.51.88,3,3,0,0,0-1.17,2.55,3.59,3.59,0,0,0,1.32,2.85A20.17,20.17,0,0,0,13,20.86a22.62,22.62,0,0,1,7.35,3.78A6.86,6.86,0,0,1,22.5,30a7.59,7.59,0,0,1-3.34,6.65Q15.82,39,9.66,39a29.34,29.34,0,0,1-7.18-.67Q0,37.65,0,35.53a4.85,4.85,0,0,1,1.18-3,22.93,22.93,0,0,0,9.66,2.43A7.59,7.59,0,0,0,15,34a3.24,3.24,0,0,0,1.37-2.91,3.85,3.85,0,0,0-2.08-3.42,45.24,45.24,0,0,0-6.51-3Q3.4,23,1.73,21.16A6.77,6.77,0,0,1,.06,16.46a7.31,7.31,0,0,1,3.31-6.22Q6.68,7.86,13.12,7.86Z"/><path class="cls-1" d="M53.92,18.95q0,12.72.21,16.31h3.22a3.75,3.75,0,0,1,.39,1.7,1.48,1.48,0,0,1-.33,1.12,2,2,0,0,1-1.3.3H45.39A5.21,5.21,0,0,1,45,36.56a1.35,1.35,0,0,1,.32-1,1.54,1.54,0,0,1,1.11-.32h1q.21-4.46.21-12.48,0-6.25-1.32-8.32a4.68,4.68,0,0,0-4.27-2.06,6.07,6.07,0,0,0-3.75,1.43q-1.84,1.43-1.84,5.13v6.41q0,5.37.21,9.9h2.46a4,4,0,0,1,.36,1.7,1.49,1.49,0,0,1-.33,1.12,2,2,0,0,1-1.28.3h-11a4.86,4.86,0,0,1-.39-1.82,1.31,1.31,0,0,1,.33-1A1.56,1.56,0,0,1,28,35.25h2.1q.24-4.83.24-11.84,0-9-.7-10.38a2.69,2.69,0,0,0-2.67-1.43,4.14,4.14,0,0,1-.39-1.76,1,1,0,0,1,.64-1,70.26,70.26,0,0,1,8-.47,17.29,17.29,0,0,1,0,3.58A25,25,0,0,1,41,9,16.15,16.15,0,0,1,46.15,8a8.47,8.47,0,0,1,4.61,1,5.27,5.27,0,0,1,2.19,2.66,22.8,22.8,0,0,1,5.48-2.78A15.92,15.92,0,0,1,63.48,8a8.29,8.29,0,0,1,5.78,1.87q2,1.87,2,7.12,0,16.33.47,17.31t2.17.94A4.93,4.93,0,0,1,74.29,37a1.12,1.12,0,0,1-.52,1.09,4.58,4.58,0,0,1-1.91.27q-4.22,0-5.16-.11a1.62,1.62,0,0,1-1.28-.64,3.5,3.5,0,0,1-.33-1.78V22.77q0-6.25-1.32-8.32a4.68,4.68,0,0,0-4.27-2.06,6.06,6.06,0,0,0-3.75,1.43Q53.92,15.24,53.92,18.95Z"/><path class="cls-1" d="M96.51,35.6a23,23,0,0,1-5.24,2.26,19,19,0,0,1-5.27.77q-4.1,0-6.1-1.93a7.59,7.59,0,0,1-2-5.72,8.31,8.31,0,0,1,3.31-7.1q3.31-2.46,10.23-2.46h4.46q-.18-5.34-1.53-7.44t-4.78-2.1a16.29,16.29,0,0,0-3.49.36,11.05,11.05,0,0,1-1,1.88,10.39,10.39,0,0,1-1.75.53q-1.58.41-2.2-.15a6.19,6.19,0,0,1-1.28-2,6.38,6.38,0,0,1-.65-2.4,1.07,1.07,0,0,1,.5-.94,16.55,16.55,0,0,1,4.08-.82,57,57,0,0,1,7.62-.49q5.37,0,7.94,1.85t2.57,6.8v9.35q0,6.5.56,7.92a1.54,1.54,0,0,0,1.87,1.15,2.72,2.72,0,0,1,.36,1.3q0,1-1.29,1.58a9.11,9.11,0,0,1-3.48.55,4,4,0,0,1-1.62-.26A6.86,6.86,0,0,1,96.51,35.6Zm-.61-10.26a31.44,31.44,0,0,0-5.4-.45Q87,24.88,85.66,26a4.48,4.48,0,0,0-1.38,3.64,5,5,0,0,0,1.23,3.66,5.19,5.19,0,0,0,3.81,1.23,8.9,8.9,0,0,0,3.74-.79,4.16,4.16,0,0,0,2.29-2.2,12.89,12.89,0,0,0,.56-4.45Z"/><path class="cls-1" d="M108.38,9.84a1,1,0,0,1,.64-1,70.26,70.26,0,0,1,8-.47,18.93,18.93,0,0,1,0,3.73,22.83,22.83,0,0,1,6.48-3.16A21,21,0,0,1,129.21,8a2.23,2.23,0,0,1,1.14.2q.29.2.29.86a10.57,10.57,0,0,1-.41,2.79,3.39,3.39,0,0,1-1,1.88,4.91,4.91,0,0,1-1.91.61,4,4,0,0,1-1.56.09,10.05,10.05,0,0,1-1.38-1.67A5.83,5.83,0,0,0,120,14.5q-1.67,1.72-1.67,6.91,0,9.32.24,13.85h4.28a4,4,0,0,1,.36,1.7,1.49,1.49,0,0,1-.33,1.12,2,2,0,0,1-1.28.3H108.77a4.89,4.89,0,0,1-.39-1.82,1.3,1.3,0,0,1,.33-1,1.55,1.55,0,0,1,1.09-.32h2.1q.24-4.52.24-11.84,0-9-.7-10.38a2.69,2.69,0,0,0-2.67-1.43A4.16,4.16,0,0,1,108.38,9.84Z"/><path class="cls-1" d="M134,8.62H136L138.49,0a9.66,9.66,0,0,1,2.17.94A3.69,3.69,0,0,1,142,2.23q.42.75.42,5.15V8.62h10a6.18,6.18,0,0,1,.36,2.13,1.54,1.54,0,0,1-.33,1.17,2.16,2.16,0,0,1-1.34.29h-8.68V26.57q0,5.13.94,6.76A3.27,3.27,0,0,0,146.19,35a10.06,10.06,0,0,0,4.66-1.25,3.86,3.86,0,0,1,.67,2.19,2.16,2.16,0,0,1-1.78,2.16,20.77,20.77,0,0,1-5.6.55q-4.16,0-6.06-1.7t-1.9-6.35V23.5q0-5.83-.33-11.3h-3a6.73,6.73,0,0,1-.36-2.13A1.56,1.56,0,0,1,132.85,9,1.51,1.51,0,0,1,134,8.62Z"/><path class="cls-2" d="M171,39q-7.47,0-10.63-3.14T157.2,25.11q0-8.41,4-12.83t12.12-4.42a16.23,16.23,0,0,1,5.77.74,2.48,2.48,0,0,1,1.82,2.23,5.55,5.55,0,0,1-1.27,3.46,17.59,17.59,0,0,0-7.77-2.37q-4.22,0-6,2.69T164.06,23q0,5.89,1.73,8.88t6.32,3a18.45,18.45,0,0,0,8.11-2.34,4.86,4.86,0,0,1,1,2.85q0,1.73-3.14,2.64A25.46,25.46,0,0,1,171,39Z"/><path class="cls-2" d="M248.93,18.95q0,12.72.21,16.31h3.22a3.74,3.74,0,0,1,.39,1.7,1.49,1.49,0,0,1-.33,1.12,2,2,0,0,1-1.31.3H240.4a5.17,5.17,0,0,1-.37-1.82,1.35,1.35,0,0,1,.32-1,1.55,1.55,0,0,1,1.11-.32h1q.21-4.46.21-12.48,0-6.25-1.32-8.32a4.68,4.68,0,0,0-4.26-2.06,6.06,6.06,0,0,0-3.75,1.43q-1.84,1.43-1.84,5.13v6.41q0,5.37.21,9.9h2.46a4,4,0,0,1,.37,1.7,1.49,1.49,0,0,1-.33,1.12,2,2,0,0,1-1.28.3h-11a4.88,4.88,0,0,1-.39-1.82,1.3,1.3,0,0,1,.33-1,1.55,1.55,0,0,1,1.09-.32h2.1q.24-4.83.24-11.84,0-9-.7-10.38a2.69,2.69,0,0,0-2.67-1.43,4.15,4.15,0,0,1-.39-1.76,1,1,0,0,1,.64-1,70.25,70.25,0,0,1,8-.47,17.37,17.37,0,0,1,0,3.58A25,25,0,0,1,236,9,16.14,16.14,0,0,1,241.16,8a8.46,8.46,0,0,1,4.62,1A5.27,5.27,0,0,1,248,11.72a22.78,22.78,0,0,1,5.48-2.78A15.93,15.93,0,0,1,258.5,8a8.28,8.28,0,0,1,5.79,1.87q2.05,1.87,2.05,7.12,0,16.33.47,17.31t2.17.94a4.93,4.93,0,0,1,.33,1.76,1.12,1.12,0,0,1-.51,1.09,4.6,4.6,0,0,1-1.92.27q-4.22,0-5.16-.11a1.62,1.62,0,0,1-1.28-.64,3.5,3.5,0,0,1-.34-1.78V22.77q0-6.25-1.32-8.32a4.68,4.68,0,0,0-4.27-2.06,6.06,6.06,0,0,0-3.75,1.43Q248.93,15.24,248.93,18.95Z"/><path class="cls-2" d="M281,8.32A9.79,9.79,0,0,1,281,11a23,23,0,0,1,4.83-2.26,18.14,18.14,0,0,1,5.8-.87q5.53,0,8.23,3T302.52,21q0,9.17-3.66,13.57T288,39a21.35,21.35,0,0,1-3.28-.21,16.24,16.24,0,0,1-2.22-.49q0,5.8.24,10.32h4a4,4,0,0,1,.36,1.7,1.49,1.49,0,0,1-.33,1.12,2,2,0,0,1-1.28.31H273a4.83,4.83,0,0,1-.4-1.82,1.31,1.31,0,0,1,.33-1,1.55,1.55,0,0,1,1.09-.32h2.09q.25-4.53.24-12.27V23.41q0-9-.7-10.38A2.69,2.69,0,0,0,273,11.6a4.11,4.11,0,0,1-.4-1.76,1,1,0,0,1,.64-1A65.86,65.86,0,0,1,281,8.32Zm1.58,24.87a10.29,10.29,0,0,0,2.64,1.25,11,11,0,0,0,3.37.48q4,0,5.59-2.46t1.55-8.5q0-6.59-1.62-9.31a5.64,5.64,0,0,0-5.24-2.72,7.52,7.52,0,0,0-3.26.7A4.69,4.69,0,0,0,283.31,15a11.2,11.2,0,0,0-.77,4.63Z"/><path class="cls-2" d="M324.77,36a23,23,0,0,1-5.24,2.26,19,19,0,0,1-5.27.77q-4.1,0-6.1-1.93a7.59,7.59,0,0,1-2-5.72,8.31,8.31,0,0,1,3.31-7.1q3.31-2.46,10.23-2.46h4.46q-.18-5.34-1.53-7.44t-4.78-2.1a16.28,16.28,0,0,0-3.49.36,11,11,0,0,1-1,1.88,10.3,10.3,0,0,1-1.75.53q-1.58.41-2.2-.15a6.17,6.17,0,0,1-1.28-2,6.38,6.38,0,0,1-.65-2.4,1.07,1.07,0,0,1,.5-.94A16.56,16.56,0,0,1,312,8.65a57,57,0,0,1,7.62-.49q5.37,0,7.94,1.85t2.57,6.8v9.35q0,6.5.56,7.92a1.54,1.54,0,0,0,1.87,1.15,2.72,2.72,0,0,1,.36,1.3q0,1-1.29,1.58a9.12,9.12,0,0,1-3.48.55,4,4,0,0,1-1.62-.26A6.86,6.86,0,0,1,324.77,36Zm-.61-10.26a31.4,31.4,0,0,0-5.4-.45q-3.46,0-4.84,1.15A4.48,4.48,0,0,0,312.53,30a5,5,0,0,0,1.23,3.66,5.19,5.19,0,0,0,3.81,1.23,8.91,8.91,0,0,0,3.74-.79,4.15,4.15,0,0,0,2.29-2.2,12.88,12.88,0,0,0,.56-4.45Z"/><path class="cls-2" d="M345.32,11.9A24,24,0,0,1,351.26,9,17.4,17.4,0,0,1,356.49,8q4,0,6.09,1.87t2,7.12q0,16.33.47,17.31t2.17.94a4.91,4.91,0,0,1,.33,1.76,1.12,1.12,0,0,1-.52,1.09,4.58,4.58,0,0,1-1.91.27q-4.22,0-5.16-.11a1.62,1.62,0,0,1-1.28-.64,3.51,3.51,0,0,1-.33-1.78V22.77q0-6.25-1.32-8.32a4.68,4.68,0,0,0-4.27-2.06,6.89,6.89,0,0,0-4.36,1.43q-1.84,1.43-1.84,5.13v6.41q0,5.37.21,9.9h3.37a4,4,0,0,1,.36,1.7,1.48,1.48,0,0,1-.33,1.12,2,2,0,0,1-1.27.3H337a4.89,4.89,0,0,1-.39-1.82,1.3,1.3,0,0,1,.33-1,1.55,1.55,0,0,1,1.09-.32h2.1q.24-4.83.24-11.84,0-9-.7-10.38A2.69,2.69,0,0,0,337,11.6a4.17,4.17,0,0,1-.39-1.76,1,1,0,0,1,.64-1,70.28,70.28,0,0,1,8-.47A17.5,17.5,0,0,1,345.32,11.9Z"/><path class="cls-2" d="M380.69,38.5q-.21-.15-3.19-10.23T373.78,16a26,26,0,0,0-1.18-3.1,1.91,1.91,0,0,0-1.11-1.06,6.26,6.26,0,0,0-1.73-.2,5.1,5.1,0,0,1-.39-1.85,1.14,1.14,0,0,1,1-1.23,27.76,27.76,0,0,1,4.19-.2,12.1,12.1,0,0,1,3.28.29A1.88,1.88,0,0,1,379,9.67a30.24,30.24,0,0,1,1,4.3q.68,3.52,2.88,11.74t2.48,8.21q.27,0,2.76-9.46A122.67,122.67,0,0,0,391,12.05H389.4a4.63,4.63,0,0,1-.36-1.79A1.83,1.83,0,0,1,389.39,9a1.52,1.52,0,0,1,1.14-.36h8.56a4.31,4.31,0,0,1,.39,1.82,1.63,1.63,0,0,1-.39,1.27,2.15,2.15,0,0,1-1.37.33h-.67q-1.46,4.47-5.84,18.77t-6.5,16.88A9.4,9.4,0,0,1,379.94,51a23,23,0,0,1-6.06.73,11.8,11.8,0,0,1-4.29-.49,1.81,1.81,0,0,1-1-1.79,4.58,4.58,0,0,1,1-2.91,30.9,30.9,0,0,0,8.41.87q2-.22,4-4.87Z"/><path class="cls-3" d="M210.66,37.43a8.59,8.59,0,0,0-2.21,4.28C208,43.17,205.88,43,205.88,43h-7.51s-3.27-.05-4.46.93a3.13,3.13,0,0,0-1.49,2.39c-.15.95.28,3.78.73,3.37s.49-3.56,3-3.56h13.56c1.77,0,1.59-3.11,1.59-3.11-.57-4.41,1.18-6.47,1.18-6.47C212.75,35.78,212.17,35.91,210.66,37.43Z"/><path class="cls-3" d="M193.05,49.76a.23.23,0,0,1-.18-.1,7.26,7.26,0,0,1-.53-3.39,3.19,3.19,0,0,1,1.52-2.43c1.1-.9,3.88-.94,4.43-.94h7.86c.56,0,1.9-.12,2.23-1.21l.13-.43a8,8,0,0,1,2.1-3.88c.62-.63,1.44-1.37,1.81-1.37a.2.2,0,0,1,.17.08c.06.09.06.23,0,.45v0s-1.73,2.09-1.17,6.41a4.43,4.43,0,0,1-.69,2.77,1.27,1.27,0,0,1-1,.41H196.17c-1.81,0-2.31,1.64-2.64,2.72a2.13,2.13,0,0,1-.34.82A.2.2,0,0,1,193.05,49.76ZM198.3,43c-.54,0-3.28,0-4.34.91a3,3,0,0,0-1.47,2.35,7.15,7.15,0,0,0,.5,3.28c0,.05.07.06.11,0a2.24,2.24,0,0,0,.31-.76c.32-1.05.85-2.82,2.77-2.82h13.56a1.14,1.14,0,0,0,.86-.37,4.4,4.4,0,0,0,.66-2.66c-.55-4.21,1.05-6.33,1.19-6.5s0-.3,0-.32,0,0-.05,0-.52.13-1.71,1.33a7.87,7.87,0,0,0-2.07,3.82l-.13.43c-.36,1.18-1.77,1.31-2.36,1.31H198.3Z"/><path class="cls-3" d="M206.39,48.28h-7.83s-2-.18-2.6,1c-.79,1.43-.18,2.59,1.33,3.37a2.25,2.25,0,0,0,3.06-.54c.56-.74,4.11-.34,5.28-.43s2.62-.23,2.62-1.71A1.67,1.67,0,0,0,206.39,48.28Z"/><path class="cls-3" d="M198.61,53.08a3.55,3.55,0,0,1-3-2.05,2.26,2.26,0,0,1,.27-1.79,2.74,2.74,0,0,1,2.39-1h8.19A1.71,1.71,0,0,1,208.32,50c0,1.57-1.62,1.7-2.69,1.78h-.49l-1,0-1.32,0c-.52,0-2.1,0-2.43.43A2.23,2.23,0,0,1,198.61,53.08Zm-.33-4.73c-.52,0-1.79.09-2.27,1a2.13,2.13,0,0,0-.26,1.68,2.86,2.86,0,0,0,1.57,1.6,2.82,2.82,0,0,0,1.3.35,2.09,2.09,0,0,0,1.68-.87c.25-.33,1-.48,2.54-.48l1.33,0,1,0h.48c1.08-.08,2.56-.2,2.56-1.64a1.56,1.56,0,0,0-1.71-1.62h-8.19Z"/><path class="cls-3" d="M215.34,13c-3.21-4.12-8-4.94-13.76-5.06h0c-5.81.12-9.61,1.42-13.23,5.18-5.43,5.64-3.78,11.09-3.13,12.83a15,15,0,0,0,4.88,5.79c2.53,1.92,3.31,3.38,3.73,5.5.69,3.5,1.92,3.76,1.92,3.76,2.31.57,2-2.06,1.7-3.58a11.44,11.44,0,0,0-3.52-6.29c-.92-1-2.84-1.86-3.6-3.75a12.08,12.08,0,0,0,5.81-1.93,12.27,12.27,0,0,0,4.69,1.75,6.32,6.32,0,0,0,5.81-2.46,8.79,8.79,0,0,0,1.07.55,13.08,13.08,0,0,0,5.65,1.2c-.69,2.3-1.85,3-3.91,4.55-2.34,1.79-4.2,2.82-4.2,5.09,0,2.66,1,4.57,1.4,4.43.8-.3.46-2.64,2.07-4.44S213,31.61,213,31.61c2.57-2,3.85-3.31,4.9-5.79C218.78,23.65,219.87,18.79,215.34,13ZM196.26,23.67a6.63,6.63,0,0,1-.87-1.22,2.39,2.39,0,0,1,0-2.08c.75-1.87,1.15,1.77,1.15,1.86A4.11,4.11,0,0,1,196.26,23.67Zm10.44-1.45a9.37,9.37,0,0,1-.38.94,7.26,7.26,0,0,1-1.77-1.87c-.89-1.39.88-5,2.48-2.37C207.62,19.86,207,21.28,206.71,22.22Zm2.86,2.68a18.3,18.3,0,0,1-2.28-1.11c.19-.3.39-.61.57-.94,1.73-3.09.43-7.33-3.48-5.41s-1.11,5,1.39,6.73c-1.31,2-3.35,2.71-6.07,1.77a8.43,8.43,0,0,1-2.59-1.47,5.32,5.32,0,0,0,.86-4.73c-.56-2.51-3.89.37-4.31,1.42-.58,1.44.37,2.77,1.78,3.81-1.19,1.18-3.18,1.72-5.33,1.88a13.08,13.08,0,0,1,.43-10.18s3.29-8.54,15-6.42l.52.14a10.7,10.7,0,0,1,7.49,6.92,16.45,16.45,0,0,1,0,8.32A9.34,9.34,0,0,1,209.56,24.9Z"/><path class="cls-3" d="M196.31,41.13a2.55,2.55,0,0,1-.61-.08c-.05,0-1.29-.3-2-3.81-.39-2-1.1-3.48-3.7-5.45a15,15,0,0,1-4.9-5.82c-1-2.59-1.86-7.71,3.15-12.91,3.49-3.62,7.21-5.08,13.28-5.2h0c6,.13,10.66,1,13.82,5.09,4.67,6,3.33,11,2.53,12.9-1.07,2.53-2.38,3.84-4.92,5.81,0,0-2.68,2.72-4.27,4.5a6.59,6.59,0,0,0-1.39,3c-.18.74-.31,1.27-.7,1.42h-.07c-.48,0-1.43-1.95-1.43-4.51,0-2,1.39-3,3.33-4.47l.9-.67.62-.47c1.63-1.23,2.63-2,3.24-4h-.3a13.49,13.49,0,0,1-5.28-1.21,9,9,0,0,1-1-.53,6.36,6.36,0,0,1-5.83,2.43,12.31,12.31,0,0,1-4.68-1.74,12,12,0,0,1-5.71,1.91,7.2,7.2,0,0,0,2.49,2.74,9.79,9.79,0,0,1,1.07.89,11.53,11.53,0,0,1,3.54,6.33c.2,1.08.39,2.6-.21,3.32A1.2,1.2,0,0,1,196.31,41.13ZM201.55,8c-6,.13-9.72,1.58-13.18,5.16-5,5.14-4.08,10.2-3.12,12.76a14.81,14.81,0,0,0,4.86,5.75c2.64,2,3.35,3.49,3.75,5.54.66,3.4,1.86,3.7,1.87,3.7a1.33,1.33,0,0,0,1.44-.28c.56-.68.37-2.16.18-3.21a11.37,11.37,0,0,0-3.5-6.25,9.72,9.72,0,0,0-1-.88,7.31,7.31,0,0,1-2.57-2.89.07.07,0,0,1,0-.06.07.07,0,0,1,.05,0,11.83,11.83,0,0,0,5.78-1.92.07.07,0,0,1,.08,0,12.19,12.19,0,0,0,4.66,1.74,6.24,6.24,0,0,0,5.75-2.43.07.07,0,0,1,.09,0,8.94,8.94,0,0,0,1.06.55,13,13,0,0,0,5.62,1.19h0a.07.07,0,0,1,.07.09c-.62,2.09-1.63,2.85-3.31,4.12l-.62.47-.9.67c-1.9,1.41-3.27,2.43-3.27,4.36,0,2.6,1,4.37,1.29,4.37h0c.32-.12.45-.65.62-1.32a6.8,6.8,0,0,1,1.42-3.1c1.59-1.78,4.26-4.48,4.28-4.51,2.52-2,3.82-3.26,4.88-5.76.79-1.86,2.12-6.83-2.51-12.76-3.12-4-7.74-4.91-13.71-5ZM190.1,26.93a.07.07,0,0,1-.06,0,13.24,13.24,0,0,1,.44-10.23c0-.06,2.72-6.8,11.49-6.8a20.3,20.3,0,0,1,3.58.34l.52.14a10.7,10.7,0,0,1,7.53,7,16.41,16.41,0,0,1,0,8.36.07.07,0,0,1-.07.05h-.33a9.43,9.43,0,0,1-3.68-.75,18.11,18.11,0,0,1-2.29-1.11.06.06,0,0,1,0,0,.07.07,0,0,1,0-.05c.23-.35.41-.64.57-.93a5,5,0,0,0,.28-4.69,2.11,2.11,0,0,0-1.91-1.1,4.09,4.09,0,0,0-1.77.47,2.76,2.76,0,0,0-1.83,2.13c-.15,1.93,2.44,3.92,3.24,4.48a.07.07,0,0,1,0,.1,4.53,4.53,0,0,1-3.92,2.21,6.82,6.82,0,0,1-2.23-.41,8.52,8.52,0,0,1-2.62-1.48.07.07,0,0,1,0-.1,5.28,5.28,0,0,0,.84-4.67c-.14-.63-.47-.95-1-.95-1.16,0-2.9,1.63-3.2,2.38-.62,1.55.61,2.88,1.76,3.73a.07.07,0,0,1,0,.05.07.07,0,0,1,0,.06c-1.08,1.07-2.88,1.71-5.37,1.9ZM202,10c-8.68,0-11.34,6.65-11.36,6.71a13.11,13.11,0,0,0-.45,10.08c2.38-.19,4.12-.79,5.17-1.8-1.65-1.24-2.25-2.57-1.74-3.84.32-.79,2.1-2.47,3.33-2.47.4,0,.91.18,1.11,1.05a5.44,5.44,0,0,1-.83,4.73,8.38,8.38,0,0,0,2.52,1.42,6.69,6.69,0,0,0,2.18.4,4.38,4.38,0,0,0,3.77-2.09c-.87-.62-3.39-2.6-3.24-4.56a2.89,2.89,0,0,1,1.91-2.25,4.24,4.24,0,0,1,1.83-.49,2.24,2.24,0,0,1,2,1.17,5.15,5.15,0,0,1-.28,4.83c-.16.27-.33.56-.54.88a18.21,18.21,0,0,0,2.21,1.07,9.28,9.28,0,0,0,3.62.74h.27a16.27,16.27,0,0,0,0-8.23A10.58,10.58,0,0,0,206,10.47l-.52-.14A20.12,20.12,0,0,0,202,10Zm-5.7,13.75-.05,0a6.66,6.66,0,0,1-.88-1.23,2.41,2.41,0,0,1,0-2.14c.16-.39.31-.58.48-.58.58,0,.8,2.44.8,2.46a4.16,4.16,0,0,1-.3,1.47.07.07,0,0,1-.05,0Zm-.43-3.83s-.17,0-.35.49a2.28,2.28,0,0,0,0,2,6.53,6.53,0,0,0,.78,1.12,3.94,3.94,0,0,0,.26-1.31C196.49,21.93,196.2,19.91,195.83,19.91Zm10.49,3.32h0a7.33,7.33,0,0,1-1.78-1.89,2.68,2.68,0,0,1,.14-2.5,1.48,1.48,0,0,1,1.19-.91c.45,0,.88.33,1.27,1,.54.88.09,2.15-.23,3.08l-.1.28a10.17,10.17,0,0,1-.38.94.07.07,0,0,1,0,0Zm-.5-5.17a1.35,1.35,0,0,0-1.07.83,2.58,2.58,0,0,0-.15,2.36A7.1,7.1,0,0,0,206.3,23c.13-.29.24-.57.34-.85l.1-.28c.32-.9.75-2.14.25-3C206.63,18.36,206.23,18.05,205.83,18.05Z"/></svg>