<svg id="Layer_1" data-name="Layer 1" xmlns="http://www.w3.org/2000/svg" viewBox="0 0 226 64"><defs><style>.cls-1,.cls-2{fill:none;stroke:#000;stroke-miterlimit:3.86;}.cls-1{stroke-width:0.77px;}.cls-2{stroke-width:0.61px;}.cls-3{fill:#027cc3;}.cls-4{fill:#8c8f92;}.cls-5{fill:#8a8b8d;stroke:#8a8b8d;stroke-miterlimit:10;}</style></defs><title>SMH</title><path d="M59.36,47.42l-2,1.35.7.6v7.95a1.27,1.27,0,0,1-1.4,1.2h-.35v-9.9l-1.75-1.15-2.2,1.45.1.2.5-.3a2.57,2.57,0,0,1,.8,1.45v8.2a2.48,2.48,0,0,0-1.8,2.65,2.14,2.14,0,0,0,1.85,2,10.81,10.81,0,0,0,2.55-.2,7.27,7.27,0,0,1,1.5-.1,2,2,0,0,1,1.55.55l.2.2A1.94,1.94,0,0,0,60,62.37a1.84,1.84,0,0,0-1-1.7,3.15,3.15,0,0,0-1.65-.3,2.56,2.56,0,0,0-.5,0,7.58,7.58,0,0,1-1.15.1c-.55,0-1.15.15-1.55.2a2.56,2.56,0,0,1-.5,0,1.08,1.08,0,0,1-.7-.25.6.6,0,0,1-.2-.5c0-.7,1-1,1.2-1h.3a16.17,16.17,0,0,0,3,.3A3.71,3.71,0,0,0,58.51,59a3.18,3.18,0,0,0,1.1-.7,2.76,2.76,0,0,0,.7-.85,2.19,2.19,0,0,0,.3-1.15v-8a15.2,15.2,0,0,0-1.25-.9"/><path class="cls-1" d="M60.51,48.37l.75-.45"/><path d="M78.81,57.22l-.45.3-.4-.35V48.42l-1.5-1-2.75,1.8-.1-.15a3,3,0,0,0-1.2-1.55l-2.6,1.75.1.15a2.88,2.88,0,0,1,.45-.25,3.19,3.19,0,0,1,.7,1.35v6.65l-.7.6,2,1.35,2-1.3-.7-.6V49.87l.7-.45,1,1.1v6.85a2.41,2.41,0,0,0,1.1,1.75l2.45-1.6-.1-.3"/><path class="cls-1" d="M77.81,48.52l.7-.45m-53,9.65.7-.45"/><path d="M30.76,57.32l-.75.45-1.45-1V53.47l3.55-2.4-2-3.75-4.25,2.8v7.25c.8.55,2.55,1.6,2.55,1.6l2.4-1.55Zm-2.15-8.25,1.65,2.85L28.61,53V49.07"/><path class="cls-1" d="M79.31,57.77l.7-.45"/><path d="M134.76,47.72s-1.8,1.2-2.15,1.4a4.08,4.08,0,0,0-1.3-1.75L128.81,49l.1.15s.3-.2.35-.25l.15.1c.3.3.45.5.45.65v7.05l-.75.6,2.05,1.6s2.2-1.55,2.15-1.5l-.8-.7V49.77l.45-.3,1,1.3s-.1.15-.15.25a1.69,1.69,0,0,0-.4,1c0,.15.2.6.5.6H134a1.46,1.46,0,0,0,.45-.1l.1-.05h-.1a2.44,2.44,0,0,1-.35-.15H134a.81.81,0,0,1-.25-.45,1.51,1.51,0,0,1,.45-.9,11.79,11.79,0,0,1,1.7-1.45l-1.15-1.8"/><path class="cls-1" d="M224.61,49.17l.7-.45m-7.8,9,.7-.45"/><path d="M49.86,56.72a14.36,14.36,0,0,0-4.35-2.05h0l1.6-2.4c2,.45,3.45,1.55,3.45,2.75A2.8,2.8,0,0,1,49.86,56.72Zm-3.7-7.8c-.3-.05-1.2-.2-1.4-.25-.75-.15-4.4-1.25-4.4-2.85,0-1.85,2.35-1.85,3.5-1.85a6.26,6.26,0,0,1,4.2,1.95C48,46,46.46,48.42,46.16,48.92Zm8-2.45a1.39,1.39,0,0,0,.4-.75,1.05,1.05,0,0,0-.25-.65.88.88,0,0,0-.75-.3h-.2a3.88,3.88,0,0,0-2.55,1.4,9.76,9.76,0,0,0-1.6,2.1c-.4.65-.6.95-.7,1.1a14.7,14.7,0,0,1-1.9-.35c.25-.45,1-1.8,2-3.1a22.3,22.3,0,0,1,1.85-2.25.69.69,0,0,1,.2-.15s.15,0,.15-.1-.1-.15-.1-.15a.18.18,0,0,0-.15,0,.37.37,0,0,1-.25,0c-.15,0-.3-.1-.55-.35a6.22,6.22,0,0,0-4.15-1.6c-3.8,0-6,3.2-6,5.35,0,1.35.25,2.8,1,3.4a8.09,8.09,0,0,0,3.8,1.55l.15.05-.3.35a2.64,2.64,0,0,1-1.9.9,1.64,1.64,0,0,1-1.15-.4h0a4.51,4.51,0,0,0,.35.55,1,1,0,0,0,.6.4,1.9,1.9,0,0,0,.7-.05,4,4,0,0,0,1.7-1.2l.45-.5,1.4.25c.15.05.3.05.45.1l-.6.9c-.75,1.1-1,1.45-1,1.45a5.25,5.25,0,0,1-.65-.1,9.79,9.79,0,0,0-2-.1,8.24,8.24,0,0,0-5.55,2,4.48,4.48,0,0,0-.75,1,3.6,3.6,0,0,0-.5,1.9,1.92,1.92,0,0,0,2.2,1.9c2.15,0,4-2,5-3.1l.15-.2c.3-.3.45-.55.55-.65a18.43,18.43,0,0,1,4.65,2.15,23.28,23.28,0,0,0,2.2-2.85c.5-.75,1.65-2.45,1.7-3.75s-1.15-2.8-3.35-3.25a4.92,4.92,0,0,1,.55-.85c.9-1.4,1.7-2.85,3.45-2.85a1.22,1.22,0,0,1,1.3.7h0ZM41.31,59.12a9.75,9.75,0,0,1-1.25.9,4.64,4.64,0,0,1-1.3.5,3.19,3.19,0,0,0-.35.1,2.05,2.05,0,0,1-.55,0h-.25c-.9-.1-1.4-.6-1.4-1.35,0-2,3.35-2.6,4.55-2.6H41a10.34,10.34,0,0,1,2,.25h.25a13.59,13.59,0,0,1-1.6,1.75,1.52,1.52,0,0,1-.4.4m-25.25-4.9a7.9,7.9,0,0,1-3.15,2.55v-9.9c1.75-.1,3-1.1,3-2.75a2.47,2.47,0,0,0-.15-.75,2.36,2.36,0,0,1-1.85.8,16.44,16.44,0,0,1-4.1-.8,16.65,16.65,0,0,0-4.65-.9c-2.25,0-4.85,1.1-4.85,4.05a4.9,4.9,0,0,0,2.5,3.95h0a5.43,5.43,0,0,0-.4,1.75c0,2.85,1.75,7.15,6.75,7.15a6.72,6.72,0,0,0,3.3-.8,7,7,0,0,0,2.1-1.75A8.69,8.69,0,0,0,16.06,54.22ZM7.81,56.57a.93.93,0,0,0,.2-.15c1.65-1.1,2.45-2.1,2.45-3.1v-6.7a7.82,7.82,0,0,0,2,.25V56.92A6.34,6.34,0,0,1,7.81,56.57ZM8,54.92a2.94,2.94,0,0,1-.5,1.45l-.15-.1a6.78,6.78,0,0,1-2.65-5.55,7.87,7.87,0,0,1,2-5.2,6.63,6.63,0,0,1,1.2.4v9Zm-1.6-9.5A15.27,15.27,0,0,0,3,50.22l-.1-.05a2.31,2.31,0,0,1-1.1-2.1c-.1-1.95,1.3-2.8,3.15-2.8a8.6,8.6,0,0,1,1.45.15m141.55,1.9c-.05.05-2.45,1.65-2.45,1.65l.1.2a4.61,4.61,0,0,0,.4-.25l.15.1c.3.3.4.5.4.65v7.95l1.3,1.35,2.5-1.35-.2-.25-.35.2-.6-.65v-8.5l-1.25-1.1m-1.45-2.8,1.6-1.25,1.4,1.35-1.6,1.15-1.4-1.25M93,47.37,91,48.72l.7.6v7.95a1.27,1.27,0,0,1-1.4,1.2h-.35v-9.9l-1.75-1.15-2.25,1.45.1.2.5-.3a2.57,2.57,0,0,1,.8,1.45v8.35a2.42,2.42,0,0,0-1.8,2.6,2.14,2.14,0,0,0,1.85,2,10.81,10.81,0,0,0,2.55-.2,10.51,10.51,0,0,1,1.5-.15,2,2,0,0,1,1.55.55l.2.2a1.94,1.94,0,0,0,.45-1.15,1.84,1.84,0,0,0-.95-1.7,3.15,3.15,0,0,0-1.65-.3,2.56,2.56,0,0,0-.5,0,7.58,7.58,0,0,1-1.15.1c-.6,0-1.15.15-1.55.2a2.56,2.56,0,0,1-.5,0,1.23,1.23,0,0,1-.75-.25.68.68,0,0,1-.25-.5c.05-.7.9-1,1.2-1h.4a16.17,16.17,0,0,0,2.95.3A4,4,0,0,0,92.11,59a3.18,3.18,0,0,0,1.1-.7,2.76,2.76,0,0,0,.7-.85,2.19,2.19,0,0,0,.3-1.15v-8c0-.15-1.2-.95-1.2-.95m83.9,5a1.87,1.87,0,0,1,.55.05.41.41,0,0,1,.25.25c.05.05.05,2.55.05,2.55a1.47,1.47,0,0,1-.15.85A6,6,0,0,0,180,54c.4-.75.35-2.3.3-3.9a14.91,14.91,0,0,1,.5-5.45A8.82,8.82,0,0,0,179.11,46a4.67,4.67,0,0,0-1.05,1.35,8,8,0,0,0-.3,2.6c-2.85.3-3.4,1.6-3.35,2.75,0,.05.05.25.05.4l.05.15a2.78,2.78,0,0,1,2.4-.9m-2.45-7.9c.1,0,.6.1,1.7.35.6.15,1.35.3,1.45.3h.6c.6,0,1.9-.75,3.45-2l.25-.2a3.28,3.28,0,0,1-1.25.3,8.81,8.81,0,0,1-2.25-.5,8.07,8.07,0,0,0-2.55-.55,2.61,2.61,0,0,0-2.9,2.6,1.86,1.86,0,0,0,.4,1.1,1.46,1.46,0,0,1-.1-.45c.05-.55.45-.9,1.2-.9m13.05-3.1a2.49,2.49,0,0,1,1.2,1.1c-.85.6-1.95,1.45-2.3,1.65-.65-.75-1.5-1.75-2.15-1.8a2.45,2.45,0,0,0-.55,0,.45.45,0,0,0-.2.4v5.8L186,47,187.91,49v6.5c0,1.85-1.3,3.8-3.85,5.5a8.07,8.07,0,0,0,3.9.1,3.94,3.94,0,0,1-3.2,2.1,2.2,2.2,0,0,1-.7-.15,4,4,0,0,0-2.35-.2,10.35,10.35,0,0,0,2.6-2.85,6.2,6.2,0,0,0,.9-3.2V50.42l-1.75-1.25v.7a11.34,11.34,0,0,1-.35,3.85,6.48,6.48,0,0,1-2.35,2.05,1.71,1.71,0,0,0,.15-.85V46.67c0-.15.05-.85.05-1A4.25,4.25,0,0,1,183,42.32a5.56,5.56,0,0,1,3.1-1.25,3.19,3.19,0,0,1,1.4.3M25,57.77c-.15.15-1.4,1-1.75,1.3a4.2,4.2,0,0,0-1.15,1.15,2.48,2.48,0,0,0-.4,1.3.7.7,0,0,0,.15.45,1.49,1.49,0,0,0,1,.35h.3a.74.74,0,0,0,.35,0v0a.79.79,0,0,1-.45.45,1.63,1.63,0,0,1-.65.2,1.17,1.17,0,0,1-1.15-1.25,5.39,5.39,0,0,1,1.55-2.65s-1.1-.9-1.1-1.6V50.32l-1-1.1-.7.45v7.4l.7.6-2,1.35-2-1.35.7-.6V44.92a3.93,3.93,0,0,0-.25-1.7,1.28,1.28,0,0,0-.5-.35,1,1,0,0,1,1-.8,1.87,1.87,0,0,1,.8.2,1.66,1.66,0,0,1,1.4-1.1,1.33,1.33,0,0,1,.65.25c-.6.65-.55,2.1-.55,3v4.85l2.75-1.8,1.6,1.05v8A2.4,2.4,0,0,0,25,57.77m191.85-.55.1.15-2.5,1.6-1.95-1.35.65-.6V44.62a3.93,3.93,0,0,0-.25-1.7,1.28,1.28,0,0,0-.5-.35,1,1,0,0,1,1.05-.8,1.68,1.68,0,0,1,.75.2c.35-.3.65-.85,1.5-.85a1.33,1.33,0,0,1,.65.25,2.5,2.5,0,0,0-.5,1.65c-.05,3.4,0,14.15,0,14.15l.55.5.45-.45"/><path class="cls-1" d="M24.16,48.52l.7-.45m44,1.05.7-.45m-7.8,9,.7-.45m31.7-8.85.7-.45M127.71,49l.7-.45m-7.8,9.3.7-.45m27.7-8.9.7-.45m-3.7,9.9.7-.45M167.21,49l.7-.45m42.65.1.7-.45"/><path d="M218,42.67V46c.5.5,1.7,1.6,2.25,2.1a6.28,6.28,0,0,1-2.3,1.2c-.05,0,.1.25.1.5v7.55l2.25,1.7a12,12,0,0,1,4.4-1.9v-8.1Zm2.85,6,1.35,1.3v7.5l-1.55-1.1v-7.5l.2-.2m-94.7-1.35a19.78,19.78,0,0,1-5.1,2.1c-.05,0,.1.25.1.5v7.55l2.25,1.7a12,12,0,0,1,4.4-1.9v-8.4Zm-2.25,1.6,1.4,1.5v7.05l-1.55-1.1V49l.15-.1m-61.65-6.3V46c.5.5,1.7,1.6,2.25,2.1a6.71,6.71,0,0,1-2.3,1.2s.1.25.1.5v7.55L64.56,59a12,12,0,0,1,4.4-1.9V49Zm2.8,6,1.35,1.3v7.5l-1.55-1.1v-7.5l.2-.2"/><path class="cls-2" d="M210.91,57.57l.7-.45"/><path class="cls-1" d="M133.26,57.42l.5-.35"/><path d="M210.91,57.32a1.18,1.18,0,0,1-.25-.65v-8.1c-.15-.15-1.35-1.25-1.35-1.25l-2,1.65-1.55-1.5-2,1.6,1.4,1.55a2.11,2.11,0,0,0-.1,2.35,2.88,2.88,0,0,0,.2.25l-.2.05a3.37,3.37,0,0,0-2.2,2.85,3.32,3.32,0,0,0,1.6,2.9l3.55-2.2v.25a3.94,3.94,0,0,0,1,2l2.1-1.5Zm-3-1-1.7,1a2.81,2.81,0,0,1-1.15-1.15,3.09,3.09,0,0,1-.35-1.45,1.57,1.57,0,0,1,.25-.85,1.64,1.64,0,0,1,.3-.3c.1-.05.25-.1.35,0a3.38,3.38,0,0,0,2.25.55l.05,2.15Zm-.6-6.9.55.6v3.75a2.82,2.82,0,0,1-2.05-.5c-1.45-1.35-.15-3.1,1.5-3.85m-62.2,7.85-.45.3-.4-.35V48.42l-1.5-1L140,49.27l-.1-.15a3.46,3.46,0,0,0-1.2-1.6l-2.6,1.75.1.2.45-.3a3.5,3.5,0,0,1,.7,1.35v6.65l-.7.6,2,1.35,2-1.3-.7-.6V49.87l.7-.45,1,1.1v6.85a2.61,2.61,0,0,0,1.1,1.8l2.45-1.6-.1-.35"/><path class="cls-1" d="M144.11,48.52l.75-.45"/><path d="M159.41,57.22l-.45.3-.4-.35V48.42l-1.5-1-2.75,1.85-.1-.15a3.46,3.46,0,0,0-1.2-1.6l-2.6,1.75.1.2.45-.3a3.5,3.5,0,0,1,.7,1.35v6.65l-.7.6,2,1.35,2-1.3-.7-.6V49.87l.7-.45,1,1.1v6.85a2.61,2.61,0,0,0,1.1,1.8l2.45-1.6-.1-.35"/><path class="cls-1" d="M158.46,48.52l.7-.45"/><path d="M84.71,57.32l-.75.45-1.45-1V53.47l3.55-2.4-2-3.75-4.25,2.8v7.25c.8.55,2.55,1.6,2.55,1.6l2.4-1.55-.05-.1Zm-2.15-8.25,1.65,2.85L82.56,53V49.07"/><path class="cls-1" d="M188.86,57.77l.7-.45"/><path d="M194.31,57.37l-.75.45s-1.4-1-1.45-1V53.52l3.55-2.4-2-3.75-4.25,2.8v7.25C190.21,58,192,59,192,59l2.45-1.55Zm-2.2-8.25L193.76,52l-1.65,1.1V49.12m9.7-1.4s-1.8,1.2-2.15,1.4a4.08,4.08,0,0,0-1.3-1.75L195.86,49l.1.15s.3-.2.35-.25l.15.1c.3.3.45.5.45.65v7.05l-.75.6,2.05,1.6s2.2-1.55,2.15-1.5l-.8-.7V49.77l.45-.3,1,1.3s-.1.15-.15.25a1.69,1.69,0,0,0-.4,1c0,.15.2.55.5.55H201a1.46,1.46,0,0,0,.45-.1l.1-.05h-.1a2.44,2.44,0,0,1-.35-.15h-.05a.81.81,0,0,1-.25-.45,1.51,1.51,0,0,1,.45-.9,11.79,11.79,0,0,1,1.7-1.45l-1.15-1.75"/><path class="cls-1" d="M200.26,57.42l.5-.35"/><path d="M163,49l1.8,1.65v6.05l-.55.45h-.05a2.92,2.92,0,0,1-1.45-2v-6Zm4.35,7.05V49s-1.3-1.15-1.8-1.7A28,28,0,0,1,160,49.52a3.68,3.68,0,0,1,.25.3v4.4a8.34,8.34,0,0,0,.25,2.45,3.54,3.54,0,0,0,1.6,2l.2.1-4.1,3.45a1.54,1.54,0,0,1,.05.45,1.27,1.27,0,0,0,.35-.1,3.43,3.43,0,0,1,1.6-.35,6.41,6.41,0,0,1,2.9,1.1,1.09,1.09,0,0,1,.25.15,14.62,14.62,0,0,0,2.8-2.15,16,16,0,0,0,1.6-1.65,2.55,2.55,0,0,0,.7-1.3,1.67,1.67,0,0,0-.55-1A2.2,2.2,0,0,1,167.36,56.07Zm-1.9,5.5-.35-.2a5.23,5.23,0,0,0-2.5-.9h-.25c-.3,0-.75.1-1.15.2l-.15-.3,3.5-3a6.37,6.37,0,0,1,1.2,1.4,2.31,2.31,0,0,1,.35,1.3,1.88,1.88,0,0,1-.65,1.45m-62.35-15.2a1.47,1.47,0,0,1-.5-.95,1.45,1.45,0,0,1,1.6-1.35,10.69,10.69,0,0,1,1.45.25c.3.05.65.15.7.15a5.49,5.49,0,0,0,3.05-1.8l.05,0h-.05a5,5,0,0,1-1.85-.45,4.43,4.43,0,0,0-1.9-.45c-1.65,0-3.55,1.25-3.55,3a2.3,2.3,0,0,0,1,1.7M107.06,57a4.78,4.78,0,0,1-1.5-.15,10.34,10.34,0,0,0-1.1-.2H104a2.65,2.65,0,0,0-2.6,2.8c0,1.85.85,3.85,3.25,3.85.7,0,2.25-.4,2.25-1.85,0,0-.15-.9-.55-.9H106c.05.25.25.65.25.8,0,1-1.3,1.45-1.85,1.45a2.29,2.29,0,0,1-2.5-2.35c0-.85.45-1.8,1.45-1.8s2,.55,2.85.55c2,0,2.4-1.35,2.45-4.05-.1.4-.8,1.85-1.6,1.85m13.15,0a1,1,0,0,1-.4.2.84.84,0,0,1-.25-.1,1.79,1.79,0,0,1-.75-1.45V45.22a2,2,0,0,1,.4-1.25v0a10.17,10.17,0,0,1-.9-.75c-.6-.5-1.45-1.15-1.9-1.5,0,0-2.4,2-2.55,2.1l-1.1-.9c-.45-.4-1.15-1-1.35-1.1-.35.2-5.35,4.45-5.35,4.45v3.55h-.15a3.06,3.06,0,0,0-3,3.15c0,.1.1.4.15.65v.05l.05-.05a3.27,3.27,0,0,1,.75-.9,2.35,2.35,0,0,1,1.1-.45c.9-.1.95-.05,1,0l.05.05v3.8a1,1,0,0,1-.2.75,6.32,6.32,0,0,0,2.4-2.1c.4-.8.35-.8.35-2.45V52h2.3v4.4l-.8.85,2.75,1.85,2.55-1.9L115,57a.72.72,0,0,0-.15.1.38.38,0,0,1-.25.1c-.25,0-1.05-.7-1.15-.85V52H116v4.15a3.48,3.48,0,0,0,.3,1.5,4.85,4.85,0,0,0,1.45,1.45c.25-.15,2.6-1.85,2.6-1.85l-.1-.15ZM111,49.57h-2.3v-4.8l.95-.8L111,45.12v4.45Zm5.2,0h-2.6V44.72l.9-.75,1.65,1.55.05,4.05m63.6,6.4a5.52,5.52,0,0,0-5.15,5.3c0,1,.4,2.6,1.9,2.6.65,0,1.1-.3,1.1-1.15a1.33,1.33,0,0,0-.15-.6c-.1.3-.6,1-1.1,1a1.45,1.45,0,0,1-1.4-1.65,3.32,3.32,0,0,1,3.1-3.45,4.12,4.12,0,0,1,3.15,1.65s2.25-1.65,2.25-1.7c-1.25-1.6-2.05-2-3.7-1.95"/><path class="cls-3" d="M30.53,11.31a8,8,0,0,1,6.34-2.07,8.29,8.29,0,0,1,5.92,3.1A1.58,1.58,0,0,0,43,12.2a9.18,9.18,0,0,1,4-2.44A11.42,11.42,0,0,1,51,9.23a9.29,9.29,0,0,1,3.91.9,7.09,7.09,0,0,1,3.18,3.2,13,13,0,0,1,1.19,3.89,30.46,30.46,0,0,1,.22,4.63q0,6.17,0,12.34c0,.38,0,.39-.39.38l-5.95,0c-.26,0-.27-.12-.27-.32q0-6.91,0-13.82a8.84,8.84,0,0,0-.31-2.49,3.2,3.2,0,0,0-1.41-2,4,4,0,0,0-1.77-.48,5.27,5.27,0,0,0-2.16.28,2.9,2.9,0,0,0-1.69,1.69A7.81,7.81,0,0,0,45,20.52q0,6.84,0,13.67c0,.38,0,.38-.39.38l-6,0c-.21,0-.27-.08-.27-.28,0-.78,0-1.57,0-2.35q0-5.77,0-11.55A8.67,8.67,0,0,0,38,17.71a3,3,0,0,0-2.68-2.24,5.11,5.11,0,0,0-2.56.2,3.22,3.22,0,0,0-1.92,2.25,8.2,8.2,0,0,0-.32,2.37q0,6.95,0,13.89c0,.35,0,.35-.35.35H24.22c-.25,0-.32-.06-.32-.32q0-12.07,0-24.14c0-.26.08-.32.32-.32l5.95,0c.33,0,.33,0,.33.33s0,.77,0,1.15C30.48,11.23,30.49,11.25,30.53,11.31Z"/><path class="cls-3" d="M69.92,34.54H66.16l-2.5,0c-.22,0-.28-.07-.28-.29q0-15.32,0-30.64a.35.35,0,0,1,.23-.36l3.66-1.83L69.65.25,69.9.13V11.33c.39-.28.72-.53,1.08-.76a8.94,8.94,0,0,1,4-1.31,9.78,9.78,0,0,1,2.8.13,8.57,8.57,0,0,1,2.89,1.11,8.1,8.1,0,0,1,3.47,4.62,15.39,15.39,0,0,1,.73,4.36c0,1,0,2,0,3q0,5.87,0,11.75c0,.34,0,.34-.34.34h-5.9c-.24,0-.31-.06-.31-.3q0-6.61,0-13.22a10.52,10.52,0,0,0-.3-2.74,3.6,3.6,0,0,0-1.67-2.38,4.22,4.22,0,0,0-1.85-.47,5,5,0,0,0-2.59.48,3.13,3.13,0,0,0-1.42,1.59A6,6,0,0,0,70,19.9q-.05,3.3-.06,6.59c0,2.57,0,5.13,0,7.7Z"/><path class="cls-3" d="M10.64,35.06a22.11,22.11,0,0,1-4-.42A19.31,19.31,0,0,1,.44,32.28.19.19,0,0,1,.35,32c.67-1.51,1.34-3,2-4.53.09-.22.19-.23.38-.13A19,19,0,0,0,7.53,29.1a12.54,12.54,0,0,0,2.87.34q1.18,0,2.36-.11a2,2,0,0,0,1.17-.56,1.63,1.63,0,0,0-.17-2.37,5,5,0,0,0-1.5-.77c-1.69-.56-3.4-1.09-5.09-1.69A12.84,12.84,0,0,1,3.1,21.73a5.89,5.89,0,0,1-1.93-3.21A8.08,8.08,0,0,1,1.12,15a6.2,6.2,0,0,1,3.19-4.33A10.5,10.5,0,0,1,7.4,9.56a16.13,16.13,0,0,1,3.52-.33,18.87,18.87,0,0,1,4.46.6,23.35,23.35,0,0,1,4.49,1.69c.18.09.14.19.09.32l-1.12,2.77c-.25.62-.5,1.25-.74,1.88-.08.19-.14.27-.38.16a20.44,20.44,0,0,0-4.64-1.58,11.33,11.33,0,0,0-4.64,0,1.36,1.36,0,0,0-1,1.2,1.17,1.17,0,0,0,.69,1.26,24.66,24.66,0,0,0,4.06,1.64,31.46,31.46,0,0,1,4.14,1.57,10.68,10.68,0,0,1,2.51,1.69,6.07,6.07,0,0,1,1.88,3.63,8.16,8.16,0,0,1-.51,4.45,6.62,6.62,0,0,1-3.44,3.42,11.56,11.56,0,0,1-4.09,1C12,35,11.31,35,10.64,35.06Z"/><path class="cls-4" d="M143.33,12.84c1.73-2,3.76-3.26,6.47-3.07s4.55,1.69,6,3.77A19.43,19.43,0,0,1,157.19,12a8.36,8.36,0,0,1,5.31-2.23,8.51,8.51,0,0,1,3.92.64,6.62,6.62,0,0,1,3.74,4.14,13.39,13.39,0,0,1,.66,4.48c0,4.79,0,9.58.06,14.38,0,.6,0,.6-.6.6-.78,0-1.56,0-2.34,0-.38,0-.47-.11-.47-.48,0-3.82,0-7.65,0-11.47,0-1.38-.05-2.77-.16-4.15a6.68,6.68,0,0,0-1.17-3.51,4,4,0,0,0-3-1.6,4.84,4.84,0,0,0-5.66,4,15.26,15.26,0,0,0-.34,2.91c0,4.56,0,9.13,0,13.69,0,.52,0,.52-.54.53-.83,0-1.67,0-2.5.07-.38,0-.48-.11-.47-.47,0-4.31,0-8.62,0-12.93a14.56,14.56,0,0,0-.6-4.69,4.51,4.51,0,0,0-5.19-3.12,4.61,4.61,0,0,0-4,3.54,11.77,11.77,0,0,0-.49,3.7c0,4.48,0,9,0,13.45,0,.41-.11.54-.52.52-.86,0-1.72-.06-2.58-.06-.33,0-.46-.11-.45-.45,0-1.53.07-3.06.08-4.6q0-6.24,0-12.48,0-1.11,0-2.22c0-1.16,0-2.31-.08-3.47,0-.33.11-.46.44-.45q1.35,0,2.71,0c.3,0,.41.1.4.4C143.32,11.35,143.33,12,143.33,12.84Z"/><path class="cls-4" d="M197.92,31.49c-.41.34-.81.7-1.24,1a9.92,9.92,0,0,1-7.18,2,6.73,6.73,0,0,1-5.32-3.21,8.23,8.23,0,0,1-1-5.28,7,7,0,0,1,1.78-4,7.59,7.59,0,0,1,3.22-2,13.09,13.09,0,0,1,8.05-.06c.49.14,1,.31,1.45.49.32.12.41,0,.4-.3,0-1.12,0-2.24-.09-3.35a3.87,3.87,0,0,0-2-3.36,7.09,7.09,0,0,0-4-.66,14.24,14.24,0,0,0-4.33,1.2c-.28.12-.57.25-.84.39s-.31.08-.41-.13c-.37-.75-.74-1.49-1.12-2.24-.09-.18-.07-.29.13-.38A17.33,17.33,0,0,1,190.74,10a23.67,23.67,0,0,1,3.54-.14,9,9,0,0,1,4.2,1.15,5.8,5.8,0,0,1,2.68,3.64,10.64,10.64,0,0,1,.34,2.46c.06,3.67.07,7.35.08,11,0,1.84,0,3.68-.06,5.53,0,.3-.1.41-.4.4-.93,0-1.85-.05-2.78-.06-.23,0-.31-.09-.31-.31,0-.5,0-1,0-1.49,0-.21,0-.41,0-.62Zm.2-6.71h-.07c0-.42,0-.84,0-1.25a.59.59,0,0,0-.29-.4,9.85,9.85,0,0,0-1.06-.38A12.62,12.62,0,0,0,190,22.3a4,4,0,0,0-3.11,2.46,5.4,5.4,0,0,0-.19,3.78,4.06,4.06,0,0,0,2.52,2.85,6.5,6.5,0,0,0,3.42.26A9.28,9.28,0,0,0,198,28.49a.92.92,0,0,0,.16-.56C198.13,26.88,198.12,25.83,198.12,24.78Z"/><path class="cls-4" d="M115.53,22.47a16.56,16.56,0,0,1,1.09-6.38,9.88,9.88,0,0,1,5.87-5.74,10.42,10.42,0,0,1,6-.26,9.19,9.19,0,0,1,6.26,5,14.59,14.59,0,0,1,1.4,5.3,16,16,0,0,1-1.35,8.37,9.3,9.3,0,0,1-5.12,5,10.13,10.13,0,0,1-9.31-.78,8.82,8.82,0,0,1-3.17-3.52,13.81,13.81,0,0,1-1.55-5.3C115.58,23.52,115.56,22.88,115.53,22.47ZM132.77,22a12.2,12.2,0,0,0-1.13-5.69,6.07,6.07,0,0,0-2.39-2.7,6.73,6.73,0,0,0-4.22-.87,5.64,5.64,0,0,0-2.8,1,7.42,7.42,0,0,0-2.88,4.78,19.15,19.15,0,0,0-.26,5,11.67,11.67,0,0,0,.91,4,6.1,6.1,0,0,0,5,3.92,6.21,6.21,0,0,0,6.78-3.93A12.82,12.82,0,0,0,132.77,22Z"/><path class="cls-4" d="M221.3,31.41c-.47.45-.82.83-1.22,1.16a8.49,8.49,0,0,1-6.19,1.93A7.33,7.33,0,0,1,207,29a13.09,13.09,0,0,1-.48-3.62c0-4.86,0-9.72-.06-14.57,0-.53,0-.53.54-.53.82,0,1.64,0,2.46,0,.32,0,.41.09.41.41q0,3.21,0,6.42c0,2.66,0,5.33.07,8a9.34,9.34,0,0,0,.69,3.49,4.53,4.53,0,0,0,3.51,2.83,5.53,5.53,0,0,0,5.5-1.73A6.62,6.62,0,0,0,221.14,26a17.17,17.17,0,0,0,.11-2q0-6.58,0-13.17c0-.4.09-.54.51-.53.82,0,1.64,0,2.46,0,.35,0,.49.08.49.47q0,11.37,0,22.74c0,.35-.13.5-.45.5-.9,0-1.8,0-2.7,0-.1,0-.29-.21-.29-.33,0-.5,0-1,0-1.49C221.31,32,221.3,31.73,221.3,31.41Z"/><path class="cls-4" d="M113.81,12.54l-1.89,2.35c-.17.22-.31.09-.48,0a30.71,30.71,0,0,0-2.87-1.62A6,6,0,0,0,101,15.75a10.53,10.53,0,0,0-1.42,5,17.72,17.72,0,0,0,.3,4.86,7.93,7.93,0,0,0,3.19,5.05,5.42,5.42,0,0,0,4.25.77,8.15,8.15,0,0,0,4-2.13c.22-.2.35-.22.56,0q.77.88,1.58,1.72c.2.21.18.33,0,.52a10.67,10.67,0,0,1-4.93,2.67,10.13,10.13,0,0,1-5.1,0,9,9,0,0,1-4.73-3.11,11.84,11.84,0,0,1-2.32-5.12,17.45,17.45,0,0,1-.37-4,15.21,15.21,0,0,1,1.35-6.41,9.54,9.54,0,0,1,6.38-5.42,10.68,10.68,0,0,1,7.38.76,25.33,25.33,0,0,1,2.29,1.33A3.28,3.28,0,0,1,113.81,12.54Z"/><path class="cls-4" d="M177.59,34.51a2.82,2.82,0,0,1-2.83-2.89,2.91,2.91,0,0,1,2.79-3.05,3.1,3.1,0,0,1,3,2.91A3,3,0,0,1,177.59,34.51Z"/><path class="cls-4" d="M94.37,31.63a2.88,2.88,0,1,1-3.22-3A2.85,2.85,0,0,1,94.37,31.63Z"/><line class="cls-5" x1="225.31" y1="37.47" x2="0.31" y2="37.47"/></svg>