<?xml version="1.0" encoding="UTF-8"?>
<svg width="267px" height="231px" viewBox="0 0 267 231" version="1.1" xmlns="http://www.w3.org/2000/svg" xmlns:xlink="http://www.w3.org/1999/xlink">
    <!-- Generator: Sketch 47.1 (45422) - http://www.bohemiancoding.com/sketch -->
    <title>Stacked_White</title>
    <desc>Created with Sketch.</desc>
    <defs>
        <polygon id="path-1" points="0.06 0.22 0.06 52.947 7.91 52.947 7.91 0.22"></polygon>
        <polygon id="path-3" points="63.332 0.22 63.332 53 32.045 53 0.758 53 0.758 0.22 63.332 0.22"></polygon>
    </defs>
    <g id="Page-1" stroke="none" stroke-width="1" fill="none" fill-rule="evenodd">
        <g id="Artboard" transform="translate(-617.000000, -512.000000)">
            <g id="Stacked_White" transform="translate(617.000000, 512.000000)">
                <g id="Group-3" transform="translate(0.000000, 178.000000)">
                    <mask id="mask-2" fill="white">
                        <use xlink:href="#path-1"></use>
                    </mask>
                    <g id="Clip-2"></g>
                    <path d="M3.955,14.57 L3.955,14.57 C5.289,14.57 6.37,15.651 6.37,16.985 L6.37,50.532 C6.37,51.866 5.289,52.947 3.955,52.947 C2.621,52.947 1.54,51.866 1.54,50.532 L1.54,16.985 C1.54,15.651 2.621,14.57 3.955,14.57 Z M0,4.21 C0,3.138 0.385,2.204 1.155,1.41 C1.925,0.617 2.858,0.22 3.955,0.22 C5.051,0.22 5.985,0.605 6.755,1.375 C7.525,2.145 7.91,3.079 7.91,4.175 C7.91,5.272 7.525,6.205 6.755,6.975 C5.985,7.745 5.051,8.13 3.955,8.13 C2.858,8.13 1.925,7.734 1.155,6.94 C0.385,6.147 0,5.237 0,4.21 L0,4.21 Z" id="Fill-1" fill="#FFFFFE" mask="url(#mask-2)"></path>
                </g>
                <path d="M18.619,192.57 L18.69,192.57 C20.004,192.57 21.07,193.636 21.07,194.95 L21.07,199.22 C24.896,194.134 29.54,191.59 35,191.59 C37.8,191.59 40.32,192.349 42.56,193.865 C44.8,195.382 46.385,197.365 47.32,199.815 C48.253,202.265 48.719,205.87 48.719,210.63 L48.719,228.567 C48.719,229.882 47.654,230.947 46.34,230.947 C45.026,230.947 43.96,229.882 43.96,228.567 L43.96,212.03 C43.96,207.69 43.76,204.75 43.365,203.21 C42.968,201.67 42.361,200.364 41.545,199.29 C40.728,198.217 39.69,197.4 38.429,196.84 C37.17,196.28 35.64,196 33.844,196 C32.048,196 30.285,196.444 28.56,197.33 C26.833,198.217 25.363,199.454 24.15,201.04 C22.936,202.627 22.12,204.26 21.699,205.94 C21.28,207.62 21.07,211.004 21.07,216.09 L21.07,228.567 C21.07,229.882 20.004,230.947 18.69,230.947 L18.619,230.947 C17.305,230.947 16.239,229.882 16.239,228.567 L16.239,194.95 C16.239,193.636 17.305,192.57 18.619,192.57" id="Fill-4" fill="#FFFFFE"></path>
                <path d="M64.969,223.86 C64.969,225.12 65.132,225.867 65.459,226.1 C65.785,226.334 66.625,226.45 67.979,226.45 L68.819,226.45 C69.94,226.45 70.849,227.359 70.849,228.48 L70.849,228.762 C70.849,229.774 70.102,230.641 69.098,230.773 C67.948,230.925 66.991,231 66.229,231 C64.129,231 62.589,230.487 61.609,229.46 C60.629,228.434 60.139,226.824 60.139,224.63 L60.139,196.63 L55.589,196.63 C54.468,196.63 53.559,195.722 53.559,194.6 C53.559,193.479 54.468,192.57 55.589,192.57 L60.139,192.57 L60.139,180.25 C60.139,179.129 61.048,178.22 62.169,178.22 L62.939,178.22 C64.06,178.22 64.969,179.129 64.969,180.25 L64.969,192.57 L70.499,192.57 C71.62,192.57 72.529,193.479 72.529,194.6 C72.529,195.722 71.62,196.63 70.499,196.63 L64.969,196.63 L64.969,223.86" id="Fill-5" fill="#FFFFFE"></path>
                <path d="M81.384,192.57 L81.384,192.57 C82.718,192.57 83.799,193.651 83.799,194.985 L83.799,228.532 C83.799,229.866 82.718,230.947 81.384,230.947 C80.05,230.947 78.969,229.866 78.969,228.532 L78.969,194.985 C78.969,193.651 80.05,192.57 81.384,192.57 Z M77.428,182.21 C77.428,181.138 77.813,180.204 78.583,179.41 C79.353,178.617 80.286,178.22 81.384,178.22 C82.479,178.22 83.413,178.605 84.183,179.375 C84.953,180.145 85.339,181.079 85.339,182.175 C85.339,183.272 84.953,184.205 84.183,184.975 C83.413,185.745 82.479,186.13 81.384,186.13 C80.286,186.13 79.353,185.734 78.583,184.94 C77.813,184.147 77.428,183.237 77.428,182.21 L77.428,182.21 Z" id="Fill-6" fill="#FFFFFE"></path>
                <path d="M96.013,192.57 L96.084,192.57 C97.379,192.57 98.428,193.62 98.428,194.915 L98.428,199.01 C101.742,194.064 105.989,191.59 111.168,191.59 C113.921,191.59 116.384,192.372 118.554,193.935 C120.723,195.499 122.181,197.704 122.929,200.55 C124.469,197.657 126.429,195.44 128.808,193.9 C131.188,192.36 133.929,191.59 137.034,191.59 C140.137,191.59 142.949,192.792 145.469,195.195 C147.989,197.599 149.249,202.348 149.249,209.44 L149.249,228.602 C149.249,229.897 148.199,230.947 146.903,230.947 L146.693,230.947 C145.398,230.947 144.348,229.897 144.348,228.602 L144.348,209.44 C144.348,206.034 144.138,203.525 143.719,201.915 C143.299,200.306 142.388,198.952 140.989,197.855 C139.589,196.759 137.733,196.21 135.424,196.21 C133.114,196.21 130.954,196.98 128.949,198.52 C126.941,200.06 125.564,202.02 124.819,204.4 C124.072,206.78 123.699,210.374 123.699,215.181 L123.699,228.602 C123.699,229.897 122.649,230.947 121.354,230.947 C120.059,230.947 119.009,229.897 119.009,228.602 L119.009,210.7 C119.009,206.734 118.799,203.899 118.378,202.195 C117.958,200.492 117.024,199.069 115.578,197.925 C114.132,196.782 112.358,196.21 110.259,196.21 C108.158,196.21 106.186,196.829 104.344,198.065 C102.499,199.302 101.054,200.994 100.003,203.14 C98.953,205.287 98.428,208.904 98.428,213.99 L98.428,228.602 C98.428,229.897 97.379,230.947 96.084,230.947 L96.013,230.947 C94.719,230.947 93.668,229.897 93.668,228.602 L93.668,194.915 C93.668,193.62 94.719,192.57 96.013,192.57" id="Fill-7" fill="#FFFFFE"></path>
                <path d="M191.948,211.33 C191.948,207.084 190.524,203.502 187.678,200.585 C184.831,197.669 181.343,196.21 177.213,196.21 C173.083,196.21 169.594,197.715 166.748,200.725 C163.901,203.735 162.478,207.294 162.478,211.4 C162.478,215.507 163.924,219.065 166.818,222.075 C169.711,225.085 173.176,226.59 177.213,226.59 C181.249,226.59 184.714,225.144 187.608,222.25 C190.501,219.357 191.948,215.717 191.948,211.33 Z M196.358,194.915 L196.358,227.395 C196.358,228.69 195.308,229.74 194.012,229.74 C192.718,229.74 191.668,228.69 191.668,227.395 L191.668,223.37 C187.421,228.457 182.568,231 177.108,231 C171.648,231 167.039,229.052 163.283,225.155 C159.527,221.26 157.649,216.617 157.648,211.229 C157.647,206.021 159.718,201.004 163.381,197.302 C167.147,193.494 171.652,191.59 176.898,191.59 C182.964,191.59 187.887,194.181 191.668,199.36 L191.668,194.915 C191.668,193.62 192.718,192.57 194.012,192.57 C195.308,192.57 196.358,193.62 196.358,194.915 L196.358,194.915 Z" id="Fill-8" fill="#FFFFFE"></path>
                <g id="Group-12" transform="translate(203.000000, 178.000000)">
                    <mask id="mask-4" fill="white">
                        <use xlink:href="#path-3"></use>
                    </mask>
                    <g id="Clip-10"></g>
                    <path d="M12.167,45.86 C12.167,47.12 12.331,47.867 12.657,48.1 C12.983,48.334 13.823,48.45 15.179,48.45 L16.017,48.45 C17.139,48.45 18.048,49.359 18.048,50.48 L18.048,50.762 C18.048,51.774 17.301,52.641 16.297,52.773 C15.146,52.925 14.19,53 13.429,53 C11.327,53 9.788,52.487 8.807,51.46 C7.827,50.434 7.337,48.824 7.337,46.63 L7.337,18.63 L2.788,18.63 C1.667,18.63 0.758,17.722 0.758,16.6 C0.758,15.479 1.667,14.57 2.788,14.57 L7.337,14.57 L7.337,2.25 C7.337,1.129 8.246,0.22 9.367,0.22 L10.137,0.22 C11.259,0.22 12.167,1.129 12.167,2.25 L12.167,14.57 L17.697,14.57 C18.819,14.57 19.727,15.479 19.727,16.6 C19.727,17.722 18.819,18.63 17.697,18.63 L12.167,18.63 L12.167,45.86" id="Fill-9" fill="#FFFFFE" mask="url(#mask-4)"></path>
                    <path d="M58.157,29.55 C57.503,26.004 55.87,23.227 53.257,21.22 C50.642,19.214 47.633,18.21 44.226,18.21 C37.226,18.21 32.652,21.99 30.507,29.55 L58.157,29.55 Z M60.069,40.688 L60.069,40.688 C61.256,41.303 61.681,42.818 60.95,43.936 C56.994,49.979 51.49,53 44.436,53 C38.837,53 34.217,51.075 30.577,47.225 C26.936,43.375 25.117,38.744 25.117,33.33 C25.117,27.917 26.948,23.274 30.612,19.4 C34.274,15.527 38.802,13.59 44.191,13.59 C49.582,13.59 54.107,15.388 57.771,18.98 C60.932,22.082 62.782,26.156 63.32,31.202 C63.462,32.531 62.385,33.681 61.048,33.681 L30.016,33.681 C30.186,39.073 32.194,43.197 36.052,46.055 C38.374,47.775 41.252,48.607 44.141,48.59 C49.708,48.555 54.027,46.191 57.1,41.499 C57.748,40.511 59.019,40.146 60.069,40.688 L60.069,40.688 Z" id="Fill-11" fill="#FFFFFE" mask="url(#mask-4)"></path>
                </g>
                <path d="M73.648,108.573 C107.07,87.147 151.034,84.806 187.64,106.243 C188.924,106.995 190.184,107.771 191.425,108.567 L192.871,109.511 C172.489,141.452 130.335,151.826 97.358,132.515 C87.121,126.52 78.96,118.346 73.087,108.935 L73.648,108.573" id="Fill-13" fill="#FFFFFE"></path>
                <path d="M131.149,1.103 C132.167,21.552 127.45,42.517 116.332,61.503 C105.205,80.504 89.211,94.883 70.862,103.998 L70.393,104.23 C59.468,83.314 59.212,57.416 72.016,35.551 C84.821,13.686 107.532,1.238 131.119,0.533 L131.149,1.103" id="Fill-14" fill="#FFFFFE"></path>
                <path d="M136.541,0.579 C136.538,0.623 136.513,1.014 136.505,1.166 C134.139,40.825 153.61,80.351 190.241,101.803 C191.675,102.642 193.12,103.441 194.576,104.207 L195.65,104.765 C213.535,71.362 201.957,29.522 168.979,10.21 C158.763,4.227 147.665,1.11 136.604,0.582 L136.541,0.579" id="Fill-15" fill="#FFFFFE"></path>
            </g>
        </g>
    </g>
</svg>