<?xml version="1.0" encoding="UTF-8" standalone="no"?>
<svg width="180px" height="180px" viewBox="0 0 180 180" version="1.1" xmlns="http://www.w3.org/2000/svg" xmlns:xlink="http://www.w3.org/1999/xlink">
    <!-- Generator: sketchtool 42 (36781) - http://www.bohemiancoding.com/sketch -->
    <title>2183FBD9-3322-42F8-890C-5D26BD7D896B</title>
    <desc>Created with sketchtool.</desc>
    <defs></defs>
    <g id="Desktop" stroke="none" stroke-width="1" fill="none" fill-rule="evenodd">
        <g id="Desktop-Company" transform="translate(-604.000000, -1816.000000)">
            <g id="Current-Openings" transform="translate(0.000000, 968.000000)"></g>
            <g id="Press" transform="translate(0.000000, 1600.000000)">
                <rect id="Main-BG" fill="#F2F3F3" x="0" y="0" width="1388" height="520"></rect>
                <g id="Logos" transform="translate(204.000000, 216.000000)">
                    <g id="VB" transform="translate(400.000000, 0.000000)">
                        <rect id="Rectangle-2-Copy" fill="#FFFFFF" x="0" y="0" width="180" height="180" rx="2"></rect>
                        <g id="Venture-Beat-Logo" transform="translate(11.000000, 45.000000)">
                            <path d="M123,18.0129321 L123,18 L115,18 L115,37 L123,37 L123,36.9870679 C128.014282,36.7270615 132,32.5789879 132,27.5 C132,22.4210121 128.014282,18.2729385 123,18.0129321 Z M125,53.0129321 L125,53 L115,53 L115,72 L125,72 L125,71.9870679 C130.014282,71.7270615 134,67.5789879 134,62.5 C134,57.4210121 130.014282,53.2729385 125,53.0129321 Z M92,71 L92,19 L84,19 L84,0 L98.5,0 L133,0 C145.195505,0.304088576 155,11.4682624 155,24 C155,33.466878 149.404793,41.0424514 141.410393,44.2875823 C155.273988,46.4702455 157.513452,60.4895199 157.519165,66.0410533 C157.511101,78.6267162 148.698411,88.8664614 137,89.9120414 L137,90 L131,90 L98.5,90 L84,90 L84,71 L92,71 Z" id="Combined-Shape" fill="#ED2528"></path>
                            <path d="M57.508059,19 L43.7929688,69.3339844 L30.8275148,19 L39,19 L39,0 L0,0 L0,19 L6.38460842,19 L28.2736816,89.5374756 L57.0895996,89.5616455 L78.6836951,19 L84,19 L84,0 L50,0 L50,19 L57.508059,19 Z" id="Combined-Shape" fill="#0E0E0E"></path>
                        </g>
                    </g>
                </g>
            </g>
        </g>
    </g>
</svg>