<svg class="header-navbar__logo" viewBox="0 0 403 96" xmlns="http://www.w3.org/2000/svg">
  <path class="logo__symbol logo__symbol--1" fill="#1591fe" d="M42.29 11.55a41.29 41.29 0 1 0 41.29 41.28V11.55H42.29z"></path>
  <path class="logo__symbol logo__symbol--2" fill="#18304b" d="M46 34.88c-5.83-5.827-15.225-5.997-21.261-.385-6.037 5.612-6.552 14.994-1.165 21.233 5.387 6.238 14.744 7.096 21.176 1.942l4.51 4.51a3.22 3.22 0 0 0 .58 3.77l8.38 8.38a3.22 3.22 0 0 0 4.56 0l1-1a3.22 3.22 0 0 0 0-4.56L55.4 60.4a3.22 3.22 0 0 0-3.77-.58l-4.51-4.51c4.895-6.098 4.413-14.904-1.12-20.43zM27.18 53.72a11.31 11.31 0 0 1-2.23-12.82L27.1 43a8.51 8.51 0 0 1 5.41-5.41l-2.15-2.15a11.31 11.31 0 1 1-3.17 18.23l-.01.05z"></path>
  <path class="logo__symbol logo__symbol--3" fill="#18304b" d="M168.63 51.19c0-7.85-.26-14.54-.52-20.07h17l.9 8.62h.38a23 23 0 0 1 19.43-10c12.87 0 22.52 8.49 22.52 27V94h-19.57V59.17c0-8.11-2.83-13.64-9.91-13.64-5.4 0-8.62 3.73-9.91 7.34a13.46 13.46 0 0 0-.77 4.89V94h-19.55V51.19zM297 2.68v72.57c0 7.08.26 14.54.51 18.79h-17.38l-.9-9.26H279c-4 7.08-11.58 10.68-19.69 10.68-14.93 0-26.89-12.74-26.89-32.29-.13-21.23 13.12-33.46 28.18-33.46 7.72 0 13.77 2.7 16.6 7.08h.26V2.68H297zm-19.57 55.07a31.25 31.25 0 0 0-.26-3.48c-1.16-5.28-5.4-9.65-11.45-9.65-8.88 0-13.51 8-13.51 17.88 0 10.68 5.28 17.37 13.38 17.37a11.45 11.45 0 0 0 11.32-9.39 16.57 16.57 0 0 0 .51-4.5l.01-8.23zm42 11.07c.65 8.11 8.62 12 17.76 12a55.36 55.36 0 0 0 17.37-2.57l2.58 13.25c-6.43 2.57-14.28 3.86-22.78 3.86-21.36 0-33.58-12.35-33.58-32 0-16 9.91-33.58 31.78-33.58 20.33 0 28 15.83 28 31.4a46.33 46.33 0 0 1-.64 7.72l-40.49-.08zm23-13.38c0-4.76-2.06-12.74-11.07-12.74-8.23 0-11.58 7.46-12.09 12.74h23.16zm22.43-3.61c0-9.26-.26-15.31-.52-20.71h16.86l.64 11.58h.52c3.22-9.14 10.94-13 17-13a20.16 20.16 0 0 1 4.12.26v18.4a27.84 27.84 0 0 0-5.27-.52c-7.21 0-12.09 3.86-13.38 9.91a22.92 22.92 0 0 0-.39 4.37V94h-19.58V51.83zM141.22 31.12h19.56v62.92h-19.56V31.12zm-18.63-2.19c0-6.92 3.57-12.17 13.75-12.22a15.41 15.41 0 0 1 2.9-15.32c-1.11-.08-2.2-.13-3.27-.13C116.55 1.26 103 11 103 28.42v2.7h-8.2v14.41h8.2V94h19.69V45.53h10.43V31.12h-10.53v-2.19z"></path>
  <circle class="logo__symbol logo__symbol--4" fill="#1591fe" cx="151" cy="11.54" r="11.54"></circle>
</svg>
