<?xml version="1.0" encoding="utf-8"?>
<!-- Generator: Adobe Illustrator 21.0.2, SVG Export Plug-In . SVG Version: 6.00 Build 0)  -->
<svg version="1.1" id="Layer_1" xmlns="http://www.w3.org/2000/svg" xmlns:xlink="http://www.w3.org/1999/xlink" x="0px" y="0px"
	 viewBox="0 0 134.5 51.2" style="enable-background:new 0 0 134.5 51.2;" xml:space="preserve">
<style type="text/css">
	.st0{fill:#191919;}
</style>
<g>
	<path class="st0" d="M25.6,0C11.5,0,0,11.5,0,25.6c0,14.2,11.5,25.6,25.6,25.6c14.1,0,25.6-11.5,25.6-25.6C51.3,11.5,39.8,0,25.6,0
		 M19.8,36.1l-7.2,1.9l4.9-18.2c0.1-0.6,0.8-1.3,1.4-1.5l7.2-1.9l-4.9,18.2C21.1,35.3,20.5,36,19.8,36.1 M33.9,31.3
		c-0.2,0.6-0.8,1.3-1.4,1.4l-7.2,1.9l4.9-18.2c0.2-0.6,0.8-1.3,1.4-1.5l7.1-1.9L33.9,31.3z"/>
	<path class="st0" d="M47,46.4l0.5,1.4l0.5-1.4h0.6v2h-0.4v-1.6l-0.5,1.6h-0.3l-0.5-1.6v1.6h-0.4v-2H47z M44.4,46.7v-0.3h1.7v0.3
		h-0.7v1.7h-0.4v-1.7H44.4z"/>
	<g>
		<path class="st0" d="M71,10.9v0.5c0,0.9-0.3,1.7-1,2.3c-0.7,0.6-1.5,1-2.4,1c-0.9,0-1.7-0.3-2.4-1c-0.7-0.6-1-1.4-1-2.3V6
			c0-0.9,0.3-1.6,1-2.3c0.7-0.6,1.5-1,2.4-1c2.5,0,3.3,1.9,3.3,3.4h-2c0-0.8-0.5-1.5-1.3-1.5c-0.8,0-1.4,0.6-1.4,1.3v5.5
			c0,0.8,0.6,1.3,1.4,1.3c0.7,0,1.4-0.5,1.4-1.4v-0.5H71z"/>
		<path class="st0" d="M78.1,14.5l-1.6-3.9h-1.1v3.9h-2V2.9H77c0.8,0,1.5,0.3,2,0.8c0.5,0.5,0.8,1.2,0.8,2v2.1
			c0,0.9-0.5,1.8-1.3,2.4l1.8,4.3H78.1z M77.7,5.6c0-0.4-0.4-0.8-0.8-0.8h-1.5v3.8h1.5c0.4,0,0.8-0.4,0.8-0.8V5.6z"/>
		<path class="st0" d="M82.7,2.9h5.9v1.9h-3.9v2.6h3.6v1.9h-3.6v3.1h4v1.9h-6V2.9z"/>
		<path class="st0" d="M93.2,2.9h3.1l1.9,6.5v5.1h-1.9V11h-3v3.4h-1.9V9.4L93.2,2.9z M96.1,9.1l-1.2-4.3h-0.3l-1.2,4.3H96.1z"/>
		<path class="st0" d="M100.4,4.8V2.9h6.8v1.9h-2.4v9.6h-2V4.8H100.4z"/>
		<path class="st0" d="M109.7,4.8V2.9h6.5v1.9H114v7.9h2.2v1.9h-6.5v-1.9h2.2V4.8H109.7z"/>
		<path class="st0" d="M120.5,2.9v4.8l1.4,4.9h0.3l1.4-4.9V2.9h1.9V8l-2,6.5h-3L118.6,8V2.9H120.5z"/>
		<path class="st0" d="M128.2,2.9h5.9v1.9h-3.9v2.6h3.6v1.9h-3.6v3.1h4v1.9h-6V2.9z"/>
		<path class="st0" d="M64.3,21.8v-1.9h6.8v1.9h-2.4v9.6h-2v-9.6H64.3z"/>
		<path class="st0" d="M73.8,19.8h5.9v1.9h-3.9v2.6h3.6v1.9h-3.6v3.1h4v1.9h-6V19.8z"/>
		<path class="st0" d="M89.4,27.8v0.5c0,0.9-0.3,1.7-1,2.3c-0.7,0.6-1.5,1-2.4,1c-0.9,0-1.7-0.3-2.4-1c-0.7-0.6-1-1.4-1-2.3v-5.4
			c0-0.9,0.3-1.6,1-2.3c0.7-0.6,1.5-1,2.4-1c2.5,0,3.3,1.9,3.3,3.4h-2c0-0.8-0.5-1.5-1.3-1.5c-0.8,0-1.4,0.6-1.4,1.3v5.5
			c0,0.8,0.6,1.3,1.4,1.3c0.7,0,1.4-0.5,1.4-1.4v-0.5H89.4z"/>
		<path class="st0" d="M96.4,19.8h2v11.6h-2v-5.1h-2.7v5.1h-2V19.8h2v4.5h2.7V19.8z"/>
		<path class="st0" d="M64.3,36.8h3.5c0.8,0,1.5,0.3,2,0.8c0.5,0.5,0.8,1.2,0.8,1.9v1c0,0.7-0.3,1.3-0.6,1.6l-0.2,0.2
			c0.1,0,0.1,0.1,0.2,0.2c0.1,0.1,0.2,0.3,0.4,0.6c0.2,0.3,0.2,0.7,0.2,1.1v1.2c0,0.8-0.3,1.5-0.9,2.1c-0.6,0.5-1.3,0.8-2.1,0.8
			h-3.4V36.8z M66.3,38.7v2.6h1.5c0.5,0,0.9-0.4,0.9-0.8v-1c0-0.4-0.4-0.8-0.9-0.8H66.3z M66.3,43.3v3.2h1.4c0.5,0,1-0.4,1-1v-1.2
			c0-0.4-0.4-1-1-1H66.3z"/>
		<path class="st0" d="M80,36.8v8.5c0,0.9-0.3,1.7-1,2.3c-0.6,0.6-1.5,0.9-2.4,0.9c-1,0-1.8-0.3-2.4-1c-0.7-0.6-1-1.4-1-2.3v-8.5h2
			v8.6c0,0.7,0.7,1.3,1.5,1.3c0.8,0,1.5-0.6,1.5-1.3v-8.6H80z"/>
		<path class="st0" d="M84.4,39.7c0,0.7,0.7,1.2,1.6,1.7c1.3,0.6,3,1.7,3,3.9c0,0.9-0.3,1.6-1,2.3c-0.7,0.6-1.5,1-2.4,1
			c-1,0-1.8-0.3-2.4-0.9c-0.6-0.6-1-1.4-1-2.3v-0.5h1.9v0.5c0,0.9,0.7,1.4,1.4,1.4c0.9,0,1.4-0.6,1.4-1.2c0-0.9-0.7-1.5-1.6-1.9
			c-1.3-0.6-3-1.5-3-3.6c0-0.9,0.3-1.7,0.9-2.3c0.6-0.6,1.4-0.9,2.3-0.9c1,0,1.8,0.3,2.4,1c0.6,0.7,0.8,1.5,0.8,2.4h-2
			c0-0.9-0.5-1.5-1.2-1.5C85,38.5,84.4,39,84.4,39.7z"/>
		<path class="st0" d="M91.5,38.6v-1.8H98v1.8h-2.2v7.9H98v1.8h-6.5v-1.8h2.2v-7.9H91.5z"/>
		<path class="st0" d="M105.3,36.8h1.9v11.6h-2l-2.1-5.5l-0.6-2h-0.1l0.1,2v5.5h-1.9V36.8h2l2.1,5.5l0.7,2h0.1l-0.1-2V36.8z"/>
		<path class="st0" d="M109.9,36.8h5.9v1.9h-3.9v2.6h3.6v1.9h-3.6v3.1h4v1.9h-6V36.8z"/>
		<path class="st0" d="M120.8,39.7c0,0.7,0.7,1.2,1.6,1.7c1.3,0.6,3,1.7,3,3.9c0,0.9-0.3,1.6-1,2.3c-0.7,0.6-1.5,1-2.4,1
			c-1,0-1.8-0.3-2.4-0.9c-0.6-0.6-1-1.4-1-2.3v-0.5h1.9v0.5c0,0.9,0.7,1.4,1.4,1.4c0.9,0,1.4-0.6,1.4-1.2c0-0.9-0.7-1.5-1.6-1.9
			c-1.3-0.6-3-1.5-3-3.6c0-0.9,0.3-1.7,0.9-2.3c0.6-0.6,1.4-0.9,2.3-0.9c1,0,1.8,0.3,2.4,1c0.6,0.7,0.8,1.5,0.8,2.4h-2
			c0-0.9-0.5-1.5-1.2-1.5C121.3,38.5,120.8,39,120.8,39.7z"/>
		<path class="st0" d="M129.9,39.7c0,0.7,0.7,1.2,1.6,1.7c1.3,0.6,3,1.7,3,3.9c0,0.9-0.3,1.6-1,2.3c-0.7,0.6-1.5,1-2.4,1
			c-1,0-1.8-0.3-2.4-0.9c-0.6-0.6-1-1.4-1-2.3v-0.5h1.9v0.5c0,0.9,0.7,1.4,1.4,1.4c0.9,0,1.4-0.6,1.4-1.2c0-0.9-0.7-1.5-1.6-1.9
			c-1.3-0.6-3-1.5-3-3.6c0-0.9,0.3-1.7,0.9-2.3c0.6-0.6,1.4-0.9,2.3-0.9c1,0,1.8,0.3,2.4,1c0.6,0.7,0.8,1.5,0.8,2.4h-2
			c0-0.9-0.5-1.5-1.2-1.5C130.4,38.5,129.9,39,129.9,39.7z"/>
	</g>
</g>
</svg>
