<svg id="Layer_1" data-name="Layer 1" xmlns="http://www.w3.org/2000/svg" viewBox="0 0 226 64"><defs><style>.cls-1{fill:none;stroke:#000;stroke-miterlimit:3.86;stroke-width:.77px}.cls-3{fill:#027cc3}.cls-4{fill:#8c8f92}</style></defs><path d="M59.36 47.42l-2 1.35.7.6v7.95a1.27 1.27 0 0 1-1.4 1.2h-.35v-9.9l-1.75-1.15-2.2 1.45.1.2.5-.3a2.57 2.57 0 0 1 .8 1.45v8.2a2.48 2.48 0 0 0-1.8 2.65 2.14 2.14 0 0 0 1.85 2 10.81 10.81 0 0 0 2.55-.2 7.27 7.27 0 0 1 1.5-.1 2 2 0 0 1 1.55.55l.2.2a1.94 1.94 0 0 0 .39-1.2 1.84 1.84 0 0 0-1-1.7 3.15 3.15 0 0 0-1.65-.3 2.56 2.56 0 0 0-.5 0 7.58 7.58 0 0 1-1.15.1c-.55 0-1.15.15-1.55.2a2.56 2.56 0 0 1-.5 0 1.08 1.08 0 0 1-.7-.25.6.6 0 0 1-.2-.5c0-.7 1-1 1.2-1h.3a16.17 16.17 0 0 0 3 .3 3.71 3.71 0 0 0 1.26-.22 3.18 3.18 0 0 0 1.1-.7 2.76 2.76 0 0 0 .7-.85 2.19 2.19 0 0 0 .3-1.15v-8a15.2 15.2 0 0 0-1.25-.9"/><path class="cls-1" d="M60.51 48.37l.75-.45"/><path d="M78.81 57.22l-.45.3-.4-.35v-8.75l-1.5-1-2.75 1.8-.1-.15a3 3 0 0 0-1.2-1.55l-2.6 1.75.1.15a2.88 2.88 0 0 1 .45-.25 3.19 3.19 0 0 1 .7 1.35v6.65l-.7.6 2 1.35 2-1.3-.7-.6v-7.35l.7-.45 1 1.1v6.85a2.41 2.41 0 0 0 1.1 1.75l2.45-1.6-.1-.3"/><path class="cls-1" d="M77.81 48.52l.7-.45m-53 9.65l.7-.45"/><path d="M30.76 57.32l-.75.45-1.45-1v-3.3l3.55-2.4-2-3.75-4.25 2.8v7.25c.8.55 2.55 1.6 2.55 1.6l2.4-1.55zm-2.15-8.25l1.65 2.85L28.61 53v-3.93"/><path class="cls-1" d="M79.31 57.77l.7-.45"/><path d="M134.76 47.72s-1.8 1.2-2.15 1.4a4.08 4.08 0 0 0-1.3-1.75l-2.5 1.63.1.15s.3-.2.35-.25l.15.1c.3.3.45.5.45.65v7.05l-.75.6 2.05 1.6s2.2-1.55 2.15-1.5l-.8-.7v-6.93l.45-.3 1 1.3s-.1.15-.15.25a1.69 1.69 0 0 0-.4 1c0 .15.2.6.5.6h.09a1.46 1.46 0 0 0 .45-.1l.1-.05h-.1a2.44 2.44 0 0 1-.35-.15h-.1a.81.81 0 0 1-.25-.45 1.51 1.51 0 0 1 .45-.9 11.79 11.79 0 0 1 1.7-1.45l-1.15-1.8"/><path class="cls-1" d="M224.61 49.17l.7-.45m-7.8 9l.7-.45"/><path d="M49.86 56.72a14.36 14.36 0 0 0-4.35-2.05l1.6-2.4c2 .45 3.45 1.55 3.45 2.75a2.8 2.8 0 0 1-.7 1.7zm-3.7-7.8c-.3-.05-1.2-.2-1.4-.25-.75-.15-4.4-1.25-4.4-2.85 0-1.85 2.35-1.85 3.5-1.85a6.26 6.26 0 0 1 4.2 1.95c-.06.08-1.6 2.5-1.9 3zm8-2.45a1.39 1.39 0 0 0 .4-.75 1.05 1.05 0 0 0-.25-.65.88.88 0 0 0-.75-.3h-.2a3.88 3.88 0 0 0-2.55 1.4 9.76 9.76 0 0 0-1.6 2.1c-.4.65-.6.95-.7 1.1a14.7 14.7 0 0 1-1.9-.35c.25-.45 1-1.8 2-3.1a22.3 22.3 0 0 1 1.85-2.25.69.69 0 0 1 .2-.15s.15 0 .15-.1-.1-.15-.1-.15a.18.18 0 0 0-.15 0 .37.37 0 0 1-.25 0c-.15 0-.3-.1-.55-.35a6.22 6.22 0 0 0-4.15-1.6c-3.8 0-6 3.2-6 5.35 0 1.35.25 2.8 1 3.4a8.09 8.09 0 0 0 3.8 1.55l.15.05-.3.35a2.64 2.64 0 0 1-1.9.9 1.64 1.64 0 0 1-1.15-.4 4.51 4.51 0 0 0 .35.55 1 1 0 0 0 .6.4 1.9 1.9 0 0 0 .7-.05 4 4 0 0 0 1.7-1.2l.45-.5 1.4.25c.15.05.3.05.45.1l-.6.9c-.75 1.1-1 1.45-1 1.45a5.25 5.25 0 0 1-.65-.1 9.79 9.79 0 0 0-2-.1 8.24 8.24 0 0 0-5.55 2 4.48 4.48 0 0 0-.75 1 3.6 3.6 0 0 0-.5 1.9 1.92 1.92 0 0 0 2.2 1.9c2.15 0 4-2 5-3.1l.15-.2c.3-.3.45-.55.55-.65a18.43 18.43 0 0 1 4.65 2.15 23.28 23.28 0 0 0 2.2-2.85c.5-.75 1.65-2.45 1.7-3.75s-1.15-2.8-3.35-3.25a4.92 4.92 0 0 1 .55-.85c.9-1.4 1.7-2.85 3.45-2.85a1.22 1.22 0 0 1 1.3.7zM41.31 59.12a9.75 9.75 0 0 1-1.25.9 4.64 4.64 0 0 1-1.3.5 3.19 3.19 0 0 0-.35.1 2.05 2.05 0 0 1-.55 0h-.25c-.9-.1-1.4-.6-1.4-1.35 0-2 3.35-2.6 4.55-2.6H41a10.34 10.34 0 0 1 2 .25h.25a13.59 13.59 0 0 1-1.6 1.75 1.52 1.52 0 0 1-.4.4M16 54.17a7.9 7.9 0 0 1-3.15 2.55v-9.9c1.75-.1 3-1.1 3-2.75a2.47 2.47 0 0 0-.15-.75 2.36 2.36 0 0 1-1.85.8 16.44 16.44 0 0 1-4.1-.8 16.65 16.65 0 0 0-4.65-.9c-2.25 0-4.85 1.1-4.85 4.05a4.9 4.9 0 0 0 2.5 3.95 5.43 5.43 0 0 0-.4 1.75c0 2.85 1.75 7.15 6.75 7.15a6.72 6.72 0 0 0 3.3-.8 7 7 0 0 0 2.1-1.75 8.69 8.69 0 0 0 1.56-2.55zm-8.19 2.4a.93.93 0 0 0 .2-.15c1.65-1.1 2.45-2.1 2.45-3.1v-6.7a7.82 7.82 0 0 0 2 .25v10.05a6.34 6.34 0 0 1-4.65-.35zM8 54.92a2.94 2.94 0 0 1-.5 1.45l-.15-.1a6.78 6.78 0 0 1-2.65-5.55 7.87 7.87 0 0 1 2-5.2 6.63 6.63 0 0 1 1.2.4v9zm-1.6-9.5a15.27 15.27 0 0 0-3.4 4.8l-.1-.05a2.31 2.31 0 0 1-1.1-2.1c-.1-1.95 1.3-2.8 3.15-2.8a8.6 8.6 0 0 1 1.45.15m141.55 1.9c-.05.05-2.45 1.65-2.45 1.65l.1.2a4.61 4.61 0 0 0 .4-.25l.15.1c.3.3.4.5.4.65v7.95l1.3 1.35 2.5-1.35-.2-.25-.35.2-.6-.65v-8.5l-1.25-1.1m-1.45-2.8l1.6-1.25 1.4 1.35-1.6 1.15-1.4-1.25M93 47.37l-2 1.35.7.6v7.95a1.27 1.27 0 0 1-1.4 1.2h-.35v-9.9l-1.75-1.15-2.25 1.45.1.2.5-.3a2.57 2.57 0 0 1 .8 1.45v8.35a2.42 2.42 0 0 0-1.8 2.6 2.14 2.14 0 0 0 1.85 2 10.81 10.81 0 0 0 2.55-.2 10.51 10.51 0 0 1 1.5-.15 2 2 0 0 1 1.55.55l.2.2a1.94 1.94 0 0 0 .45-1.15 1.84 1.84 0 0 0-.95-1.7 3.15 3.15 0 0 0-1.65-.3 2.56 2.56 0 0 0-.5 0 7.58 7.58 0 0 1-1.15.1c-.6 0-1.15.15-1.55.2a2.56 2.56 0 0 1-.5 0 1.23 1.23 0 0 1-.75-.25.68.68 0 0 1-.25-.5c.05-.7.9-1 1.2-1h.4a16.17 16.17 0 0 0 2.95.3 4 4 0 0 0 1.21-.27 3.18 3.18 0 0 0 1.1-.7 2.76 2.76 0 0 0 .7-.85 2.19 2.19 0 0 0 .3-1.15v-8c0-.15-1.2-.95-1.2-.95m83.9 5a1.87 1.87 0 0 1 .55.05.41.41 0 0 1 .25.25c.05.05.05 2.55.05 2.55a1.47 1.47 0 0 1-.15.85A6 6 0 0 0 180 54c.4-.75.35-2.3.3-3.9a14.91 14.91 0 0 1 .5-5.45 8.82 8.82 0 0 0-1.69 1.35 4.67 4.67 0 0 0-1.05 1.35 8 8 0 0 0-.3 2.6c-2.85.3-3.4 1.6-3.35 2.75 0 .05.05.25.05.4l.05.15a2.78 2.78 0 0 1 2.4-.9m-2.45-7.9c.1 0 .6.1 1.7.35.6.15 1.35.3 1.45.3h.6c.6 0 1.9-.75 3.45-2l.25-.2a3.28 3.28 0 0 1-1.25.3 8.81 8.81 0 0 1-2.25-.5 8.07 8.07 0 0 0-2.55-.55 2.61 2.61 0 0 0-2.9 2.6 1.86 1.86 0 0 0 .4 1.1 1.46 1.46 0 0 1-.1-.45c.05-.55.45-.9 1.2-.9m13.05-3.1a2.49 2.49 0 0 1 1.2 1.1c-.85.6-1.95 1.45-2.3 1.65-.65-.75-1.5-1.75-2.15-1.8a2.45 2.45 0 0 0-.55 0 .45.45 0 0 0-.2.4v5.8L186 47l1.91 2v6.5c0 1.85-1.3 3.8-3.85 5.5a8.07 8.07 0 0 0 3.9.1 3.94 3.94 0 0 1-3.2 2.1 2.2 2.2 0 0 1-.7-.15 4 4 0 0 0-2.35-.2 10.35 10.35 0 0 0 2.6-2.85 6.2 6.2 0 0 0 .9-3.2v-6.38l-1.75-1.25v.7a11.34 11.34 0 0 1-.35 3.85 6.48 6.48 0 0 1-2.35 2.05 1.71 1.71 0 0 0 .15-.85v-8.25c0-.15.05-.85.05-1a4.25 4.25 0 0 1 2.04-3.35 5.56 5.56 0 0 1 3.1-1.25 3.19 3.19 0 0 1 1.4.3M25 57.77c-.15.15-1.4 1-1.75 1.3a4.2 4.2 0 0 0-1.15 1.15 2.48 2.48 0 0 0-.4 1.3.7.7 0 0 0 .15.45 1.49 1.49 0 0 0 1 .35h.3a.74.74 0 0 0 .35 0 .79.79 0 0 1-.45.45 1.63 1.63 0 0 1-.65.2 1.17 1.17 0 0 1-1.15-1.25 5.39 5.39 0 0 1 1.55-2.65s-1.1-.9-1.1-1.6v-7.15l-1-1.1-.7.45v7.4l.7.6-2 1.35-2-1.35.7-.6V44.92a3.93 3.93 0 0 0-.25-1.7 1.28 1.28 0 0 0-.5-.35 1 1 0 0 1 1-.8 1.87 1.87 0 0 1 .8.2 1.66 1.66 0 0 1 1.4-1.1 1.33 1.33 0 0 1 .65.25c-.6.65-.55 2.1-.55 3v4.85l2.75-1.8 1.6 1.05v8a2.4 2.4 0 0 0 .7 1.25m191.85-.55l.1.15-2.5 1.6-1.95-1.35.65-.6v-12.4a3.93 3.93 0 0 0-.25-1.7 1.28 1.28 0 0 0-.5-.35 1 1 0 0 1 1.05-.8 1.68 1.68 0 0 1 .75.2c.35-.3.65-.85 1.5-.85a1.33 1.33 0 0 1 .65.25 2.5 2.5 0 0 0-.5 1.65c-.05 3.4 0 14.15 0 14.15l.55.5.45-.45"/><path class="cls-1" d="M24.16 48.52l.7-.45m44 1.05l.7-.45m-7.8 9l.7-.45m31.7-8.85l.7-.45M127.71 49l.7-.45m-7.8 9.3l.7-.45m27.7-8.9l.7-.45m-3.7 9.9l.7-.45m20.5-8.5l.7-.45m42.65.1l.7-.45"/><path d="M218 42.67V46c.5.5 1.7 1.6 2.25 2.1a6.28 6.28 0 0 1-2.3 1.2c-.05 0 .1.25.1.5v7.55l2.25 1.7a12 12 0 0 1 4.4-1.9v-8.1zm2.85 6l1.35 1.3v7.5l-1.55-1.1v-7.5l.2-.2m-94.7-1.35a19.78 19.78 0 0 1-5.1 2.1c-.05 0 .1.25.1.5v7.55l2.25 1.7a12 12 0 0 1 4.4-1.9v-8.4zm-2.25 1.6l1.4 1.5v7.05l-1.55-1.1V49l.15-.1m-61.65-6.3V46c.5.5 1.7 1.6 2.25 2.1a6.71 6.71 0 0 1-2.3 1.2s.1.25.1.5v7.55L64.56 59a12 12 0 0 1 4.4-1.9V49zm2.8 6l1.35 1.3v7.5l-1.55-1.1v-7.5l.2-.2"/><path d="M210.91 57.57l.7-.45" stroke-width=".61" fill="none" stroke="#000" stroke-miterlimit="3.86"/><path class="cls-1" d="M133.26 57.42l.5-.35"/><path d="M210.91 57.32a1.18 1.18 0 0 1-.25-.65v-8.1c-.15-.15-1.35-1.25-1.35-1.25l-2 1.65-1.55-1.5-2 1.6 1.4 1.55a2.11 2.11 0 0 0-.1 2.35 2.88 2.88 0 0 0 .2.25l-.2.05a3.37 3.37 0 0 0-2.2 2.85 3.32 3.32 0 0 0 1.6 2.9l3.55-2.2v.25a3.94 3.94 0 0 0 1 2l2.1-1.5zm-3-1l-1.7 1a2.81 2.81 0 0 1-1.15-1.15 3.09 3.09 0 0 1-.35-1.45 1.57 1.57 0 0 1 .25-.85 1.64 1.64 0 0 1 .3-.3c.1-.05.25-.1.35 0a3.38 3.38 0 0 0 2.25.55l.05 2.15zm-.6-6.9l.55.6v3.75a2.82 2.82 0 0 1-2.05-.5c-1.45-1.35-.15-3.1 1.5-3.85m-62.2 7.85l-.45.3-.4-.35v-8.8l-1.5-1-2.76 1.85-.1-.15a3.46 3.46 0 0 0-1.2-1.6l-2.6 1.75.1.2.45-.3a3.5 3.5 0 0 1 .7 1.35v6.65l-.7.6 2 1.35 2-1.3-.7-.6v-7.35l.7-.45 1 1.1v6.85a2.61 2.61 0 0 0 1.1 1.8l2.45-1.6-.1-.35"/><path class="cls-1" d="M144.11 48.52l.75-.45"/><path d="M159.41 57.22l-.45.3-.4-.35v-8.75l-1.5-1-2.75 1.85-.1-.15a3.46 3.46 0 0 0-1.2-1.6l-2.6 1.75.1.2.45-.3a3.5 3.5 0 0 1 .7 1.35v6.65l-.7.6 2 1.35 2-1.3-.7-.6v-7.35l.7-.45 1 1.1v6.85a2.61 2.61 0 0 0 1.1 1.8l2.45-1.6-.1-.35"/><path class="cls-1" d="M158.46 48.52l.7-.45"/><path d="M84.71 57.32l-.75.45-1.45-1v-3.3l3.55-2.4-2-3.75-4.25 2.8v7.25c.8.55 2.55 1.6 2.55 1.6l2.4-1.55-.05-.1zm-2.15-8.25l1.65 2.85L82.56 53v-3.93"/><path class="cls-1" d="M188.86 57.77l.7-.45"/><path d="M194.31 57.37l-.75.45s-1.4-1-1.45-1v-3.3l3.55-2.4-2-3.75-4.25 2.8v7.25C190.21 58 192 59 192 59l2.45-1.55zm-2.2-8.25l1.65 2.88-1.65 1.1v-3.98m9.7-1.4s-1.8 1.2-2.15 1.4a4.08 4.08 0 0 0-1.3-1.75l-2.5 1.63.1.15s.3-.2.35-.25l.15.1c.3.3.45.5.45.65v7.05l-.75.6 2.05 1.6s2.2-1.55 2.15-1.5l-.8-.7v-6.93l.45-.3 1 1.3s-.1.15-.15.25a1.69 1.69 0 0 0-.4 1c0 .15.2.55.5.55h.04a1.46 1.46 0 0 0 .45-.1l.1-.05h-.1a2.44 2.44 0 0 1-.35-.15h-.05a.81.81 0 0 1-.25-.45 1.51 1.51 0 0 1 .45-.9 11.79 11.79 0 0 1 1.7-1.45l-1.15-1.75"/><path class="cls-1" d="M200.26 57.42l.5-.35"/><path d="M163 49l1.8 1.65v6.05l-.55.45h-.05a2.92 2.92 0 0 1-1.45-2v-6zm4.35 7.05V49s-1.3-1.15-1.8-1.7a28 28 0 0 1-5.55 2.22 3.68 3.68 0 0 1 .25.3v4.4a8.34 8.34 0 0 0 .25 2.45 3.54 3.54 0 0 0 1.6 2l.2.1-4.1 3.45a1.54 1.54 0 0 1 .05.45 1.27 1.27 0 0 0 .35-.1 3.43 3.43 0 0 1 1.6-.35 6.41 6.41 0 0 1 2.9 1.1 1.09 1.09 0 0 1 .25.15 14.62 14.62 0 0 0 2.8-2.15 16 16 0 0 0 1.6-1.65 2.55 2.55 0 0 0 .7-1.3 1.67 1.67 0 0 0-.55-1 2.2 2.2 0 0 1-.54-1.3zm-1.9 5.5l-.35-.2a5.23 5.23 0 0 0-2.5-.9h-.25c-.3 0-.75.1-1.15.2l-.15-.3 3.5-3a6.37 6.37 0 0 1 1.2 1.4 2.31 2.31 0 0 1 .35 1.3 1.88 1.88 0 0 1-.65 1.45M103.1 46.3a1.47 1.47 0 0 1-.5-.95 1.45 1.45 0 0 1 1.6-1.35 10.69 10.69 0 0 1 1.45.25c.3.05.65.15.7.15a5.49 5.49 0 0 0 3.05-1.8h.05-.05a5 5 0 0 1-1.85-.45 4.43 4.43 0 0 0-1.9-.45c-1.65 0-3.55 1.25-3.55 3a2.3 2.3 0 0 0 1 1.7m3.96 10.6a4.78 4.78 0 0 1-1.5-.15 10.34 10.34 0 0 0-1.1-.2H104a2.65 2.65 0 0 0-2.6 2.8c0 1.85.85 3.85 3.25 3.85.7 0 2.25-.4 2.25-1.85 0 0-.15-.9-.55-.9H106c.05.25.25.65.25.8 0 1-1.3 1.45-1.85 1.45a2.29 2.29 0 0 1-2.5-2.35c0-.85.45-1.8 1.45-1.8s2 .55 2.85.55c2 0 2.4-1.35 2.45-4.05-.1.4-.8 1.85-1.6 1.85m13.15 0a1 1 0 0 1-.4.2.84.84 0 0 1-.25-.1 1.79 1.79 0 0 1-.75-1.45V45.22a2 2 0 0 1 .4-1.25 10.17 10.17 0 0 1-.9-.75c-.6-.5-1.45-1.15-1.9-1.5 0 0-2.4 2-2.55 2.1l-1.1-.9c-.45-.4-1.15-1-1.35-1.1-.35.2-5.35 4.45-5.35 4.45v3.55h-.15a3.06 3.06 0 0 0-3 3.15c0 .1.1.4.15.65v.05l.05-.05a3.27 3.27 0 0 1 .75-.9 2.35 2.35 0 0 1 1.1-.45c.9-.1.95-.05 1 0l.05.05v3.8a1 1 0 0 1-.2.75 6.32 6.32 0 0 0 2.4-2.1c.4-.8.35-.8.35-2.45V52h2.3v4.4l-.8.85 2.75 1.85 2.55-1.9-.35-.2a.72.72 0 0 0-.15.1.38.38 0 0 1-.25.1c-.25 0-1.05-.7-1.15-.85V52H116v4.15a3.48 3.48 0 0 0 .3 1.5 4.85 4.85 0 0 0 1.45 1.45c.25-.15 2.6-1.85 2.6-1.85l-.1-.15zm-9.2-7.43h-2.3v-4.8l.95-.8 1.35 1.15v4.45zm5.2 0h-2.6v-4.85l.9-.75 1.65 1.55.05 4.05m63.6 6.4a5.52 5.52 0 0 0-5.15 5.3c0 1 .4 2.6 1.9 2.6.65 0 1.1-.3 1.1-1.15a1.33 1.33 0 0 0-.15-.6c-.1.3-.6 1-1.1 1a1.45 1.45 0 0 1-1.4-1.65 3.32 3.32 0 0 1 3.1-3.45 4.12 4.12 0 0 1 3.15 1.65s2.25-1.65 2.25-1.7c-1.25-1.6-2.05-2-3.7-1.95"/><path class="cls-3" d="M30.53 11.31a8 8 0 0 1 6.34-2.07 8.29 8.29 0 0 1 5.92 3.1 1.58 1.58 0 0 0 .21-.14 9.18 9.18 0 0 1 4-2.44 11.42 11.42 0 0 1 4-.53 9.29 9.29 0 0 1 3.91.9 7.09 7.09 0 0 1 3.18 3.2 13 13 0 0 1 1.19 3.89 30.46 30.46 0 0 1 .22 4.63v12.34c0 .38 0 .39-.39.38h-5.95c-.26 0-.27-.12-.27-.32V20.43a8.84 8.84 0 0 0-.31-2.49 3.2 3.2 0 0 0-1.41-2 4 4 0 0 0-1.77-.48 5.27 5.27 0 0 0-2.16.28 2.9 2.9 0 0 0-1.69 1.69 7.81 7.81 0 0 0-.55 3.09v13.67c0 .38 0 .38-.39.38h-6c-.21 0-.27-.08-.27-.28v-2.35-11.55a8.67 8.67 0 0 0-.34-2.68 3 3 0 0 0-2.68-2.24 5.11 5.11 0 0 0-2.56.2 3.22 3.22 0 0 0-1.92 2.25 8.2 8.2 0 0 0-.32 2.37v13.89c0 .35 0 .35-.35.35h-5.95c-.25 0-.32-.06-.32-.32V10.07c0-.26.08-.32.32-.32h5.95c.33 0 .33 0 .33.33v1.15c-.02 0-.01.02.03.08zM69.92 34.54h-6.26c-.22 0-.28-.07-.28-.29V3.61a.35.35 0 0 1 .23-.36l3.66-1.83L69.65.25l.25-.12v11.2c.39-.28.72-.53 1.08-.76a8.94 8.94 0 0 1 4-1.31 9.78 9.78 0 0 1 2.8.13 8.57 8.57 0 0 1 2.89 1.11 8.1 8.1 0 0 1 3.47 4.62 15.39 15.39 0 0 1 .73 4.36v14.75c0 .34 0 .34-.34.34h-5.9c-.24 0-.31-.06-.31-.3V21.05a10.52 10.52 0 0 0-.3-2.74 3.6 3.6 0 0 0-1.67-2.38 4.22 4.22 0 0 0-1.85-.47 5 5 0 0 0-2.59.48 3.13 3.13 0 0 0-1.42 1.59A6 6 0 0 0 70 19.9q-.05 3.3-.06 6.59v7.7zM10.64 35.06a22.11 22.11 0 0 1-4-.42 19.31 19.31 0 0 1-6.2-2.36.19.19 0 0 1-.09-.28c.67-1.51 1.34-3 2-4.53.09-.22.19-.23.38-.13a19 19 0 0 0 4.8 1.76 12.54 12.54 0 0 0 2.87.34q1.18 0 2.36-.11a2 2 0 0 0 1.17-.56 1.63 1.63 0 0 0-.17-2.37 5 5 0 0 0-1.5-.77c-1.69-.56-3.4-1.09-5.09-1.69a12.84 12.84 0 0 1-4.07-2.21 5.89 5.89 0 0 1-1.93-3.21A8.08 8.08 0 0 1 1.12 15a6.2 6.2 0 0 1 3.19-4.33A10.5 10.5 0 0 1 7.4 9.56a16.13 16.13 0 0 1 3.52-.33 18.87 18.87 0 0 1 4.46.6 23.35 23.35 0 0 1 4.49 1.69c.18.09.14.19.09.32l-1.12 2.77c-.25.62-.5 1.25-.74 1.88-.08.19-.14.27-.38.16a20.44 20.44 0 0 0-4.64-1.58 11.33 11.33 0 0 0-4.64 0 1.36 1.36 0 0 0-1 1.2 1.17 1.17 0 0 0 .69 1.26 24.66 24.66 0 0 0 4.06 1.64 31.46 31.46 0 0 1 4.14 1.57 10.68 10.68 0 0 1 2.51 1.69 6.07 6.07 0 0 1 1.88 3.63 8.16 8.16 0 0 1-.51 4.45 6.62 6.62 0 0 1-3.44 3.42 11.56 11.56 0 0 1-4.09 1c-.68.07-1.37.07-2.04.13z"/><path class="cls-4" d="M143.33 12.84c1.73-2 3.76-3.26 6.47-3.07s4.55 1.69 6 3.77a19.43 19.43 0 0 1 1.39-1.54 8.36 8.36 0 0 1 5.31-2.23 8.51 8.51 0 0 1 3.92.64 6.62 6.62 0 0 1 3.74 4.14 13.39 13.39 0 0 1 .66 4.48c0 4.79 0 9.58.06 14.38 0 .6 0 .6-.6.6h-2.34c-.38 0-.47-.11-.47-.48V22.06c0-1.38-.05-2.77-.16-4.15a6.68 6.68 0 0 0-1.17-3.51 4 4 0 0 0-3-1.6 4.84 4.84 0 0 0-5.66 4 15.26 15.26 0 0 0-.34 2.91V33.4c0 .52 0 .52-.54.53-.83 0-1.67 0-2.5.07-.38 0-.48-.11-.47-.47V20.6a14.56 14.56 0 0 0-.6-4.69 4.51 4.51 0 0 0-5.19-3.12 4.61 4.61 0 0 0-4 3.54 11.77 11.77 0 0 0-.49 3.7v13.45c0 .41-.11.54-.52.52-.86 0-1.72-.06-2.58-.06-.33 0-.46-.11-.45-.45 0-1.53.07-3.06.08-4.6V16.41v-2.22c0-1.16 0-2.31-.08-3.47 0-.33.11-.46.44-.45h2.71c.3 0 .41.1.4.4-.03.68-.02 1.33-.02 2.17zM197.92 31.49c-.41.34-.81.7-1.24 1a9.92 9.92 0 0 1-7.18 2 6.73 6.73 0 0 1-5.32-3.21 8.23 8.23 0 0 1-1-5.28 7 7 0 0 1 1.78-4 7.59 7.59 0 0 1 3.22-2 13.09 13.09 0 0 1 8.05-.06c.49.14 1 .31 1.45.49.32.12.41 0 .4-.3 0-1.12 0-2.24-.09-3.35a3.87 3.87 0 0 0-2-3.36 7.09 7.09 0 0 0-4-.66 14.24 14.24 0 0 0-4.33 1.2c-.28.12-.57.25-.84.39s-.31.08-.41-.13c-.37-.75-.74-1.49-1.12-2.24-.09-.18-.07-.29.13-.38a17.33 17.33 0 0 1 5.32-1.6 23.67 23.67 0 0 1 3.54-.14 9 9 0 0 1 4.2 1.15 5.8 5.8 0 0 1 2.68 3.64 10.64 10.64 0 0 1 .34 2.46c.06 3.67.07 7.35.08 11 0 1.84 0 3.68-.06 5.53 0 .3-.1.41-.4.4-.93 0-1.85-.05-2.78-.06-.23 0-.31-.09-.31-.31v-1.49-.62zm.2-6.71h-.07v-1.25a.59.59 0 0 0-.29-.4 9.85 9.85 0 0 0-1.06-.38 12.62 12.62 0 0 0-6.7-.45 4 4 0 0 0-3.11 2.46 5.4 5.4 0 0 0-.19 3.78 4.06 4.06 0 0 0 2.52 2.85 6.5 6.5 0 0 0 3.42.26 9.28 9.28 0 0 0 5.36-3.16.92.92 0 0 0 .16-.56c-.03-1.05-.04-2.1-.04-3.15zM115.53 22.47a16.56 16.56 0 0 1 1.09-6.38 9.88 9.88 0 0 1 5.87-5.74 10.42 10.42 0 0 1 6-.26 9.19 9.19 0 0 1 6.26 5 14.59 14.59 0 0 1 1.4 5.3 16 16 0 0 1-1.35 8.37 9.3 9.3 0 0 1-5.12 5 10.13 10.13 0 0 1-9.31-.78 8.82 8.82 0 0 1-3.17-3.52 13.81 13.81 0 0 1-1.55-5.3c-.07-.64-.09-1.28-.12-1.69zm17.24-.47a12.2 12.2 0 0 0-1.13-5.69 6.07 6.07 0 0 0-2.39-2.7 6.73 6.73 0 0 0-4.22-.87 5.64 5.64 0 0 0-2.8 1 7.42 7.42 0 0 0-2.88 4.78 19.15 19.15 0 0 0-.26 5 11.67 11.67 0 0 0 .91 4 6.1 6.1 0 0 0 5 3.92 6.21 6.21 0 0 0 6.78-3.93 12.82 12.82 0 0 0 .99-5.51zM221.3 31.41c-.47.45-.82.83-1.22 1.16a8.49 8.49 0 0 1-6.19 1.93A7.33 7.33 0 0 1 207 29a13.09 13.09 0 0 1-.48-3.62c0-4.86 0-9.72-.06-14.57 0-.53 0-.53.54-.53h2.46c.32 0 .41.09.41.41v6.42c0 2.66 0 5.33.07 8a9.34 9.34 0 0 0 .69 3.49 4.53 4.53 0 0 0 3.51 2.83 5.53 5.53 0 0 0 5.5-1.73 6.62 6.62 0 0 0 1.5-3.7 17.17 17.17 0 0 0 .11-2V10.83c0-.4.09-.54.51-.53h2.46c.35 0 .49.08.49.47v22.74c0 .35-.13.5-.45.5h-2.7c-.1 0-.29-.21-.29-.33v-1.49c.04-.19.03-.46.03-.78zM113.81 12.54l-1.89 2.35c-.17.22-.31.09-.48 0a30.71 30.71 0 0 0-2.87-1.62 6 6 0 0 0-7.57 2.48 10.53 10.53 0 0 0-1.42 5 17.72 17.72 0 0 0 .3 4.86 7.93 7.93 0 0 0 3.19 5.05 5.42 5.42 0 0 0 4.25.77 8.15 8.15 0 0 0 4-2.13c.22-.2.35-.22.56 0q.77.88 1.58 1.72c.2.21.18.33 0 .52a10.67 10.67 0 0 1-4.93 2.67 10.13 10.13 0 0 1-5.1 0 9 9 0 0 1-4.73-3.11 11.84 11.84 0 0 1-2.32-5.12 17.45 17.45 0 0 1-.37-4 15.21 15.21 0 0 1 1.35-6.41 9.54 9.54 0 0 1 6.38-5.42 10.68 10.68 0 0 1 7.38.76 25.33 25.33 0 0 1 2.29 1.33 3.28 3.28 0 0 1 .4.3zM177.59 34.51a2.82 2.82 0 0 1-2.83-2.89 2.91 2.91 0 0 1 2.79-3.05 3.1 3.1 0 0 1 3 2.91 3 3 0 0 1-2.96 3.03zM94.37 31.63a2.88 2.88 0 1 1-3.22-3 2.85 2.85 0 0 1 3.22 3z"/><path fill="#8a8b8d" stroke="#8a8b8d" stroke-miterlimit="10" d="M225.31 37.47H.31"/></svg>