<?xml version="1.0" encoding="utf-8"?>
<!-- Generator: Adobe Illustrator 19.0.0, SVG Export Plug-In . SVG Version: 6.00 Build 0)  -->
<svg version="1.1" id="Layer_1" xmlns="http://www.w3.org/2000/svg" xmlns:xlink="http://www.w3.org/1999/xlink" x="0px" y="0px"
	 viewBox="-256 379 99 35" style="enable-background:new -256 379 99 35;" xml:space="preserve">
<style type="text/css">
	.st0{fill:#000;}
</style>
<title>logo</title>
<desc>Created with Sketch Beta.</desc>
<g id="Symbols">
	<g id="Header" transform="translate(-47.000000, -14.000000)">
		<g id="logo" transform="translate(47.000000, 14.000000)">
			<g id="Group">
				<path id="Fill-1" class="st0" d="M-213.3,408.9h10.4c3.3,0,4.9-2.8,4.9-5.4c0-2.7-1.6-4.8-4.9-4.8h-10.4V408.9z M-213.3,393.8
					h9.1c5.3,0,5.4-9.4,0.1-9.4h-9.2V393.8z M-204.1,379.7c4.2,0,6.9,2.4,8.2,5.6c1.3,3.3,0.9,7.8-2.5,10.3c3.8,1.7,5.2,4.6,5.2,7.8
					c0,5.1-3.3,10.2-9.8,10.2h-15.2v-33.9H-204.1z"/>
				<path id="Fill-3" class="st0" d="M-157.5,393.8h-0.2h-4.9h-11.8l-1.3,4.7h13.3c-0.9,5.9-5.9,10.3-11.9,10.3
					c-6.7,0-12.1-5.5-12.1-12.2c0-6.7,5.4-12.2,12.1-12.2c4.1,0,7.7,2,9.9,5.2h5.7c-2.7-6-8.6-10.1-15.5-10.1c-9.4,0-17,7.7-17,17.2
					c0,9.5,7.6,17.2,17,17.2c9.4,0,17-7.7,17-17.2C-157.3,395.7-157.3,394.7-157.5,393.8"/>
				<path id="Fill-6" class="st0" d="M-221.2,393.8h-0.2h-4.9H-238l-1.3,4.7h13.3c-0.9,5.9-5.9,10.3-11.9,10.3
					c-6.7,0-12.1-5.5-12.1-12.2c0-6.7,5.4-12.2,12.1-12.2c4.1,0,7.7,2,9.9,5.2h5.7c-2.7-6-8.6-10.1-15.5-10.1c-9.4,0-17,7.7-17,17.2
					c0,9.5,7.6,17.2,17,17.2c9.4,0,17-7.7,17-17.2C-221,395.7-221.1,394.7-221.2,393.8"/>
			</g>
			<g id="Clip-9">
			</g>
		</g>
	</g>
</g>
</svg>
